<svg width="22" height="20" viewBox="0 0 22 20" fill="none" xmlns="http://www.w3.org/2000/svg">
<g clip-path="url(#clip0_834_833)">
<path d="M20.9456 19.1665L18.2136 16.6665M10.4728 17.4998C11.6089 17.4998 12.7339 17.2951 13.7836 16.8972C14.8332 16.4994 15.7869 15.9162 16.5903 15.1811C17.3937 14.446 18.0309 13.5732 18.4657 12.6127C18.9005 11.6523 19.1242 10.6228 19.1242 9.58317C19.1242 8.54354 18.9005 7.51409 18.4657 6.55359C18.0309 5.5931 17.3937 4.72037 16.5903 3.98524C15.7869 3.25011 14.8332 2.66697 13.7836 2.26912C12.7339 1.87127 11.6089 1.6665 10.4728 1.6665C8.17829 1.6665 5.97776 2.50058 4.3553 3.98524C2.73284 5.4699 1.82135 7.48354 1.82135 9.58317C1.82135 11.6828 2.73284 13.6964 4.3553 15.1811C5.97776 16.6658 8.17829 17.4998 10.4728 17.4998Z" stroke="black" stroke-width="1.5" stroke-linecap="round" stroke-linejoin="round"/>
</g>
<defs>
<clipPath id="clip0_834_833">
<rect width="21.8563" height="20" fill="white"/>
</clipPath>
</defs>
</svg>
