<svg width="85" height="88" viewBox="0 0 85 88" fill="none" xmlns="http://www.w3.org/2000/svg">
<path d="M9.52693 83.8555C9.38872 83.4507 9.24558 83.0509 9.0975 82.656C8.94942 82.2611 8.80628 81.8564 8.66807 81.4418H4.34416C4.20595 81.8564 4.0628 82.2661 3.91473 82.6708C3.77652 83.0657 3.63831 83.4606 3.5001 83.8555H1.56026C1.94527 82.7597 2.31053 81.7478 2.65605 80.8198C3.00157 79.8919 3.33722 79.0133 3.66299 78.184C3.99864 77.3548 4.32935 76.565 4.65512 75.8148C4.9809 75.0645 5.31654 74.3241 5.66206 73.5936H7.42421C7.76972 74.3241 8.10537 75.0645 8.43114 75.8148C8.75692 76.565 9.08269 77.3548 9.40847 78.184C9.74411 79.0133 10.0847 79.8919 10.4302 80.8198C10.7856 81.7478 11.1558 82.7597 11.5408 83.8555H9.52693ZM6.50611 75.5778C6.27906 76.101 6.01745 76.7378 5.72129 77.4881C5.43501 78.2383 5.13391 79.0528 4.81801 79.9314H8.19422C7.87831 79.0528 7.57228 78.2334 7.27613 77.4733C6.97997 76.7131 6.7233 76.0813 6.50611 75.5778ZM18.9137 83.6185C18.5681 83.7074 18.119 83.7962 17.5661 83.8851C17.0133 83.9838 16.4062 84.0332 15.7448 84.0332C15.1228 84.0332 14.5996 83.9443 14.1751 83.7666C13.7605 83.5889 13.4248 83.3421 13.1682 83.0262C12.9214 82.7103 12.7437 82.3352 12.6351 81.9008C12.5265 81.4566 12.4722 80.9729 12.4722 80.4496V76.1109H14.264V80.1683C14.264 80.9975 14.3824 81.5899 14.6194 81.9452C14.8662 82.3006 15.2906 82.4783 15.8928 82.4783C16.11 82.4783 16.3371 82.4685 16.574 82.4487C16.8208 82.429 17.0034 82.4043 17.1219 82.3747V76.1109H18.9137V83.6185ZM21.1053 74.0674L22.8971 73.7713V76.1109H25.6514V77.6065H22.8971V80.7606C22.8971 81.3825 22.9958 81.8268 23.1933 82.0933C23.3907 82.3599 23.7263 82.4931 24.2002 82.4931C24.526 82.4931 24.8123 82.4586 25.0591 82.3895C25.3157 82.3204 25.5181 82.2562 25.6662 82.197L25.9623 83.6185C25.755 83.7074 25.4836 83.7962 25.1479 83.8851C24.8123 83.9838 24.4174 84.0332 23.9633 84.0332C23.4104 84.0332 22.9465 83.9591 22.5713 83.811C22.2061 83.663 21.9148 83.4507 21.6977 83.1743C21.4805 82.888 21.3275 82.5474 21.2386 82.1526C21.1498 81.7478 21.1053 81.2888 21.1053 80.7754V74.0674ZM34.2141 79.9758C34.2141 80.5879 34.1252 81.1456 33.9475 81.6491C33.7698 82.1526 33.5181 82.582 33.1923 82.9374C32.8665 83.2928 32.4717 83.5692 32.0077 83.7666C31.5536 83.9641 31.0501 84.0628 30.4973 84.0628C29.9444 84.0628 29.441 83.9641 28.9869 83.7666C28.5328 83.5692 28.1428 83.2928 27.817 82.9374C27.4913 82.582 27.2346 82.1526 27.047 81.6491C26.8693 81.1456 26.7805 80.5879 26.7805 79.9758C26.7805 79.3637 26.8693 78.8109 27.047 78.3173C27.2346 77.8138 27.4913 77.3844 27.817 77.029C28.1527 76.6736 28.5476 76.4021 29.0017 76.2146C29.4558 76.0171 29.9543 75.9184 30.4973 75.9184C31.0402 75.9184 31.5388 76.0171 31.9929 76.2146C32.4569 76.4021 32.8517 76.6736 33.1775 77.029C33.5033 77.3844 33.755 77.8138 33.9327 78.3173C34.1203 78.8109 34.2141 79.3637 34.2141 79.9758ZM32.3779 79.9758C32.3779 79.2058 32.2101 78.5987 31.8744 78.1544C31.5486 77.7003 31.0896 77.4733 30.4973 77.4733C29.905 77.4733 29.441 77.7003 29.1053 78.1544C28.7796 78.5987 28.6167 79.2058 28.6167 79.9758C28.6167 80.7557 28.7796 81.3727 29.1053 81.8268C29.441 82.2809 29.905 82.5079 30.4973 82.5079C31.0896 82.5079 31.5486 82.2809 31.8744 81.8268C32.2101 81.3727 32.3779 80.7557 32.3779 79.9758ZM40.4727 79.7833C40.4727 78.9738 40.3691 78.3913 40.1618 78.036C39.9643 77.6707 39.5892 77.4881 39.0364 77.4881C38.8389 77.4881 38.6217 77.5029 38.3848 77.5325C38.1479 77.5621 37.9702 77.5868 37.8517 77.6065V83.8555H36.06V76.3627C36.4055 76.2639 36.8547 76.1702 37.4075 76.0813C37.9702 75.9925 38.5625 75.948 39.1844 75.948C39.7175 75.948 40.1519 76.0171 40.4875 76.1553C40.8331 76.2936 41.1193 76.4762 41.3464 76.7032C41.455 76.6243 41.5932 76.5404 41.761 76.4515C41.9288 76.3627 42.1164 76.2837 42.3237 76.2146C42.531 76.1356 42.7482 76.0714 42.9753 76.0221C43.2122 75.9727 43.4491 75.948 43.686 75.948C44.2882 75.948 44.7818 76.0369 45.1668 76.2146C45.5617 76.3824 45.8677 76.6243 46.0849 76.9402C46.312 77.2462 46.465 77.6213 46.544 78.0656C46.6328 78.4999 46.6772 78.9787 46.6772 79.5019V83.8555H44.8855V79.7833C44.8855 78.9738 44.7868 78.3913 44.5893 78.036C44.3919 77.6707 44.0118 77.4881 43.4491 77.4881C43.1628 77.4881 42.8914 77.5374 42.6347 77.6361C42.378 77.725 42.1855 77.8138 42.0572 77.9027C42.1361 78.1495 42.1904 78.4111 42.2201 78.6875C42.2497 78.9639 42.2645 79.2601 42.2645 79.576V83.8555H40.4727V79.7833ZM55.8764 79.9758C55.8764 80.5879 55.7876 81.1456 55.6099 81.6491C55.4322 82.1526 55.1805 82.582 54.8547 82.9374C54.5289 83.2928 54.134 83.5692 53.6701 83.7666C53.216 83.9641 52.7125 84.0628 52.1597 84.0628C51.6068 84.0628 51.1034 83.9641 50.6492 83.7666C50.1951 83.5692 49.8052 83.2928 49.4794 82.9374C49.1536 82.582 48.897 82.1526 48.7094 81.6491C48.5317 81.1456 48.4429 80.5879 48.4429 79.9758C48.4429 79.3637 48.5317 78.8109 48.7094 78.3173C48.897 77.8138 49.1536 77.3844 49.4794 77.029C49.8151 76.6736 50.2099 76.4021 50.6641 76.2146C51.1182 76.0171 51.6167 75.9184 52.1597 75.9184C52.7026 75.9184 53.2011 76.0171 53.6553 76.2146C54.1192 76.4021 54.5141 76.6736 54.8399 77.029C55.1657 77.3844 55.4174 77.8138 55.5951 78.3173C55.7827 78.8109 55.8764 79.3637 55.8764 79.9758ZM54.0403 79.9758C54.0403 79.2058 53.8724 78.5987 53.5368 78.1544C53.211 77.7003 52.752 77.4733 52.1597 77.4733C51.5673 77.4733 51.1034 77.7003 50.7677 78.1544C50.4419 78.5987 50.279 79.2058 50.279 79.9758C50.279 80.7557 50.4419 81.3727 50.7677 81.8268C51.1034 82.2809 51.5673 82.5079 52.1597 82.5079C52.752 82.5079 53.211 82.2809 53.5368 81.8268C53.8724 81.3727 54.0403 80.7557 54.0403 79.9758ZM57.6335 74.0674L59.4253 73.7713V76.1109H62.1795V77.6065H59.4253V80.7606C59.4253 81.3825 59.524 81.8268 59.7214 82.0933C59.9189 82.3599 60.2545 82.4931 60.7284 82.4931C61.0541 82.4931 61.3404 82.4586 61.5872 82.3895C61.8439 82.3204 62.0463 82.2562 62.1943 82.197L62.4905 83.6185C62.2832 83.7074 62.0117 83.7962 61.6761 83.8851C61.3404 83.9838 60.9455 84.0332 60.4914 84.0332C59.9386 84.0332 59.4746 83.9591 59.0995 83.811C58.7342 83.663 58.443 83.4507 58.2258 83.1743C58.0086 82.888 57.8556 82.5474 57.7668 82.1526C57.6779 81.7478 57.6335 81.2888 57.6335 80.7754V74.0674ZM65.7182 83.8555H63.9264V76.1109H65.7182V83.8555ZM65.9107 73.8453C65.9107 74.181 65.8021 74.4475 65.5849 74.6449C65.3677 74.8424 65.111 74.9411 64.8149 74.9411C64.5088 74.9411 64.2472 74.8424 64.0301 74.6449C63.8129 74.4475 63.7043 74.181 63.7043 73.8453C63.7043 73.4998 63.8129 73.2283 64.0301 73.0309C64.2472 72.8334 64.5088 72.7347 64.8149 72.7347C65.111 72.7347 65.3677 72.8334 65.5849 73.0309C65.8021 73.2283 65.9107 73.4998 65.9107 73.8453ZM69.9883 83.8555C69.4947 82.8387 68.9863 81.6738 68.4631 80.3608C67.9497 79.038 67.4808 77.6213 67.0563 76.1109H68.9665C69.0751 76.5453 69.1985 77.0142 69.3367 77.5177C69.4848 78.0113 69.6378 78.5098 69.7958 79.0133C69.9636 79.5069 70.1314 79.9906 70.2993 80.4645C70.477 80.9284 70.6398 81.348 70.7879 81.7231C70.936 81.348 71.0939 80.9284 71.2618 80.4645C71.4296 79.9906 71.5925 79.5069 71.7504 79.0133C71.9183 78.5098 72.0762 78.0113 72.2243 77.5177C72.3724 77.0142 72.5007 76.5453 72.6093 76.1109H74.4603C74.0358 77.6213 73.5619 79.038 73.0387 80.3608C72.5254 81.6738 72.0219 82.8387 71.5283 83.8555H69.9883ZM75.1955 80.0202C75.1955 79.3391 75.2942 78.7418 75.4916 78.2285C75.6989 77.7151 75.9704 77.2906 76.3061 76.955C76.6417 76.6095 77.0267 76.3528 77.4611 76.185C77.8954 76.0073 78.3397 75.9184 78.7938 75.9184C79.86 75.9184 80.6892 76.2491 81.2815 76.9105C81.8837 77.572 82.1848 78.5592 82.1848 79.8721C82.1848 79.9709 82.1799 80.0844 82.17 80.2127C82.17 80.3312 82.1651 80.4398 82.1552 80.5385H77.0465C77.0958 81.1604 77.313 81.6442 77.698 81.9897C78.0929 82.3253 78.6605 82.4931 79.4009 82.4931C79.8353 82.4931 80.2302 82.4537 80.5855 82.3747C80.9508 82.2957 81.2371 82.2118 81.4444 82.1229L81.6813 83.5889C81.5826 83.6383 81.4444 83.6926 81.2667 83.7518C81.0989 83.8012 80.9014 83.8456 80.6744 83.8851C80.4572 83.9344 80.2203 83.9739 79.9636 84.0035C79.7069 84.0332 79.4453 84.048 79.1788 84.048C78.4976 84.048 77.9053 83.9493 77.4018 83.7518C76.8984 83.5445 76.4838 83.2632 76.158 82.9078C75.8322 82.5425 75.5903 82.118 75.4324 81.6343C75.2744 81.1407 75.1955 80.6027 75.1955 80.0202ZM80.393 79.2206C80.393 78.9738 80.3585 78.7418 80.2894 78.5246C80.2203 78.2976 80.1166 78.1051 79.9784 77.9471C79.8501 77.7793 79.6872 77.6509 79.4898 77.5621C79.3022 77.4634 79.0751 77.414 78.8086 77.414C78.5322 77.414 78.2903 77.4683 78.083 77.5769C77.8757 77.6756 77.698 77.8089 77.5499 77.9767C77.4117 78.1445 77.3031 78.337 77.2241 78.5542C77.1452 78.7714 77.0909 78.9935 77.0613 79.2206H80.393Z" fill="white"/>
<path d="M39.5775 2.74854C32.38 3.98872 26.1262 6.68289 21.469 12.5331C9.99349 26.962 17.6762 46.6596 34.3028 51.3296C50.859 55.9824 65.3687 45.351 66.8947 30.0497" stroke="white" stroke-width="1.74211" stroke-linecap="round" stroke-linejoin="round"/>
<path d="M39.5767 14.6973C30.4475 16.3565 27.1133 22.8739 28.1629 30.9052C28.8333 36.0541 36.516 41.4852 42.2229 41.1517C47.9121 40.8181 52.6311 37.1831 54.5981 31.7776C54.9421 30.8367 55.7359 30.0584 56.3269 29.2031" stroke="white" stroke-width="1.74211" stroke-linecap="round" stroke-linejoin="round"/>
<path d="M50.5964 1.04688C47.9855 1.85941 47.2358 3.6299 47.4651 6.17014C47.668 8.42813 47.5092 10.7203 47.5092 13.0639C49.2469 14.304 51.2138 15.3903 52.7486 16.8785C54.2834 18.3753 55.3859 20.2826 57.0795 22.532C60.493 22.3096 64.1624 22.0616 67.4613 21.8392C70.7249 14.4067 61.4104 3.2621 51.0463 1.04688" stroke="white" stroke-width="1.74211" stroke-linecap="round" stroke-linejoin="round"/>
<line x1="43.8161" y1="19.3369" x2="43.8161" y2="22.8214" stroke="white" stroke-width="1.74211"/>
<line x1="43.8172" y1="31.5303" x2="43.8172" y2="35.0148" stroke="white" stroke-width="1.74211"/>
<line x1="50.1293" y1="28.0454" x2="46.5358" y2="28.0454" stroke="white" stroke-width="1.74211"/>
<line x1="40.2484" y1="28.0454" x2="36.6549" y2="28.0454" stroke="white" stroke-width="1.74211"/>
</svg>
