<svg width="62" height="87" viewBox="0 0 62 87" fill="none" xmlns="http://www.w3.org/2000/svg">
<path d="M5.32179 72.4938C6.81245 72.4938 7.95266 72.7653 8.74242 73.3083C9.54205 73.8512 9.94186 74.7002 9.94186 75.8552C9.94186 76.4574 9.83327 76.9757 9.61609 77.4101C9.40878 77.8346 9.10274 78.185 8.69799 78.4614C8.29324 78.728 7.79965 78.9254 7.2172 79.0537C6.63476 79.1821 5.9684 79.2462 5.21813 79.2462H4.28523V82.8594H2.41943V72.7456C2.8538 72.6468 3.33259 72.5827 3.8558 72.5531C4.38889 72.5136 4.87755 72.4938 5.32179 72.4938ZM5.45506 74.1079C4.9812 74.1079 4.59126 74.1227 4.28523 74.1523V77.647H5.18852C6.08686 77.647 6.7779 77.5236 7.26163 77.2768C7.74535 77.0201 7.98721 76.5413 7.98721 75.8404C7.98721 75.5048 7.92305 75.2234 7.79471 74.9964C7.66638 74.7693 7.48868 74.5916 7.26163 74.4633C7.03457 74.3349 6.76309 74.2461 6.44719 74.1967C6.14116 74.1375 5.81045 74.1079 5.45506 74.1079ZM10.7078 79.0241C10.7078 78.343 10.8065 77.7457 11.004 77.2324C11.2113 76.719 11.4828 76.2945 11.8184 75.9589C12.1541 75.6134 12.5391 75.3567 12.9734 75.1889C13.4078 75.0112 13.852 74.9223 14.3062 74.9223C15.3723 74.9223 16.2016 75.253 16.7939 75.9145C17.3961 76.5759 17.6972 77.5631 17.6972 78.876C17.6972 78.9748 17.6922 79.0883 17.6824 79.2166C17.6824 79.3351 17.6774 79.4437 17.6675 79.5424H12.5588C12.6082 80.1643 12.8254 80.6481 13.2104 80.9936C13.6052 81.3292 14.1729 81.497 14.9133 81.497C15.3476 81.497 15.7425 81.4576 16.0979 81.3786C16.4632 81.2996 16.7495 81.2157 16.9568 81.1268L17.1937 82.5928C17.095 82.6422 16.9568 82.6965 16.7791 82.7557C16.6113 82.8051 16.4138 82.8495 16.1868 82.889C15.9696 82.9384 15.7326 82.9778 15.476 83.0075C15.2193 83.0371 14.9577 83.0519 14.6912 83.0519C14.01 83.0519 13.4177 82.9532 12.9142 82.7557C12.4107 82.5484 11.9961 82.2671 11.6703 81.9117C11.3446 81.5464 11.1027 81.1219 10.9448 80.6382C10.7868 80.1446 10.7078 79.6066 10.7078 79.0241ZM15.9054 78.2245C15.9054 77.9777 15.8709 77.7457 15.8018 77.5285C15.7326 77.3015 15.629 77.109 15.4908 76.951C15.3624 76.7832 15.1996 76.6549 15.0021 76.566C14.8146 76.4673 14.5875 76.4179 14.321 76.4179C14.0445 76.4179 13.8027 76.4722 13.5954 76.5808C13.3881 76.6795 13.2104 76.8128 13.0623 76.9806C12.9241 77.1485 12.8155 77.341 12.7365 77.5581C12.6575 77.7753 12.6032 77.9974 12.5736 78.2245H15.9054ZM19.508 73.0713L21.2998 72.7752V75.1148H24.054V76.6104H21.2998V79.7645C21.2998 80.3865 21.3985 80.8307 21.5959 81.0972C21.7934 81.3638 22.129 81.497 22.6029 81.497C22.9286 81.497 23.2149 81.4625 23.4617 81.3934C23.7184 81.3243 23.9208 81.2601 24.0689 81.2009L24.365 82.6224C24.1577 82.7113 23.8862 82.8001 23.5506 82.889C23.2149 82.9877 22.8201 83.0371 22.3659 83.0371C21.8131 83.0371 21.3491 82.963 20.974 82.815C20.6087 82.6669 20.3175 82.4546 20.1003 82.1782C19.8831 81.8919 19.7301 81.5513 19.6413 81.1565C19.5524 80.7517 19.508 80.2927 19.508 79.7793V73.0713ZM33.8919 83.0815C33.1219 83.0815 32.4309 82.963 31.8188 82.7261C31.2068 82.4892 30.6885 82.1437 30.264 81.6895C29.8395 81.2256 29.5137 80.6629 29.2867 80.0014C29.0596 79.34 28.9461 78.5799 28.9461 77.721C28.9461 76.8622 29.0744 76.102 29.3311 75.4406C29.5976 74.7792 29.958 74.2214 30.4121 73.7673C30.8662 73.3033 31.3993 72.9529 32.0113 72.7159C32.6234 72.479 33.2799 72.3606 33.9808 72.3606C34.4053 72.3606 34.7903 72.3951 35.1358 72.4642C35.4813 72.5234 35.7824 72.5925 36.0391 72.6715C36.2958 72.7505 36.508 72.8344 36.6758 72.9233C36.8437 73.0121 36.9621 73.0763 37.0312 73.1158L36.4833 74.641C36.2464 74.4929 35.9058 74.3547 35.4616 74.2264C35.0272 74.0881 34.5534 74.019 34.04 74.019C33.5958 74.019 33.1812 74.098 32.7962 74.256C32.4112 74.404 32.0755 74.6311 31.7892 74.9371C31.5128 75.2432 31.2956 75.6282 31.1377 76.0922C30.9797 76.5561 30.9007 77.0942 30.9007 77.7062C30.9007 78.2492 30.96 78.7477 31.0784 79.2018C31.2068 79.6559 31.3993 80.0508 31.656 80.3865C31.9126 80.7122 32.2384 80.9689 32.6333 81.1565C33.0282 81.3342 33.502 81.423 34.0548 81.423C34.7163 81.423 35.2543 81.3588 35.6689 81.2305C36.0835 81.0923 36.4044 80.964 36.6314 80.8455L37.1349 82.3707C37.0164 82.4497 36.8535 82.5287 36.6462 82.6076C36.4488 82.6866 36.2119 82.7656 35.9354 82.8446C35.659 82.9137 35.3481 82.968 35.0025 83.0075C34.657 83.0568 34.2868 83.0815 33.8919 83.0815ZM41.4099 81.6007C41.9627 81.6007 42.3823 81.5711 42.6685 81.5119V79.5276C42.5698 79.498 42.4267 79.4684 42.2391 79.4387C42.0515 79.4091 41.8442 79.3943 41.6172 79.3943C41.4197 79.3943 41.2174 79.4091 41.0101 79.4387C40.8126 79.4684 40.63 79.5227 40.4622 79.6016C40.3042 79.6806 40.1759 79.7941 40.0772 79.9422C39.9784 80.0804 39.9291 80.2581 39.9291 80.4753C39.9291 80.8998 40.0623 81.196 40.3289 81.3638C40.5954 81.5217 40.9558 81.6007 41.4099 81.6007ZM41.2618 74.9223C41.8541 74.9223 42.3526 74.9964 42.7574 75.1444C43.1621 75.2925 43.483 75.4998 43.7199 75.7664C43.9667 76.0329 44.1395 76.3587 44.2382 76.7437C44.3468 77.1188 44.4011 77.5335 44.4011 77.9876V82.6817C44.1247 82.7409 43.7051 82.81 43.1424 82.889C42.5896 82.9778 41.9627 83.0223 41.2618 83.0223C40.7978 83.0223 40.3733 82.9778 39.9883 82.889C39.6033 82.8001 39.2726 82.657 38.9962 82.4596C38.7296 82.2621 38.5174 82.0055 38.3594 81.6895C38.2114 81.3736 38.1373 80.9837 38.1373 80.5197C38.1373 80.0755 38.2212 79.7003 38.3891 79.3943C38.5667 79.0883 38.8037 78.8415 39.0998 78.6539C39.396 78.4565 39.7366 78.3183 40.1216 78.2393C40.5165 78.1505 40.9261 78.106 41.3506 78.106C41.5481 78.106 41.7554 78.1208 41.9726 78.1505C42.1898 78.1702 42.4217 78.2097 42.6685 78.2689V77.9728C42.6685 77.7654 42.6439 77.568 42.5945 77.3804C42.5451 77.1929 42.4563 77.03 42.328 76.8918C42.2095 76.7437 42.0466 76.6302 41.8393 76.5512C41.6419 76.4722 41.3901 76.4327 41.0841 76.4327C40.6695 76.4327 40.2894 76.4623 39.9439 76.5216C39.5984 76.5808 39.317 76.6499 39.0998 76.7289L38.8777 75.2777C39.1048 75.1987 39.4355 75.1198 39.8698 75.0408C40.3042 74.9618 40.7682 74.9223 41.2618 74.9223ZM51.0081 76.7289C50.86 76.6795 50.6527 76.6302 50.3861 76.5808C50.1295 76.5216 49.8284 76.492 49.4829 76.492C49.2854 76.492 49.0732 76.5117 48.8461 76.5512C48.6289 76.5907 48.4759 76.6252 48.3871 76.6549V82.8594H46.5953V75.485C46.9408 75.3567 47.3703 75.2382 47.8836 75.1296C48.4068 75.0112 48.9843 74.9519 49.6161 74.9519C49.7346 74.9519 49.8728 74.9618 50.0307 74.9816C50.1887 74.9914 50.3466 75.0112 50.5046 75.0408C50.6625 75.0605 50.8156 75.0901 50.9636 75.1296C51.1117 75.1593 51.2302 75.1889 51.319 75.2185L51.0081 76.7289ZM52.1382 79.0241C52.1382 78.343 52.2369 77.7457 52.4344 77.2324C52.6417 76.719 52.9132 76.2945 53.2488 75.9589C53.5845 75.6134 53.9695 75.3567 54.4038 75.1889C54.8382 75.0112 55.2824 74.9223 55.7365 74.9223C56.8027 74.9223 57.632 75.253 58.2243 75.9145C58.8265 76.5759 59.1276 77.5631 59.1276 78.876C59.1276 78.9748 59.1226 79.0883 59.1127 79.2166C59.1127 79.3351 59.1078 79.4437 59.0979 79.5424H53.9892C54.0386 80.1643 54.2557 80.6481 54.6407 80.9936C55.0356 81.3292 55.6033 81.497 56.3437 81.497C56.778 81.497 57.1729 81.4576 57.5283 81.3786C57.8936 81.2996 58.1798 81.2157 58.3872 81.1268L58.6241 82.5928C58.5254 82.6422 58.3872 82.6965 58.2095 82.7557C58.0416 82.8051 57.8442 82.8495 57.6171 82.889C57.4 82.9384 57.163 82.9778 56.9064 83.0075C56.6497 83.0371 56.3881 83.0519 56.1215 83.0519C55.4404 83.0519 54.8481 82.9532 54.3446 82.7557C53.8411 82.5484 53.4265 82.2671 53.1007 81.9117C52.775 81.5464 52.5331 81.1219 52.3751 80.6382C52.2172 80.1446 52.1382 79.6066 52.1382 79.0241ZM57.3358 78.2245C57.3358 77.9777 57.3012 77.7457 57.2321 77.5285C57.163 77.3015 57.0594 77.109 56.9212 76.951C56.7928 76.7832 56.6299 76.6549 56.4325 76.566C56.2449 76.4673 56.0179 76.4179 55.7513 76.4179C55.4749 76.4179 55.2331 76.4722 55.0258 76.5808C54.8184 76.6795 54.6408 76.8128 54.4927 76.9806C54.3545 77.1485 54.2459 77.341 54.1669 77.5581C54.0879 77.7753 54.0336 77.9974 54.004 78.2245H57.3358Z" fill="white"/>
<path d="M49.1609 42.1242C48.4537 41.1659 47.8573 40.0919 47.0139 39.2575C42.9839 35.3002 39.1499 31.4172 36.6536 26.1298C33.6886 19.8593 26.3955 21.6851 24.4274 26.452C22.5786 30.9298 19.6307 34.7136 15.5496 37.6134C14.7487 38.1834 13.6923 38.8692 13.4963 39.6788C13.0703 41.3972 12.5591 43.4461 13.1725 44.9414C13.6071 46.0072 15.7541 46.7094 17.2536 46.982C18.7361 47.2547 20.4656 47.0977 21.897 46.6103C28.321 44.4292 34.7025 45.7097 41.0669 46.6846C47.0735 47.6099 47.2354 47.6099 49.1609 42.5373" stroke="white" stroke-width="1.74211" stroke-linecap="round" stroke-linejoin="round"/>
<path d="M43.1973 0.923828C37.8041 3.05531 35.3504 6.61605 35.5378 12.0522C35.6656 15.7533 38.9799 17.7609 42.3453 16.1747C45.7106 14.5884 48.6841 9.51585 48.2922 5.8725C48.0025 3.15444 46.3326 1.55997 43.6233 0.923828" stroke="white" stroke-width="1.74211" stroke-linecap="round" stroke-linejoin="round"/>
<path d="M16.8154 0.923828C13.3223 2.38612 12.4191 4.77372 13.3393 8.35923C14.3446 12.2504 15.8527 15.5468 20.232 16.5464C23.0691 17.1908 25.0969 15.3898 25.3354 12.4652C25.787 6.92172 24.0489 3.29488 17.2414 0.932073" stroke="white" stroke-width="1.74211" stroke-linecap="round" stroke-linejoin="round"/>
<path d="M9.57641 30.1796C10.8203 29.3782 12.0728 28.5769 13.0952 27.9159C11.6297 19.8774 6.95226 16.8041 1.06496 19.4643C0.20444 25.6357 2.69227 29.0643 9.15041 30.5927" stroke="white" stroke-width="1.74211" stroke-linecap="round" stroke-linejoin="round"/>
<path d="M61.0803 22.3441C59.6319 18.1802 57.6638 17.2054 53.8639 19.0807C50.7797 20.5926 48.3344 22.7489 48.3259 26.4666C48.3259 29.4986 50.3963 30.9774 53.4209 30.1678C57.3656 29.1103 59.9557 26.7888 60.6543 22.7571" stroke="white" stroke-width="1.74211" stroke-linecap="round" stroke-linejoin="round"/>
</svg>
