<svg width="79" height="88" viewBox="0 0 79 88" fill="none" xmlns="http://www.w3.org/2000/svg">
<path d="M8.85184 73.5428H10.7176V83.8047H8.85184V79.2587H4.39465V83.8047H2.52885V73.5428H4.39465V77.6446H8.85184V73.5428ZM12.6538 79.9694C12.6538 79.2883 12.7525 78.691 12.9499 78.1777C13.1572 77.6643 13.4287 77.2398 13.7644 76.9042C14.1 76.5587 14.485 76.302 14.9194 76.1342C15.3538 75.9565 15.798 75.8676 16.2521 75.8676C17.3183 75.8676 18.1475 76.1983 18.7398 76.8598C19.342 77.5212 19.6431 78.5084 19.6431 79.8214C19.6431 79.9201 19.6382 80.0336 19.6283 80.1619C19.6283 80.2804 19.6234 80.389 19.6135 80.4877H14.5048C14.5541 81.1096 14.7713 81.5934 15.1563 81.9389C15.5512 82.2745 16.1188 82.4424 16.8592 82.4424C17.2936 82.4424 17.6885 82.4029 18.0439 82.3239C18.4091 82.2449 18.6954 82.161 18.9027 82.0722L19.1396 83.5381C19.0409 83.5875 18.9027 83.6418 18.725 83.701C18.5572 83.7504 18.3598 83.7948 18.1327 83.8343C17.9155 83.8837 17.6786 83.9232 17.4219 83.9528C17.1653 83.9824 16.9036 83.9972 16.6371 83.9972C15.9559 83.9972 15.3636 83.8985 14.8602 83.701C14.3567 83.4937 13.9421 83.2124 13.6163 82.857C13.2905 82.4917 13.0487 82.0672 12.8907 81.5835C12.7327 81.0899 12.6538 80.5519 12.6538 79.9694ZM17.8514 79.1698C17.8514 78.923 17.8168 78.691 17.7477 78.4738C17.6786 78.2468 17.5749 78.0543 17.4367 77.8963C17.3084 77.7285 17.1455 77.6002 16.9481 77.5113C16.7605 77.4126 16.5335 77.3632 16.2669 77.3632C15.9905 77.3632 15.7486 77.4175 15.5413 77.5261C15.334 77.6248 15.1563 77.7581 15.0082 77.9259C14.87 78.0938 14.7614 78.2863 14.6825 78.5034C14.6035 78.7206 14.5492 78.9428 14.5196 79.1698H17.8514ZM24.2675 82.546C24.8203 82.546 25.2399 82.5164 25.5261 82.4572V80.4729C25.4274 80.4433 25.2843 80.4137 25.0967 80.3841C24.9091 80.3544 24.7018 80.3396 24.4748 80.3396C24.2773 80.3396 24.075 80.3544 23.8677 80.3841C23.6702 80.4137 23.4876 80.468 23.3198 80.5469C23.1618 80.6259 23.0335 80.7394 22.9348 80.8875C22.836 81.0257 22.7867 81.2034 22.7867 81.4206C22.7867 81.8451 22.9199 82.1413 23.1865 82.3091C23.453 82.467 23.8134 82.546 24.2675 82.546ZM24.1194 75.8676C24.7117 75.8676 25.2102 75.9417 25.615 76.0898C26.0197 76.2378 26.3406 76.4451 26.5775 76.7117C26.8243 76.9782 26.9971 77.304 27.0958 77.689C27.2044 78.0641 27.2587 78.4788 27.2587 78.9329V83.627C26.9823 83.6862 26.5627 83.7553 26 83.8343C25.4472 83.9232 24.8203 83.9676 24.1194 83.9676C23.6554 83.9676 23.2309 83.9232 22.8459 83.8343C22.4609 83.7455 22.1302 83.6023 21.8538 83.4049C21.5872 83.2074 21.375 82.9508 21.217 82.6349C21.069 82.319 20.9949 81.929 20.9949 81.465C20.9949 81.0208 21.0788 80.6457 21.2467 80.3396C21.4243 80.0336 21.6613 79.7868 21.9574 79.5992C22.2536 79.4018 22.5942 79.2636 22.9792 79.1846C23.3741 79.0958 23.7837 79.0513 24.2082 79.0513C24.4057 79.0513 24.613 79.0662 24.8302 79.0958C25.0474 79.1155 25.2793 79.155 25.5261 79.2142V78.9181C25.5261 78.7108 25.5015 78.5133 25.4521 78.3258C25.4027 78.1382 25.3139 77.9753 25.1856 77.8371C25.0671 77.689 24.9042 77.5755 24.6969 77.4965C24.4995 77.4175 24.2477 77.378 23.9417 77.378C23.5271 77.378 23.147 77.4077 22.8015 77.4669C22.456 77.5261 22.1746 77.5952 21.9574 77.6742L21.7353 76.223C21.9624 76.1441 22.2931 76.0651 22.7274 75.9861C23.1618 75.9071 23.6258 75.8676 24.1194 75.8676ZM32.1479 83.9528C31.6149 83.9429 31.1706 83.8837 30.8152 83.7751C30.4697 83.6665 30.1933 83.5135 29.986 83.316C29.7787 83.1087 29.6306 82.857 29.5418 82.5608C29.4628 82.2548 29.4233 81.9093 29.4233 81.5243V72.6099L31.215 72.3137V81.1837C31.215 81.4009 31.2299 81.5835 31.2595 81.7316C31.299 81.8797 31.3631 82.008 31.452 82.1166C31.5408 82.2153 31.6593 82.2943 31.8074 82.3535C31.9653 82.4029 32.1628 82.4424 32.3997 82.472L32.1479 83.9528ZM33.7602 74.0166L35.5519 73.7205V76.0601H38.3062V77.5557H35.5519V80.7098C35.5519 81.3318 35.6506 81.776 35.8481 82.0425C36.0455 82.3091 36.3812 82.4424 36.855 82.4424C37.1808 82.4424 37.4671 82.4078 37.7139 82.3387C37.9706 82.2696 38.1729 82.2054 38.321 82.1462L38.6172 83.5678C38.4099 83.6566 38.1384 83.7455 37.8027 83.8343C37.4671 83.933 37.0722 83.9824 36.6181 83.9824C36.0653 83.9824 35.6013 83.9083 35.2261 83.7603C34.8609 83.6122 34.5697 83.3999 34.3525 83.1235C34.1353 82.8372 33.9823 82.4967 33.8934 82.1018C33.8046 81.697 33.7602 81.238 33.7602 80.7246V74.0166ZM40.0383 83.8047V72.6099L41.83 72.3137V76.149C42.0275 76.0799 42.2545 76.0207 42.5112 75.9713C42.7777 75.9219 43.0393 75.8973 43.296 75.8973C43.9179 75.8973 44.4313 75.9861 44.836 76.1638C45.2507 76.3316 45.5814 76.5735 45.8282 76.8894C46.075 77.1954 46.2477 77.5656 46.3464 78C46.455 78.4343 46.5093 78.9181 46.5093 79.4512V83.8047H44.7176V79.7325C44.7176 79.3179 44.688 78.9674 44.6287 78.6811C44.5794 78.385 44.4905 78.1481 44.3622 77.9704C44.2437 77.7828 44.0808 77.6495 43.8735 77.5705C43.6662 77.4817 43.4095 77.4373 43.1035 77.4373C42.8666 77.4373 42.6247 77.462 42.3779 77.5113C42.1311 77.5607 41.9485 77.6051 41.83 77.6446V83.8047H40.0383ZM48.2275 79.9398C48.2275 79.3672 48.3164 78.8342 48.4941 78.3406C48.6717 77.8371 48.9235 77.4027 49.2493 77.0375C49.5849 76.6722 49.9897 76.3859 50.4635 76.1786C50.9374 75.9713 51.4704 75.8676 52.0628 75.8676C52.7933 75.8676 53.4843 76.0009 54.1359 76.2675L53.7509 77.7334C53.5436 77.6446 53.3066 77.5705 53.0401 77.5113C52.7834 77.4521 52.507 77.4225 52.2108 77.4225C51.5099 77.4225 50.9768 77.6446 50.6116 78.0888C50.2463 78.5232 50.0637 79.1402 50.0637 79.9398C50.0637 80.7098 50.2365 81.3219 50.582 81.776C50.9275 82.2202 51.5099 82.4424 52.3293 82.4424C52.6353 82.4424 52.9364 82.4127 53.2326 82.3535C53.5287 82.2943 53.7854 82.2202 54.0026 82.1314L54.2543 83.6122C54.0569 83.7109 53.7558 83.7998 53.3511 83.8787C52.9562 83.9577 52.5465 83.9972 52.122 83.9972C51.4606 83.9972 50.8831 83.8985 50.3895 83.701C49.9057 83.4937 49.501 83.2124 49.1752 82.857C48.8593 82.4917 48.6224 82.0623 48.4644 81.5687C48.3065 81.0652 48.2275 80.5223 48.2275 79.9398ZM58.3662 82.546C58.919 82.546 59.3386 82.5164 59.6249 82.4572V80.4729C59.5262 80.4433 59.383 80.4137 59.1954 80.3841C59.0079 80.3544 58.8006 80.3396 58.5735 80.3396C58.3761 80.3396 58.1737 80.3544 57.9664 80.3841C57.7689 80.4137 57.5863 80.468 57.4185 80.5469C57.2605 80.6259 57.1322 80.7394 57.0335 80.8875C56.9348 81.0257 56.8854 81.2034 56.8854 81.4206C56.8854 81.8451 57.0187 82.1413 57.2852 82.3091C57.5518 82.467 57.9121 82.546 58.3662 82.546ZM58.2181 75.8676C58.8104 75.8676 59.309 75.9417 59.7137 76.0898C60.1185 76.2378 60.4393 76.4451 60.6762 76.7117C60.923 76.9782 61.0958 77.304 61.1945 77.689C61.3031 78.0641 61.3574 78.4788 61.3574 78.9329V83.627C61.081 83.6862 60.6614 83.7553 60.0987 83.8343C59.5459 83.9232 58.919 83.9676 58.2181 83.9676C57.7541 83.9676 57.3296 83.9232 56.9446 83.8343C56.5596 83.7455 56.2289 83.6023 55.9525 83.4049C55.686 83.2074 55.4737 82.9508 55.3158 82.6349C55.1677 82.319 55.0936 81.929 55.0936 81.465C55.0936 81.0208 55.1776 80.6457 55.3454 80.3396C55.5231 80.0336 55.76 79.7868 56.0562 79.5992C56.3523 79.4018 56.6929 79.2636 57.0779 79.1846C57.4728 79.0958 57.8825 79.0513 58.307 79.0513C58.5044 79.0513 58.7117 79.0662 58.9289 79.0958C59.1461 79.1155 59.3781 79.155 59.6249 79.2142V78.9181C59.6249 78.7108 59.6002 78.5133 59.5508 78.3258C59.5015 78.1382 59.4126 77.9753 59.2843 77.8371C59.1658 77.689 59.0029 77.5755 58.7956 77.4965C58.5982 77.4175 58.3465 77.378 58.0404 77.378C57.6258 77.378 57.2457 77.4077 56.9002 77.4669C56.5547 77.5261 56.2733 77.5952 56.0562 77.6742L55.834 76.223C56.0611 76.1441 56.3918 76.0651 56.8262 75.9861C57.2605 75.9071 57.7245 75.8676 58.2181 75.8676ZM67.9644 77.6742C67.8163 77.6248 67.609 77.5755 67.3425 77.5261C67.0858 77.4669 66.7847 77.4373 66.4392 77.4373C66.2417 77.4373 66.0295 77.457 65.8024 77.4965C65.5853 77.536 65.4322 77.5705 65.3434 77.6002V83.8047H63.5516V76.4303C63.8972 76.302 64.3266 76.1835 64.8399 76.0749C65.3631 75.9565 65.9406 75.8973 66.5725 75.8973C66.6909 75.8973 66.8291 75.9071 66.9871 75.9269C67.145 75.9367 67.303 75.9565 67.4609 75.9861C67.6189 76.0058 67.7719 76.0355 67.92 76.0749C68.0681 76.1046 68.1865 76.1342 68.2754 76.1638L67.9644 77.6742ZM69.0945 79.9694C69.0945 79.2883 69.1933 78.691 69.3907 78.1777C69.598 77.6643 69.8695 77.2398 70.2051 76.9042C70.5408 76.5587 70.9258 76.302 71.3602 76.1342C71.7945 75.9565 72.2388 75.8676 72.6929 75.8676C73.759 75.8676 74.5883 76.1983 75.1806 76.8598C75.7828 77.5212 76.0839 78.5084 76.0839 79.8214C76.0839 79.9201 76.0789 80.0336 76.0691 80.1619C76.0691 80.2804 76.0641 80.389 76.0543 80.4877H70.9455C70.9949 81.1096 71.2121 81.5934 71.5971 81.9389C71.992 82.2745 72.5596 82.4424 73.3 82.4424C73.7344 82.4424 74.1292 82.4029 74.4846 82.3239C74.8499 82.2449 75.1362 82.161 75.3435 82.0722L75.5804 83.5381C75.4817 83.5875 75.3435 83.6418 75.1658 83.701C74.998 83.7504 74.8005 83.7948 74.5735 83.8343C74.3563 83.8837 74.1194 83.9232 73.8627 83.9528C73.606 83.9824 73.3444 83.9972 73.0779 83.9972C72.3967 83.9972 71.8044 83.8985 71.3009 83.701C70.7975 83.4937 70.3828 83.2124 70.0571 82.857C69.7313 82.4917 69.4894 82.0672 69.3315 81.5835C69.1735 81.0899 69.0945 80.5519 69.0945 79.9694ZM74.2921 79.1698C74.2921 78.923 74.2576 78.691 74.1885 78.4738C74.1194 78.2468 74.0157 78.0543 73.8775 77.8963C73.7492 77.7285 73.5863 77.6002 73.3888 77.5113C73.2013 77.4126 72.9742 77.3632 72.7077 77.3632C72.4313 77.3632 72.1894 77.4175 71.9821 77.5261C71.7748 77.6248 71.5971 77.7581 71.449 77.9259C71.3108 78.0938 71.2022 78.2863 71.1232 78.5034C71.0442 78.7206 70.99 78.9428 70.9603 79.1698H74.2921Z" fill="white"/>
<path d="M62.0376 31.7792C62.8972 29.9704 63.765 28.1616 64.5761 26.4551C63.9353 23.097 62.3944 20.7378 58.7935 20.4311C55.6386 20.1637 54.8762 21.0288 51.2347 28.4054C54.6654 29.876 58.0879 31.3388 62.0457 33.0374C60.4804 35.8843 58.8016 38.9277 56.5226 43.0643C56.9525 47.3425 54.0976 50.7556 48.2745 52.179C44.414 53.1227 40.8131 50.8342 37.423 45.2585C37.05 38.8727 40.286 35.1372 46.5308 33.3992C51.1942 33.5722 54.195 36.4269 56.3685 40.3984" stroke="white" stroke-width="1.74211" stroke-linecap="round" stroke-linejoin="round"/>
<path d="M40.1615 6.68584C43.8922 5.58485 44.0382 5.25455 42.5216 1H18.6532C18.5153 2.45488 18.3612 4.14569 18.1179 6.68584H39.756" stroke="white" stroke-width="1.74211" stroke-linecap="round" stroke-linejoin="round"/>
<path d="M45.8272 18.8457H15.8438" stroke="white" stroke-width="1.74211" stroke-linecap="round" stroke-linejoin="round"/>
<path d="M21.5217 7.07178C21.5217 10.6421 19.3617 14.008 15.0416 17.1694C15.0416 24.9708 15.1227 33.0866 15.0011 41.1868C14.9524 44.1595 16.5663 44.7414 19.0967 44.7257C25.0415 44.6864 30.9782 44.71 36.923 44.71" stroke="white" stroke-width="1.74211" stroke-linecap="round" stroke-linejoin="round"/>
<path d="M37.3196 39.6271C30.1583 39.4934 23.0051 39.3676 15.8438 39.2339" stroke="white" stroke-width="1.74211" stroke-linecap="round" stroke-linejoin="round"/>
<path d="M40.1591 7.07178C39.3562 11.9869 41.5621 15.1483 46.6391 16.4066V32.9608" stroke="white" stroke-width="1.74211" stroke-linecap="round" stroke-linejoin="round"/>
<path d="M53.5302 37.2773C49.475 41.0679 45.428 44.8585 41.3729 48.649" stroke="white" stroke-width="1.74211" stroke-linecap="round" stroke-linejoin="round"/>
<path d="M51.5021 29.0347C50.8288 30.6 50.1474 32.1731 49.4741 33.7384" stroke="white" stroke-width="1.74211" stroke-linecap="round" stroke-linejoin="round"/>
<path d="M30.8443 23.5455C29.9116 24.6229 28.9871 25.7003 27.5272 27.3989C27.6083 27.3832 26.7811 27.5562 26.0917 27.7056C23.1801 31.8344 30.5847 30.8592 28.7762 34.3509L29.7737 34.9565C31.0957 34.1071 32.4096 33.2657 33.7315 32.4163C33.6829 32.3298 33.6342 32.2433 33.5855 32.1568L37.519 28.9403C37.3406 28.61 37.1702 28.2797 36.9918 27.9494C35.751 27.682 34.502 27.4068 33.8775 27.2731C32.8151 25.7553 32.0365 24.6465 31.2579 23.5376" stroke="white" stroke-width="1.74211" stroke-linecap="round" stroke-linejoin="round"/>
</svg>
