<svg width="80" height="89" viewBox="0 0 80 89" fill="none" xmlns="http://www.w3.org/2000/svg">
<path d="M9.06956 74.4022H10.9354V84.6641H9.06956V80.118H4.61237V84.6641H2.74658V74.4022H4.61237V78.504H9.06956V74.4022ZM20.3051 80.7844C20.3051 81.3964 20.2162 81.9542 20.0385 82.4577C19.8608 82.9612 19.6091 83.3906 19.2833 83.746C18.9576 84.1014 18.5627 84.3778 18.0987 84.5752C17.6446 84.7727 17.1411 84.8714 16.5883 84.8714C16.0355 84.8714 15.532 84.7727 15.0779 84.5752C14.6238 84.3778 14.2338 84.1014 13.9081 83.746C13.5823 83.3906 13.3256 82.9612 13.138 82.4577C12.9603 81.9542 12.8715 81.3964 12.8715 80.7844C12.8715 80.1723 12.9603 79.6195 13.138 79.1259C13.3256 78.6224 13.5823 78.193 13.9081 77.8376C14.2437 77.4822 14.6386 77.2107 15.0927 77.0232C15.5468 76.8257 16.0453 76.727 16.5883 76.727C17.1312 76.727 17.6298 76.8257 18.0839 77.0232C18.5479 77.2107 18.9427 77.4822 19.2685 77.8376C19.5943 78.193 19.846 78.6224 20.0237 79.1259C20.2113 79.6195 20.3051 80.1723 20.3051 80.7844ZM18.4689 80.7844C18.4689 80.0144 18.3011 79.4072 17.9654 78.963C17.6397 78.5089 17.1806 78.2818 16.5883 78.2818C15.996 78.2818 15.532 78.5089 15.1963 78.963C14.8706 79.4072 14.7077 80.0144 14.7077 80.7844C14.7077 81.5643 14.8706 82.1813 15.1963 82.6354C15.532 83.0895 15.996 83.3165 16.5883 83.3165C17.1806 83.3165 17.6397 83.0895 17.9654 82.6354C18.3011 82.1813 18.4689 81.5643 18.4689 80.7844ZM26.5637 80.5919C26.5637 79.7824 26.4601 79.1999 26.2528 78.8445C26.0553 78.4793 25.6802 78.2967 25.1274 78.2967C24.9299 78.2967 24.7127 78.3115 24.4758 78.3411C24.2389 78.3707 24.0612 78.3954 23.9427 78.4151V84.6641H22.151V77.1712C22.4965 77.0725 22.9457 76.9787 23.4985 76.8899C24.0612 76.8011 24.6535 76.7566 25.2755 76.7566C25.8085 76.7566 26.2429 76.8257 26.5785 76.9639C26.9241 77.1021 27.2104 77.2848 27.4374 77.5118C27.546 77.4329 27.6842 77.3489 27.852 77.2601C28.0199 77.1713 28.2074 77.0923 28.4147 77.0232C28.622 76.9442 28.8392 76.88 29.0663 76.8307C29.3032 76.7813 29.5401 76.7566 29.7771 76.7566C30.3793 76.7566 30.8728 76.8455 31.2579 77.0232C31.6527 77.191 31.9588 77.4329 32.1759 77.7488C32.403 78.0548 32.556 78.4299 32.635 78.8742C32.7238 79.3085 32.7683 79.7873 32.7683 80.3105V84.6641H30.9765V80.5919C30.9765 79.7824 30.8778 79.1999 30.6803 78.8445C30.4829 78.4793 30.1028 78.2967 29.5401 78.2967C29.2538 78.2967 28.9824 78.346 28.7257 78.4447C28.469 78.5336 28.2765 78.6224 28.1482 78.7113C28.2272 78.9581 28.2815 79.2197 28.3111 79.4961C28.3407 79.7725 28.3555 80.0687 28.3555 80.3846V84.6641H26.5637V80.5919ZM34.5339 80.8288C34.5339 80.1476 34.6326 79.5504 34.83 79.037C35.0373 78.5237 35.3088 78.0992 35.6445 77.7636C35.9801 77.418 36.3651 77.1614 36.7995 76.9936C37.2339 76.8159 37.6781 76.727 38.1322 76.727C39.1984 76.727 40.0276 77.0577 40.6199 77.7191C41.2221 78.3806 41.5232 79.3678 41.5232 80.6807C41.5232 80.7794 41.5183 80.893 41.5084 81.0213C41.5084 81.1398 41.5035 81.2484 41.4936 81.3471H36.3849C36.4342 81.969 36.6514 82.4527 37.0364 82.7983C37.4313 83.1339 37.9989 83.3017 38.7393 83.3017C39.1737 83.3017 39.5686 83.2622 39.924 83.1833C40.2892 83.1043 40.5755 83.0204 40.7828 82.9315L41.0198 84.3975C40.921 84.4469 40.7828 84.5012 40.6051 84.5604C40.4373 84.6098 40.2399 84.6542 40.0128 84.6937C39.7956 84.743 39.5587 84.7825 39.302 84.8121C39.0454 84.8418 38.7838 84.8566 38.5172 84.8566C37.836 84.8566 37.2437 84.7578 36.7403 84.5604C36.2368 84.3531 35.8222 84.0717 35.4964 83.7164C35.1706 83.3511 34.9288 82.9266 34.7708 82.4429C34.6129 81.9493 34.5339 81.4113 34.5339 80.8288ZM39.7315 80.0292C39.7315 79.7824 39.6969 79.5504 39.6278 79.3332C39.5587 79.1062 39.455 78.9136 39.3168 78.7557C39.1885 78.5879 39.0256 78.4595 38.8282 78.3707C38.6406 78.272 38.4136 78.2226 38.147 78.2226C37.8706 78.2226 37.6287 78.2769 37.4214 78.3855C37.2141 78.4842 37.0364 78.6175 36.8883 78.7853C36.7501 78.9531 36.6415 79.1456 36.5626 79.3628C36.4836 79.58 36.4293 79.8021 36.3997 80.0292H39.7315ZM51.5288 84.8862C50.7587 84.8862 50.0677 84.7677 49.4556 84.5308C48.8436 84.2939 48.3253 83.9483 47.9008 83.4942C47.4763 83.0303 47.1505 82.4676 46.9235 81.8061C46.6964 81.1447 46.5829 80.3846 46.5829 79.5257C46.5829 78.6669 46.7112 77.9067 46.9679 77.2453C47.2345 76.5839 47.5948 76.0261 48.0489 75.572C48.503 75.108 49.0361 74.7576 49.6481 74.5206C50.2602 74.2837 50.9167 74.1652 51.6176 74.1652C52.0421 74.1652 52.4271 74.1998 52.7726 74.2689C53.1181 74.3281 53.4192 74.3972 53.6759 74.4762C53.9326 74.5552 54.1448 74.6391 54.3126 74.7279C54.4805 74.8168 54.5989 74.881 54.668 74.9204L54.1201 76.4457C53.8832 76.2976 53.5426 76.1594 53.0984 76.031C52.664 75.8928 52.1902 75.8237 51.6768 75.8237C51.2326 75.8237 50.818 75.9027 50.433 76.0607C50.048 76.2087 49.7123 76.4358 49.426 76.7418C49.1496 77.0479 48.9324 77.4329 48.7745 77.8968C48.6165 78.3608 48.5376 78.8988 48.5376 79.5109C48.5376 80.0539 48.5968 80.5524 48.7152 81.0065C48.8436 81.4606 49.0361 81.8555 49.2928 82.1911C49.5494 82.5169 49.8752 82.7736 50.2701 82.9612C50.665 83.1388 51.1388 83.2277 51.6916 83.2277C52.3531 83.2277 52.8911 83.1635 53.3057 83.0352C53.7203 82.897 54.0412 82.7686 54.2682 82.6502L54.7717 84.1754C54.6532 84.2544 54.4903 84.3334 54.283 84.4123C54.0856 84.4913 53.8487 84.5703 53.5722 84.6493C53.2958 84.7184 52.9849 84.7727 52.6393 84.8121C52.2938 84.8615 51.9236 84.8862 51.5288 84.8862ZM59.0467 83.4054C59.5995 83.4054 60.0191 83.3758 60.3053 83.3165V81.3323C60.2066 81.3027 60.0635 81.273 59.8759 81.2434C59.6883 81.2138 59.481 81.199 59.254 81.199C59.0565 81.199 58.8542 81.2138 58.6469 81.2434C58.4494 81.273 58.2668 81.3273 58.099 81.4063C57.941 81.4853 57.8127 81.5988 57.714 81.7469C57.6152 81.8851 57.5659 82.0628 57.5659 82.28C57.5659 82.7045 57.6991 83.0006 57.9657 83.1685C58.2322 83.3264 58.5926 83.4054 59.0467 83.4054ZM58.8986 76.727C59.4909 76.727 59.9894 76.8011 60.3942 76.9491C60.7989 77.0972 61.1198 77.3045 61.3567 77.5711C61.6035 77.8376 61.7763 78.1634 61.875 78.5484C61.9836 78.9235 62.0379 79.3381 62.0379 79.7923V84.4864C61.7615 84.5456 61.3419 84.6147 60.7792 84.6937C60.2264 84.7825 59.5995 84.8269 58.8986 84.8269C58.4346 84.8269 58.0101 84.7825 57.6251 84.6937C57.2401 84.6048 56.9094 84.4617 56.633 84.2642C56.3664 84.0668 56.1542 83.8101 55.9962 83.4942C55.8482 83.1783 55.7741 82.7884 55.7741 82.3244C55.7741 81.8802 55.858 81.505 56.0259 81.199C56.2035 80.893 56.4405 80.6462 56.7366 80.4586C57.0328 80.2612 57.3734 80.123 57.7584 80.044C58.1533 79.9551 58.5629 79.9107 58.9874 79.9107C59.1849 79.9107 59.3922 79.9255 59.6094 79.9551C59.8266 79.9749 60.0585 80.0144 60.3053 80.0736V79.7774C60.3053 79.5701 60.2807 79.3727 60.2313 79.1851C60.1819 78.9976 60.0931 78.8347 59.9648 78.6965C59.8463 78.5484 59.6834 78.4349 59.4761 78.3559C59.2787 78.2769 59.0269 78.2374 58.7209 78.2374C58.3063 78.2374 57.9262 78.267 57.5807 78.3263C57.2352 78.3855 56.9538 78.4546 56.7366 78.5336L56.5145 77.0824C56.7416 77.0034 57.0723 76.9245 57.5066 76.8455C57.941 76.7665 58.405 76.727 58.8986 76.727ZM68.6449 78.5336C68.4968 78.4842 68.2895 78.4349 68.0229 78.3855C67.7663 78.3263 67.4652 78.2967 67.1196 78.2967C66.9222 78.2967 66.71 78.3164 66.4829 78.3559C66.2657 78.3954 66.1127 78.4299 66.0239 78.4595V84.6641H64.2321V77.2897C64.5776 77.1614 65.0071 77.0429 65.5204 76.9343C66.0436 76.8159 66.6211 76.7566 67.2529 76.7566C67.3714 76.7566 67.5096 76.7665 67.6675 76.7862C67.8255 76.7961 67.9834 76.8159 68.1414 76.8455C68.2993 76.8652 68.4524 76.8948 68.6004 76.9343C68.7485 76.9639 68.867 76.9936 68.9558 77.0232L68.6449 78.5336ZM69.775 80.8288C69.775 80.1476 69.8737 79.5504 70.0712 79.037C70.2785 78.5237 70.55 78.0992 70.8856 77.7636C71.2213 77.418 71.6063 77.1614 72.0406 76.9936C72.475 76.8159 72.9192 76.727 73.3733 76.727C74.4395 76.727 75.2688 77.0577 75.8611 77.7191C76.4633 78.3806 76.7644 79.3678 76.7644 80.6807C76.7644 80.7794 76.7594 80.893 76.7495 81.0213C76.7495 81.1398 76.7446 81.2484 76.7347 81.3471H71.626C71.6754 81.969 71.8925 82.4527 72.2776 82.7983C72.6724 83.1339 73.2401 83.3017 73.9805 83.3017C74.4148 83.3017 74.8097 83.2622 75.1651 83.1833C75.5304 83.1043 75.8166 83.0204 76.024 82.9315L76.2609 84.3975C76.1622 84.4469 76.024 84.5012 75.8463 84.5604C75.6784 84.6098 75.481 84.6542 75.2539 84.6937C75.0368 84.743 74.7998 84.7825 74.5432 84.8121C74.2865 84.8418 74.0249 84.8566 73.7583 84.8566C73.0772 84.8566 72.4849 84.7578 71.9814 84.5604C71.4779 84.3531 71.0633 84.0717 70.7375 83.7164C70.4118 83.3511 70.1699 82.9266 70.0119 82.4429C69.854 81.9493 69.775 81.4113 69.775 80.8288ZM74.9726 80.0292C74.9726 79.7824 74.938 79.5504 74.8689 79.3332C74.7998 79.1062 74.6962 78.9136 74.558 78.7557C74.4296 78.5879 74.2668 78.4595 74.0693 78.3707C73.8817 78.272 73.6547 78.2226 73.3881 78.2226C73.1117 78.2226 72.8699 78.2769 72.6626 78.3855C72.4552 78.4842 72.2776 78.6175 72.1295 78.7853C71.9913 78.9531 71.8827 79.1456 71.8037 79.3628C71.7247 79.58 71.6704 79.8021 71.6408 80.0292H74.9726Z" fill="white"/>
<path d="M40.7471 45.2572V27.1265H26.9629V45.2572" stroke="white" stroke-width="1.74211" stroke-linecap="round" stroke-linejoin="round"/>
<path d="M44.6259 9.40759C43.0484 8.57169 41.3501 7.88624 39.9191 6.86644C37.9537 5.47048 36.1778 3.82375 33.8158 1.85938C26.4539 8.00327 19.0489 14.189 12.1094 19.9734V45.644C24.7815 46.3546 37.2899 46.1372 49.7896 45.6691" stroke="white" stroke-width="1.74211" stroke-linecap="round" stroke-linejoin="round"/>
<path d="M68.3161 33.1651C69.7644 40.9725 65.6266 48.3117 57.9802 51.5049C49.9976 49.2228 46.877 39.4929 48.3855 33.2571C51.4286 32.1286 54.1871 31.1088 57.9198 29.7212C60.437 30.4819 64.1611 31.6103 67.8937 32.7472" stroke="white" stroke-width="1.74211" stroke-linecap="round" stroke-linejoin="round"/>
<path d="M55.8278 29.4087C55.5002 26.6669 55.1813 23.9252 54.8537 21.175C55.1899 21.1332 55.5261 21.0914 55.8623 21.0496C55.7071 20.7738 55.6209 20.4144 55.3882 20.2472C52.1468 17.915 51.4055 14.8054 51.8882 11.0522C52.2244 8.45257 51.9486 5.77767 51.9486 2.71826C49.9314 2.71826 47.9228 2.71826 45.9056 2.71826C45.5866 5.21762 45.2677 7.71697 44.8367 11.0857C46.7246 12.3395 48.9055 13.7856 51.0865 15.2234" stroke="white" stroke-width="1.74211" stroke-linecap="round" stroke-linejoin="round"/>
<path d="M60.9881 38.1709C59.9795 39.1405 59.0744 40.2439 57.9279 41.0213C57.5141 41.3055 56.54 40.8124 55.8245 40.6703" stroke="white" stroke-width="1.74211" stroke-linecap="round" stroke-linejoin="round"/>
<path d="M32.9974 11.4914C30.0751 12.1852 28.5838 13.9573 28.6958 16.9081C28.8165 20.1179 31.3164 20.8285 33.8595 21.4972C36.9284 20.8953 39.2732 19.5077 38.9887 16.0805C38.7301 12.9208 36.6784 11.4329 33.4285 11.4914" stroke="white" stroke-width="1.74211" stroke-linecap="round" stroke-linejoin="round"/>
</svg>
