<svg width="91" height="89" viewBox="0 0 91 89" fill="none" xmlns="http://www.w3.org/2000/svg">
<path d="M31.2672 23.248C31.2672 31.5618 31.2672 39.8755 31.2672 48.1817C31.2672 51.8684 32.4447 53.0102 36.2621 53.0177C42.4115 53.0252 48.5687 53.0177 54.7181 53.0177C59.6745 53.0177 60.5904 52.1296 60.4903 47.4354C60.4749 46.6891 60.4903 45.9503 60.4903 45.204" stroke="white" stroke-width="1.74211" stroke-linecap="round" stroke-linejoin="round"/>
<path d="M60.4895 29.94C60.4895 21.8726 60.4356 13.8126 60.5202 5.7452C60.551 2.81227 59.2042 1.61073 56.2642 1.63312C49.8531 1.68536 43.4497 1.64804 37.0386 1.64804C31.9359 1.64804 31.4126 2.11821 31.2741 6.85717C31.2587 7.34973 31.2741 7.84974 31.2741 8.34229" stroke="white" stroke-width="1.74211" stroke-linecap="round" stroke-linejoin="round"/>
<path d="M32.0374 6.12207H59.7212" stroke="white" stroke-width="1.74211" stroke-linecap="round" stroke-linejoin="round"/>
<path d="M32.0374 47.0596H59.7212" stroke="white" stroke-width="1.74211" stroke-linecap="round" stroke-linejoin="round"/>
<path d="M50.4959 23.6216H40.075C40.5213 28.1441 40.8292 28.4053 44.7236 28.4725C46.0089 28.4949 47.2865 28.7038 48.5718 28.8307" stroke="white" stroke-width="1.74211" stroke-linecap="round" stroke-linejoin="round"/>
<path d="M31.2678 8.73242C23.1404 10.0683 22.6094 16.4491 25.5109 20.2626C27.1118 22.3672 31.1523 23.4195 33.569 22.509C36.1627 21.5313 38.5717 18.2999 38.564 15.8073C38.564 13.0385 36.078 10.1578 32.7994 9.10557C32.4146 8.9787 32.0297 8.85929 31.6449 8.73242" stroke="white" stroke-width="1.74211" stroke-linecap="round" stroke-linejoin="round"/>
<path d="M60.4903 30.3135C52.5322 31.724 52.0627 38.4481 54.7411 41.8362C56.6113 44.202 60.4672 45.1946 63.1763 44.0677C66.0009 42.8885 67.6325 40.7243 67.7634 37.754C67.9173 34.3211 65.8316 31.9031 62.0296 30.6866C61.6447 30.5598 61.2599 30.4403 60.8751 30.3135" stroke="white" stroke-width="1.74211" stroke-linecap="round" stroke-linejoin="round"/>
<path d="M33.9696 13.5674H28.0126V18.1347C30.2753 17.963 32.3148 17.8138 34.3544 17.6645" stroke="white" stroke-width="1.74211" stroke-linecap="round" stroke-linejoin="round"/>
<path d="M53.9581 21.7549C49.6097 23.1057 50.6718 27.6431 47.7318 30.688H41.6516" stroke="white" stroke-width="1.74211" stroke-linecap="round" stroke-linejoin="round"/>
<path d="M44.7262 17.2915V19.8966" stroke="white" stroke-width="1.74211" stroke-linecap="round" stroke-linejoin="round"/>
<path d="M42.4204 32.1807C42.1664 32.427 41.9047 32.6733 41.6506 32.9271" stroke="white" stroke-width="1.74211" stroke-linecap="round" stroke-linejoin="round"/>
<path d="M47.0342 32.1826C47.2882 32.4289 47.5499 32.6753 47.804 32.9291" stroke="white" stroke-width="1.74211" stroke-linecap="round" stroke-linejoin="round"/>
<path d="M3.21017 84.4375V74.1756H9.7997V75.7601H5.07597V78.2922H9.28142V79.847H5.07597V82.8531H10.1551V84.4375H3.21017ZM10.9982 79.388H14.9816V81.0317H10.9982V79.388ZM21.1184 84.6596C20.3484 84.6596 19.6573 84.5412 19.0453 84.3042C18.4332 84.0673 17.9149 83.7218 17.4905 83.2677C17.066 82.8037 16.7402 82.241 16.5131 81.5796C16.2861 80.9181 16.1725 80.158 16.1725 79.2991C16.1725 78.4403 16.3009 77.6801 16.5576 77.0187C16.8241 76.3573 17.1844 75.7995 17.6385 75.3454C18.0926 74.8814 18.6257 74.531 19.2378 74.2941C19.8498 74.0571 20.5063 73.9387 21.2072 73.9387C21.6317 73.9387 22.0167 73.9732 22.3623 74.0423C22.7078 74.1016 23.0089 74.1707 23.2655 74.2496C23.5222 74.3286 23.7345 74.4125 23.9023 74.5014C24.0701 74.5902 24.1886 74.6544 24.2577 74.6939L23.7098 76.2191C23.4729 76.071 23.1323 75.9328 22.688 75.8045C22.2537 75.6663 21.7798 75.5972 21.2665 75.5972C20.8222 75.5972 20.4076 75.6761 20.0226 75.8341C19.6376 75.9822 19.302 76.2092 19.0157 76.5153C18.7393 76.8213 18.5221 77.2063 18.3641 77.6703C18.2062 78.1343 18.1272 78.6723 18.1272 79.2843C18.1272 79.8273 18.1864 80.3258 18.3049 80.7799C18.4332 81.2341 18.6257 81.6289 18.8824 81.9646C19.1391 82.2904 19.4648 82.547 19.8597 82.7346C20.2546 82.9123 20.7285 83.0011 21.2813 83.0011C21.9427 83.0011 22.4807 82.937 22.8953 82.8086C23.31 82.6704 23.6308 82.5421 23.8579 82.4236L24.3613 83.9488C24.2429 84.0278 24.08 84.1068 23.8727 84.1858C23.6752 84.2647 23.4383 84.3437 23.1619 84.4227C22.8855 84.4918 22.5745 84.5461 22.229 84.5856C21.8835 84.6349 21.5133 84.6596 21.1184 84.6596ZM32.7278 80.5578C32.7278 81.1699 32.639 81.7276 32.4613 82.2311C32.2836 82.7346 32.0318 83.164 31.7061 83.5194C31.3803 83.8748 30.9854 84.1512 30.5214 84.3487C30.0673 84.5461 29.5639 84.6448 29.011 84.6448C28.4582 84.6448 27.9547 84.5461 27.5006 84.3487C27.0465 84.1512 26.6566 83.8748 26.3308 83.5194C26.005 83.164 25.7483 82.7346 25.5608 82.2311C25.3831 81.7276 25.2942 81.1699 25.2942 80.5578C25.2942 79.9458 25.3831 79.3929 25.5608 78.8993C25.7483 78.3959 26.005 77.9664 26.3308 77.611C26.6664 77.2557 27.0613 76.9842 27.5154 76.7966C27.9695 76.5992 28.4681 76.5004 29.011 76.5004C29.554 76.5004 30.0525 76.5992 30.5066 76.7966C30.9706 76.9842 31.3655 77.2557 31.6913 77.611C32.017 77.9664 32.2688 78.3959 32.4465 78.8993C32.634 79.3929 32.7278 79.9458 32.7278 80.5578ZM30.8916 80.5578C30.8916 79.7878 30.7238 79.1807 30.3882 78.7364C30.0624 78.2823 29.6033 78.0553 29.011 78.0553C28.4187 78.0553 27.9547 78.2823 27.6191 78.7364C27.2933 79.1807 27.1304 79.7878 27.1304 80.5578C27.1304 81.3377 27.2933 81.9547 27.6191 82.4088C27.9547 82.8629 28.4187 83.09 29.011 83.09C29.6033 83.09 30.0624 82.8629 30.3882 82.4088C30.7238 81.9547 30.8916 81.3377 30.8916 80.5578ZM38.9865 80.3653C38.9865 79.5558 38.8828 78.9734 38.6755 78.618C38.4781 78.2527 38.1029 78.0701 37.5501 78.0701C37.3527 78.0701 37.1355 78.0849 36.8986 78.1145C36.6616 78.1441 36.4839 78.1688 36.3655 78.1886V84.4375H34.5737V76.9447C34.9192 76.846 35.3684 76.7522 35.9212 76.6633C36.4839 76.5745 37.0763 76.5301 37.6982 76.5301C38.2313 76.5301 38.6656 76.5992 39.0013 76.7374C39.3468 76.8756 39.6331 77.0582 39.8601 77.2853C39.9687 77.2063 40.1069 77.1224 40.2748 77.0335C40.4426 76.9447 40.6302 76.8657 40.8375 76.7966C41.0448 76.7176 41.262 76.6535 41.489 76.6041C41.7259 76.5547 41.9629 76.5301 42.1998 76.5301C42.802 76.5301 43.2956 76.6189 43.6806 76.7966C44.0755 76.9644 44.3815 77.2063 44.5987 77.5222C44.8257 77.8282 44.9788 78.2034 45.0577 78.6476C45.1466 79.082 45.191 79.5608 45.191 80.084V84.4375H43.3992V80.3653C43.3992 79.5558 43.3005 78.9734 43.1031 78.618C42.9056 78.2527 42.5256 78.0701 41.9629 78.0701C41.6766 78.0701 41.4051 78.1195 41.1484 78.2182C40.8918 78.307 40.6993 78.3959 40.5709 78.4847C40.6499 78.7315 40.7042 78.9931 40.7338 79.2695C40.7634 79.5459 40.7782 79.8421 40.7782 80.158V84.4375H38.9865V80.3653ZM51.7988 80.3653C51.7988 79.5558 51.6951 78.9734 51.4878 78.618C51.2904 78.2527 50.9153 78.0701 50.3624 78.0701C50.165 78.0701 49.9478 78.0849 49.7109 78.1145C49.474 78.1441 49.2963 78.1688 49.1778 78.1886V84.4375H47.386V76.9447C47.7316 76.846 48.1807 76.7522 48.7336 76.6633C49.2963 76.5745 49.8886 76.5301 50.5105 76.5301C51.0436 76.5301 51.478 76.5992 51.8136 76.7374C52.1591 76.8756 52.4454 77.0582 52.6725 77.2853C52.7811 77.2063 52.9193 77.1224 53.0871 77.0335C53.2549 76.9447 53.4425 76.8657 53.6498 76.7966C53.8571 76.7176 54.0743 76.6535 54.3013 76.6041C54.5383 76.5547 54.7752 76.5301 55.0121 76.5301C55.6143 76.5301 56.1079 76.6189 56.4929 76.7966C56.8878 76.9644 57.1938 77.2063 57.411 77.5222C57.6381 77.8282 57.7911 78.2034 57.8701 78.6476C57.9589 79.082 58.0033 79.5608 58.0033 80.084V84.4375H56.2116V80.3653C56.2116 79.5558 56.1128 78.9734 55.9154 78.618C55.718 78.2527 55.3379 78.0701 54.7752 78.0701C54.4889 78.0701 54.2174 78.1195 53.9608 78.2182C53.7041 78.307 53.5116 78.3959 53.3833 78.4847C53.4622 78.7315 53.5165 78.9931 53.5461 79.2695C53.5758 79.5459 53.5906 79.8421 53.5906 80.158V84.4375H51.7988V80.3653ZM59.7689 80.6022C59.7689 79.9211 59.8677 79.3238 60.0651 78.8105C60.2724 78.2971 60.5439 77.8727 60.8795 77.537C61.2152 77.1915 61.6002 76.9348 62.0346 76.767C62.4689 76.5893 62.9132 76.5004 63.3673 76.5004C64.4334 76.5004 65.2627 76.8312 65.855 77.4926C66.4572 78.154 66.7583 79.1412 66.7583 80.4542C66.7583 80.5529 66.7533 80.6664 66.7435 80.7947C66.7435 80.9132 66.7385 81.0218 66.7287 81.1205H61.6199C61.6693 81.7425 61.8865 82.2262 62.2715 82.5717C62.6664 82.9073 63.234 83.0752 63.9744 83.0752C64.4088 83.0752 64.8036 83.0357 65.159 82.9567C65.5243 82.8777 65.8106 82.7938 66.0179 82.705L66.2548 84.171C66.1561 84.2203 66.0179 84.2746 65.8402 84.3338C65.6724 84.3832 65.4749 84.4276 65.2479 84.4671C65.0307 84.5165 64.7938 84.556 64.5371 84.5856C64.2804 84.6152 64.0188 84.63 63.7523 84.63C63.0711 84.63 62.4788 84.5313 61.9753 84.3338C61.4719 84.1265 61.0572 83.8452 60.7315 83.4898C60.4057 83.1245 60.1638 82.7 60.0059 82.2163C59.8479 81.7227 59.7689 81.1847 59.7689 80.6022ZM64.9665 79.8026C64.9665 79.5558 64.932 79.3238 64.8629 79.1066C64.7938 78.8796 64.6901 78.6871 64.5519 78.5291C64.4236 78.3613 64.2607 78.233 64.0632 78.1441C63.8757 78.0454 63.6486 77.9961 63.3821 77.9961C63.1057 77.9961 62.8638 78.0503 62.6565 78.1589C62.4492 78.2577 62.2715 78.3909 62.1234 78.5588C61.9852 78.7266 61.8766 78.9191 61.7976 79.1363C61.7187 79.3534 61.6644 79.5756 61.6347 79.8026H64.9665ZM73.0707 78.307C72.9227 78.2577 72.7153 78.2083 72.4488 78.1589C72.1921 78.0997 71.891 78.0701 71.5455 78.0701C71.3481 78.0701 71.1358 78.0898 70.9088 78.1293C70.6916 78.1688 70.5386 78.2034 70.4497 78.233V84.4375H68.658V77.0632C69.0035 76.9348 69.4329 76.8164 69.9463 76.7078C70.4695 76.5893 71.047 76.5301 71.6788 76.5301C71.7973 76.5301 71.9355 76.5399 72.0934 76.5597C72.2514 76.5696 72.4093 76.5893 72.5673 76.6189C72.7252 76.6387 72.8782 76.6683 73.0263 76.7078C73.1744 76.7374 73.2929 76.767 73.3817 76.7966L73.0707 78.307ZM74.2009 80.5726C74.2009 80.0001 74.2897 79.467 74.4674 78.9734C74.6451 78.4699 74.8969 78.0355 75.2226 77.6703C75.5583 77.305 75.963 77.0187 76.4369 76.8114C76.9107 76.6041 77.4438 76.5004 78.0361 76.5004C78.7667 76.5004 79.4577 76.6337 80.1093 76.9003L79.7243 78.3662C79.5169 78.2774 79.28 78.2034 79.0135 78.1441C78.7568 78.0849 78.4804 78.0553 78.1842 78.0553C77.4833 78.0553 76.9502 78.2774 76.585 78.7216C76.2197 79.156 76.0371 79.773 76.0371 80.5726C76.0371 81.3426 76.2098 81.9547 76.5554 82.4088C76.9009 82.8531 77.4833 83.0752 78.3027 83.0752C78.6087 83.0752 78.9098 83.0456 79.206 82.9863C79.5021 82.9271 79.7588 82.8531 79.976 82.7642L80.2277 84.245C80.0303 84.3437 79.7292 84.4326 79.3244 84.5115C78.9296 84.5905 78.5199 84.63 78.0954 84.63C77.434 84.63 76.8564 84.5313 76.3629 84.3338C75.8791 84.1265 75.4744 83.8452 75.1486 83.4898C74.8327 83.1245 74.5958 82.6951 74.4378 82.2015C74.2799 81.698 74.2009 81.1551 74.2009 80.5726ZM81.1855 80.6022C81.1855 79.9211 81.2842 79.3238 81.4816 78.8105C81.689 78.2971 81.9604 77.8727 82.2961 77.537C82.6317 77.1915 83.0167 76.9348 83.4511 76.767C83.8855 76.5893 84.3297 76.5004 84.7838 76.5004C85.85 76.5004 86.6792 76.8312 87.2715 77.4926C87.8737 78.154 88.1748 79.1412 88.1748 80.4542C88.1748 80.5529 88.1699 80.6664 88.16 80.7947C88.16 80.9132 88.1551 81.0218 88.1452 81.1205H83.0365C83.0858 81.7425 83.303 82.2262 83.688 82.5717C84.0829 82.9073 84.6505 83.0752 85.3909 83.0752C85.8253 83.0752 86.2202 83.0357 86.5756 82.9567C86.9408 82.8777 87.2271 82.7938 87.4344 82.705L87.6714 84.171C87.5726 84.2203 87.4344 84.2746 87.2567 84.3338C87.0889 84.3832 86.8915 84.4276 86.6644 84.4671C86.4472 84.5165 86.2103 84.556 85.9536 84.5856C85.697 84.6152 85.4354 84.63 85.1688 84.63C84.4876 84.63 83.8953 84.5313 83.3919 84.3338C82.8884 84.1265 82.4738 83.8452 82.148 83.4898C81.8222 83.1245 81.5804 82.7 81.4224 82.2163C81.2645 81.7227 81.1855 81.1847 81.1855 80.6022ZM86.3831 79.8026C86.3831 79.5558 86.3485 79.3238 86.2794 79.1066C86.2103 78.8796 86.1067 78.6871 85.9684 78.5291C85.8401 78.3613 85.6772 78.233 85.4798 78.1441C85.2922 78.0454 85.0652 77.9961 84.7986 77.9961C84.5222 77.9961 84.2803 78.0503 84.073 78.1589C83.8657 78.2577 83.688 78.3909 83.5399 78.5588C83.4017 78.7266 83.2931 78.9191 83.2142 79.1363C83.1352 79.3534 83.0809 79.5756 83.0513 79.8026H86.3831Z" fill="white"/>
</svg>
