<svg width="75" height="87" viewBox="0 0 75 87" fill="none" xmlns="http://www.w3.org/2000/svg">
<path d="M18.2373 82.3672V72.1053H24.7232V73.6897H20.1031V76.3107H24.2049V77.8952H20.1031V82.3672H18.2373ZM28.6293 72.1053C28.8464 72.4804 29.0883 72.9395 29.3549 73.4824C29.6214 74.0254 29.8929 74.598 30.1693 75.2001C30.4457 75.7925 30.7172 76.3996 30.9837 77.0215C31.2601 77.6336 31.5119 78.2012 31.7389 78.7244C31.966 78.2012 32.2128 77.6336 32.4793 77.0215C32.7459 76.3996 33.0173 75.7925 33.2938 75.2001C33.5702 74.598 33.8417 74.0254 34.1082 73.4824C34.3747 72.9395 34.6166 72.4804 34.8338 72.1053H36.5219C36.6107 72.8556 36.6946 73.6552 36.7736 74.5042C36.8526 75.3433 36.9217 76.2071 36.9809 77.0956C37.05 77.9742 37.1093 78.8626 37.1586 79.761C37.2179 80.6495 37.2672 81.5182 37.3067 82.3672H35.4705C35.431 81.1727 35.3817 79.9436 35.3224 78.68C35.2731 77.4164 35.1941 76.1923 35.0855 75.0076C34.9769 75.2347 34.8486 75.5062 34.7005 75.8221C34.5524 76.138 34.3945 76.4835 34.2267 76.8586C34.0588 77.2239 33.8861 77.604 33.7084 77.9988C33.5406 78.3937 33.3727 78.7787 33.2049 79.1539C33.047 79.5191 32.8989 79.8646 32.7607 80.1904C32.6225 80.5063 32.504 80.7778 32.4053 81.0049H31.0133C30.9146 80.7778 30.7962 80.5014 30.6579 80.1756C30.5197 79.8498 30.3667 79.5043 30.1989 79.1391C30.041 78.7639 29.8731 78.3789 29.6954 77.984C29.5276 77.5892 29.3598 77.2091 29.192 76.8438C29.0241 76.4786 28.8662 76.138 28.7181 75.8221C28.57 75.4963 28.4417 75.2248 28.3331 75.0076C28.2245 76.1923 28.1406 77.4164 28.0814 78.68C28.032 79.9436 27.9876 81.1727 27.9481 82.3672H26.1119C26.1514 81.5182 26.1958 80.6396 26.2452 79.7314C26.3044 78.8232 26.3636 77.9248 26.4229 77.0363C26.492 76.138 26.566 75.2693 26.645 74.4301C26.724 73.591 26.8079 72.8161 26.8967 72.1053H28.6293ZM44.0412 82.5893C43.2712 82.5893 42.5801 82.4708 41.9681 82.2339C41.356 81.997 40.8377 81.6515 40.4133 81.1974C39.9888 80.7334 39.663 80.1707 39.4359 79.5093C39.2089 78.8478 39.0953 78.0877 39.0953 77.2288C39.0953 76.37 39.2237 75.6098 39.4804 74.9484C39.7469 74.287 40.1072 73.7292 40.5613 73.2751C41.0154 72.8111 41.5485 72.4607 42.1606 72.2238C42.7726 71.9868 43.4291 71.8684 44.13 71.8684C44.5545 71.8684 44.9395 71.9029 45.2851 71.972C45.6306 72.0313 45.9317 72.1004 46.1883 72.1793C46.445 72.2583 46.6573 72.3422 46.8251 72.4311C46.9929 72.5199 47.1114 72.5841 47.1805 72.6236L46.6326 74.1488C46.3957 74.0007 46.0551 73.8625 45.6108 73.7342C45.1765 73.596 44.7026 73.5269 44.1893 73.5269C43.745 73.5269 43.3304 73.6058 42.9454 73.7638C42.5604 73.9119 42.2248 74.1389 41.9385 74.4449C41.6621 74.751 41.4449 75.136 41.2869 75.6C41.129 76.0639 41.05 76.602 41.05 77.214C41.05 77.757 41.1092 78.2555 41.2277 78.7096C41.356 79.1637 41.5485 79.5586 41.8052 79.8943C42.0619 80.22 42.3876 80.4767 42.7825 80.6643C43.1774 80.842 43.6513 80.9308 44.2041 80.9308C44.8655 80.9308 45.4035 80.8667 45.8181 80.7383C46.2328 80.6001 46.5536 80.4718 46.7807 80.3533L47.2841 81.8785C47.1657 81.9575 47.0028 82.0365 46.7955 82.1155C46.598 82.1944 46.3611 82.2734 46.0847 82.3524C45.8083 82.4215 45.4973 82.4758 45.1518 82.5153C44.8063 82.5646 44.4361 82.5893 44.0412 82.5893ZM53.4608 73.512C52.4045 73.512 51.595 73.8428 51.0323 74.5042C50.4794 75.1557 50.203 76.0639 50.203 77.2288C50.203 77.7817 50.2672 78.2901 50.3955 78.7541C50.5337 79.2082 50.7312 79.5981 50.9878 79.9239C51.2544 80.2497 51.5802 80.5063 51.9652 80.6939C52.36 80.8716 52.8191 80.9604 53.3423 80.9604C53.6681 80.9604 53.9494 80.9506 54.1864 80.9308C54.4233 80.9012 54.6109 80.8667 54.7491 80.8272V77.14H56.6149V82.071C56.3582 82.1697 55.9238 82.2783 55.3118 82.3968C54.6997 82.5153 53.9939 82.5745 53.1942 82.5745C52.4538 82.5745 51.7776 82.456 51.1655 82.2191C50.5535 81.9822 50.0303 81.6367 49.5959 81.1826C49.1714 80.7284 48.8407 80.1707 48.6038 79.5093C48.3668 78.8478 48.2484 78.0877 48.2484 77.2288C48.2484 76.37 48.3767 75.6098 48.6334 74.9484C48.8999 74.287 49.2603 73.7292 49.7144 73.2751C50.1685 72.8111 50.7016 72.4607 51.3136 72.2238C51.9257 71.9868 52.5772 71.8684 53.2683 71.8684C53.7421 71.8684 54.1617 71.9029 54.5269 71.972C54.9021 72.0313 55.2229 72.1004 55.4895 72.1793C55.756 72.2583 55.9732 72.3422 56.141 72.4311C56.3187 72.5199 56.4421 72.5841 56.5112 72.6236L55.9485 74.1488C55.6523 73.9711 55.2821 73.823 54.8379 73.7045C54.4035 73.5762 53.9445 73.512 53.4608 73.512Z" fill="white"/>
<path d="M41.3554 50.5362C44.7052 50.6871 48.0641 50.9977 51.4139 50.9267C54.4524 50.8645 55.9717 49.0186 55.9809 46.1077C56.0083 39.4694 56.1273 32.8222 55.9077 26.1927C55.8344 24.1071 55.386 21.5068 54.0406 20.1046C50.4529 16.3595 48.5126 12.2416 49.2081 6.94336H43.433C44.8699 12.9693 41.0442 16.963 38.1521 21.3293" stroke="white" stroke-width="1.74211" stroke-linecap="round" stroke-linejoin="round"/>
<path d="M41.3503 32.3908C41.5059 32.0979 41.7896 31.7961 41.7896 31.5033C41.57 21.9185 43.5835 21.954 33.1224 22.1937C29.315 22.2824 25.4984 22.2913 21.6911 22.1759C18.9911 22.096 17.2613 23.3651 17.1881 25.7436C16.9868 33.1185 17.0691 40.4934 17.1698 47.8683C17.179 48.7647 18.0027 49.6433 18.561 50.7438H41.2496C41.5974 45.2592 41.9269 39.9254 42.2656 34.5917" stroke="white" stroke-width="1.74211" stroke-linecap="round" stroke-linejoin="round"/>
<path d="M18.0312 40.8018H40.8938" stroke="white" stroke-width="1.74211" stroke-linecap="round" stroke-linejoin="round"/>
<path d="M55.0708 40.7998C53.2403 40.0632 50.9889 39.7526 49.6618 38.5102C45.2503 34.3656 40.4087 31.9162 34.0296 32.3244C28.7212 32.6617 23.3671 32.3954 18.0312 32.3954" stroke="white" stroke-width="1.74211" stroke-linecap="round" stroke-linejoin="round"/>
<path d="M49.5795 6.72254C49.9913 5.16058 50.4032 3.6075 51.0164 1.27344C47.4103 1.47756 44.8202 1.61955 41.1135 1.82367C42.0196 3.97136 42.5962 5.34695 43.1728 6.72254" stroke="white" stroke-width="1.74211" stroke-linecap="round" stroke-linejoin="round"/>
<path d="M55.0742 34.1631L49.5828 36.8166" stroke="white" stroke-width="1.74211" stroke-linecap="round" stroke-linejoin="round"/>
</svg>
