<svg width="57" height="87" viewBox="0 0 57 87" fill="none" xmlns="http://www.w3.org/2000/svg">
<path d="M9.42713 82.8555C9.28892 82.4507 9.14578 82.0509 8.9977 81.656C8.84962 81.2611 8.70648 80.8564 8.56827 80.4418H4.24436C4.10615 80.8564 3.963 81.2661 3.81493 81.6708C3.67672 82.0657 3.53851 82.4606 3.4003 82.8555H1.46046C1.84547 81.7597 2.21073 80.7478 2.55625 79.8198C2.90177 78.8919 3.23742 78.0133 3.56319 77.184C3.89884 76.3548 4.22955 75.565 4.55532 74.8148C4.8811 74.0645 5.21674 73.3241 5.56226 72.5936H7.3244C7.66992 73.3241 8.00557 74.0645 8.33134 74.8148C8.65712 75.565 8.98289 76.3548 9.30867 77.184C9.64431 78.0133 9.9849 78.8919 10.3304 79.8198C10.6858 80.7478 11.056 81.7597 11.441 82.8555H9.42713ZM6.40631 74.5778C6.17926 75.101 5.91765 75.7378 5.62149 76.4881C5.33521 77.2383 5.03411 78.0528 4.71821 78.9314H8.09442C7.77851 78.0528 7.47248 77.2334 7.17633 76.4733C6.88017 75.7131 6.6235 75.0813 6.40631 74.5778ZM17.7876 79.0202C17.7876 78.2206 17.605 77.5987 17.2397 77.1544C16.8843 76.7102 16.3068 76.4881 15.5072 76.4881C15.3394 76.4881 15.1617 76.4979 14.9741 76.5177C14.7964 76.5275 14.6187 76.5572 14.441 76.6065V81.0341C14.599 81.1427 14.8063 81.2463 15.0629 81.3451C15.3295 81.4339 15.6108 81.4783 15.907 81.4783C16.5585 81.4783 17.0324 81.2562 17.3285 80.812C17.6346 80.3677 17.7876 79.7705 17.7876 79.0202ZM19.6238 78.9906C19.6238 79.5829 19.5448 80.1259 19.3869 80.6195C19.2388 81.1131 19.0216 81.5376 18.7353 81.893C18.449 82.2483 18.0887 82.5248 17.6543 82.7222C17.2298 82.9196 16.7461 83.0184 16.2031 83.0184C15.8379 83.0184 15.5022 82.9739 15.1962 82.8851C14.8902 82.7962 14.6384 82.6975 14.441 82.5889V85.5949H12.6492V75.3627C13.0145 75.2639 13.4637 75.1702 13.9968 75.0813C14.5299 74.9925 15.0926 74.948 15.6849 74.948C16.2969 74.948 16.8448 75.0418 17.3285 75.2294C17.8123 75.417 18.222 75.6884 18.5576 76.0438C18.9031 76.3893 19.1647 76.8138 19.3424 77.3173C19.53 77.8109 19.6238 78.3687 19.6238 78.9906ZM26.6087 79.0202C26.6087 78.2206 26.4261 77.5987 26.0608 77.1544C25.7054 76.7102 25.1279 76.4881 24.3283 76.4881C24.1605 76.4881 23.9828 76.4979 23.7952 76.5177C23.6175 76.5275 23.4398 76.5572 23.2621 76.6065V81.0341C23.4201 81.1427 23.6274 81.2463 23.8841 81.3451C24.1506 81.4339 24.432 81.4783 24.7281 81.4783C25.3797 81.4783 25.8535 81.2562 26.1497 80.812C26.4557 80.3677 26.6087 79.7705 26.6087 79.0202ZM28.4449 78.9906C28.4449 79.5829 28.3659 80.1259 28.208 80.6195C28.0599 81.1131 27.8427 81.5376 27.5564 81.893C27.2701 82.2483 26.9098 82.5248 26.4755 82.7222C26.051 82.9196 25.5672 83.0184 25.0243 83.0184C24.659 83.0184 24.3234 82.9739 24.0173 82.8851C23.7113 82.7962 23.4596 82.6975 23.2621 82.5889V85.5949H21.4704V75.3627C21.8356 75.2639 22.2848 75.1702 22.8179 75.0813C23.351 74.9925 23.9137 74.948 24.506 74.948C25.1181 74.948 25.666 75.0418 26.1497 75.2294C26.6334 75.417 27.0431 75.6884 27.3787 76.0438C27.7243 76.3893 27.9859 76.8138 28.1636 77.3173C28.3511 77.8109 28.4449 78.3687 28.4449 78.9906ZM33.0162 81.5968C33.569 81.5968 33.9885 81.5672 34.2748 81.5079V79.5237C34.1761 79.4941 34.033 79.4645 33.8454 79.4348C33.6578 79.4052 33.4505 79.3904 33.2235 79.3904C33.026 79.3904 32.8237 79.4052 32.6163 79.4348C32.4189 79.4645 32.2363 79.5187 32.0685 79.5977C31.9105 79.6767 31.7822 79.7902 31.6834 79.9383C31.5847 80.0765 31.5354 80.2542 31.5354 80.4714C31.5354 80.8959 31.6686 81.192 31.9352 81.3599C32.2017 81.5178 32.5621 81.5968 33.0162 81.5968ZM32.8681 74.9184C33.4604 74.9184 33.9589 74.9925 34.3637 75.1405C34.7684 75.2886 35.0893 75.4959 35.3262 75.7625C35.573 76.029 35.7458 76.3548 35.8445 76.7398C35.9531 77.1149 36.0074 77.5295 36.0074 77.9837V82.6778C35.7309 82.737 35.3114 82.8061 34.7487 82.8851C34.1959 82.9739 33.569 83.0184 32.8681 83.0184C32.4041 83.0184 31.9796 82.9739 31.5946 82.8851C31.2096 82.7962 30.8789 82.6531 30.6025 82.4557C30.3359 82.2582 30.1237 82.0015 29.9657 81.6856C29.8176 81.3697 29.7436 80.9798 29.7436 80.5158C29.7436 80.0716 29.8275 79.6964 29.9953 79.3904C30.173 79.0844 30.41 78.8376 30.7061 78.65C31.0023 78.4526 31.3429 78.3144 31.7279 78.2354C32.1228 78.1465 32.5324 78.1021 32.9569 78.1021C33.1544 78.1021 33.3617 78.1169 33.5789 78.1465C33.796 78.1663 34.028 78.2058 34.2748 78.265V77.9689C34.2748 77.7615 34.2502 77.5641 34.2008 77.3765C34.1514 77.189 34.0626 77.0261 33.9343 76.8879C33.8158 76.7398 33.6529 76.6263 33.4456 76.5473C33.2482 76.4683 32.9964 76.4288 32.6904 76.4288C32.2758 76.4288 31.8957 76.4584 31.5502 76.5177C31.2047 76.5769 30.9233 76.646 30.7061 76.725L30.484 75.2738C30.7111 75.1948 31.0418 75.1159 31.4761 75.0369C31.9105 74.9579 32.3745 74.9184 32.8681 74.9184ZM42.6144 76.725C42.4663 76.6756 42.259 76.6263 41.9924 76.5769C41.7358 76.5177 41.4347 76.4881 41.0891 76.4881C40.8917 76.4881 40.6795 76.5078 40.4524 76.5473C40.2352 76.5868 40.0822 76.6213 39.9934 76.6509V82.8555H38.2016V75.4811C38.5471 75.3528 38.9765 75.2343 39.4899 75.1257C40.0131 75.0073 40.5906 74.948 41.2224 74.948C41.3409 74.948 41.4791 74.9579 41.637 74.9777C41.795 74.9875 41.9529 75.0073 42.1109 75.0369C42.2688 75.0566 42.4219 75.0862 42.5699 75.1257C42.718 75.1553 42.8365 75.185 42.9253 75.2146L42.6144 76.725ZM43.7445 79.0202C43.7445 78.3391 43.8432 77.7418 44.0407 77.2285C44.248 76.7151 44.5195 76.2906 44.8551 75.955C45.1907 75.6095 45.5758 75.3528 46.0101 75.185C46.4445 75.0073 46.8887 74.9184 47.3428 74.9184C48.409 74.9184 49.2382 75.2491 49.8306 75.9105C50.4328 76.572 50.7338 77.5592 50.7338 78.8721C50.7338 78.9709 50.7289 79.0844 50.719 79.2127C50.719 79.3312 50.7141 79.4398 50.7042 79.5385H45.5955C45.6449 80.1604 45.862 80.6442 46.247 80.9897C46.6419 81.3253 47.2096 81.4931 47.95 81.4931C48.3843 81.4931 48.7792 81.4537 49.1346 81.3747C49.4999 81.2957 49.7861 81.2118 49.9935 81.1229L50.2304 82.5889C50.1317 82.6383 49.9935 82.6926 49.8158 82.7518C49.6479 82.8012 49.4505 82.8456 49.2234 82.8851C49.0063 82.9344 48.7693 82.9739 48.5127 83.0035C48.256 83.0332 47.9944 83.048 47.7278 83.048C47.0467 83.048 46.4544 82.9493 45.9509 82.7518C45.4474 82.5445 45.0328 82.2632 44.707 81.9078C44.3812 81.5425 44.1394 81.118 43.9814 80.6343C43.8235 80.1407 43.7445 79.6027 43.7445 79.0202ZM48.9421 78.2206C48.9421 77.9738 48.9075 77.7418 48.8384 77.5246C48.7693 77.2976 48.6657 77.1051 48.5275 76.9471C48.3991 76.7793 48.2362 76.6509 48.0388 76.5621C47.8512 76.4634 47.6242 76.414 47.3576 76.414C47.0812 76.414 46.8394 76.4683 46.6321 76.5769C46.4247 76.6756 46.247 76.8089 46.099 76.9767C45.9608 77.1445 45.8522 77.337 45.7732 77.5542C45.6942 77.7714 45.6399 77.9935 45.6103 78.2206H48.9421ZM55.3286 83.0035C54.7955 82.9937 54.3513 82.9344 53.9959 82.8259C53.6504 82.7173 53.3739 82.5642 53.1666 82.3668C52.9593 82.1595 52.8112 81.9078 52.7224 81.6116C52.6434 81.3056 52.6039 80.9601 52.6039 80.575V71.6607L54.3957 71.3645V80.2345C54.3957 80.4516 54.4105 80.6343 54.4401 80.7824C54.4796 80.9304 54.5438 81.0588 54.6326 81.1674C54.7215 81.2661 54.8399 81.3451 54.988 81.4043C55.146 81.4537 55.3434 81.4931 55.5803 81.5228L55.3286 83.0035Z" fill="white"/>
<path d="M16.1894 12.7478C16.047 18.0108 15.1675 23.3875 15.9549 28.5205C17.0019 35.3348 22.4881 39.1928 29.1554 39.5826C34.2396 39.8831 41.9456 35.148 42.4481 28.9429C42.9256 23.1682 42.5486 17.3285 42.5486 11.0827C40.2704 12.5447 38.4947 13.6899 36.342 15.0706C34.8595 13.3975 33.3853 11.7244 31.6096 9.71013H26.9609C25.6375 11.2452 24.0042 13.1457 22.2871 15.1437C19.1378 13.1944 16.3402 11.4645 13.685 9.81572C13.5426 0.507979 13.1741 0.897844 22.4714 0.995307C27.9074 1.05216 33.3602 1.20645 38.7878 0.946553C44.1484 0.694772 45.7901 2.52222 45.0866 7.07863C45.0028 7.60656 45.1619 8.16698 45.1871 8.53246C45.5975 8.86546 45.7315 9.05227 45.9074 9.09288C51.9967 10.6929 53.4542 14.7457 53.1191 20.4473C52.6919 27.8464 52.7924 35.3024 53.1023 42.7177C53.2782 46.9736 50.288 49.8 45.899 49.6944C34.7506 49.4345 23.5854 49.6213 12.4286 49.597C7.57053 49.5889 5.76132 47.8264 5.74457 43.1238C5.71944 34.6201 5.74457 26.1083 5.74457 17.6047C5.74457 11.8462 6.21361 11.2858 12.0182 9.88881C12.4788 9.77511 12.8642 9.36901 13.283 9.10098" stroke="white" stroke-width="1.74211" stroke-linecap="round" stroke-linejoin="round"/>
<path d="M33.76 14.3735C32.7968 15.9979 31.8336 17.6304 31.0378 18.9705C31.9676 24.6072 32.8638 30.0245 33.76 35.4337" stroke="white" stroke-width="1.74211" stroke-linecap="round" stroke-linejoin="round"/>
<path d="M24.558 14.3735C25.5212 15.9979 26.4845 17.6304 27.2299 18.8812C26.3086 24.599 25.4291 30.0164 24.558 35.4337" stroke="white" stroke-width="1.74211" stroke-linecap="round" stroke-linejoin="round"/>
<path d="M40.8776 3.83447C38.0884 5.85683 35.2992 7.8873 32.51 9.90966" stroke="white" stroke-width="1.74211" stroke-linecap="round" stroke-linejoin="round"/>
<path d="M18.7069 4.24414C21.2197 6.13655 23.7325 8.02083 26.2369 9.91324" stroke="white" stroke-width="1.74211" stroke-linecap="round" stroke-linejoin="round"/>
</svg>
