<svg width="98" height="88" viewBox="0 0 98 88" fill="none" xmlns="http://www.w3.org/2000/svg">
<path d="M70.3912 16.3942C74.3294 17.881 76.5331 14.9398 79.1893 13.2254C78.6111 7.80607 77.1531 6.01857 71.6397 4.66983C59.5821 1.70421 47.4575 -0.123911 35.2324 3.8492C28.2693 6.11607 21.4487 9.29294 19.9321 16.841C18.2898 25.0473 20.4684 31.0923 29.7776 32.2379C38.1148 33.2616 45.6895 32.7254 51.6387 25.7866C54.3619 22.6098 58.5515 21.7404 62.8584 21.6267C67.0479 21.521 71.271 21.3829 75.4019 20.7735C79.0049 20.2373 80.3958 17.8729 79.1809 14.3711" stroke="white" stroke-width="1.74211" stroke-linecap="round" stroke-linejoin="round"/>
<path d="M54.4755 18.0103C51.6853 20.3096 49.0207 22.7715 46.0797 24.8596C39.8623 29.2715 27.2518 29.2552 20.5736 23.6815" stroke="white" stroke-width="1.74211" stroke-linecap="round" stroke-linejoin="round"/>
<path d="M37.7337 11.533C35.7813 12.0693 33.8039 12.5405 31.8767 13.1661C28.768 14.1818 27.8631 16.2699 28.8518 19.3086C32.0107 21.4618 35.3875 20.5274 38.0437 19.0486C40.0379 17.9355 43.1214 16.2293 41.4708 12.443C40.4318 12.1587 39.2838 11.8418 38.1442 11.5249" stroke="white" stroke-width="1.74211" stroke-linecap="round" stroke-linejoin="round"/>
<path d="M64.9386 7.48101C63.9583 6.66851 63.0701 5.30351 61.9976 5.14101C56.7522 4.38539 51.4566 3.95476 45.675 3.35352C49.8395 11.9579 57.3639 13.8266 64.1007 8.69163C69.0695 4.90539 73.0245 5.67726 77.1554 11.8685C74.8511 13.136 72.6139 14.3547 70.3767 15.5816" stroke="white" stroke-width="1.74211" stroke-linecap="round" stroke-linejoin="round"/>
<path d="M65.3589 16.3944C61.8564 16.8412 58.3623 17.2881 54.575 17.7756C54.6839 17.15 54.8179 16.3375 54.9604 15.5331C55.2201 15.2975 55.4882 15.0619 55.748 14.8262C53.7789 13.7781 51.8014 12.7381 48.9442 11.2188C48.3492 14.6637 47.9387 17.1012 47.394 20.2619C50.067 18.7831 51.8517 17.8 53.6365 16.8087" stroke="white" stroke-width="1.74211" stroke-linecap="round" stroke-linejoin="round"/>
<path d="M66.2006 8.68799C66.6364 11.0686 62.8993 12.9699 65.3627 15.578" stroke="white" stroke-width="1.74211" stroke-linecap="round" stroke-linejoin="round"/>
<path d="M36.4788 6.66828C31.5184 7.2289 27.5383 9.51202 24.3459 13.152C20.9439 17.0276 21.4634 20.432 26.4909 22.3332C30.404 23.812 34.7862 24.5351 39.0009 24.7626C42.7631 24.9657 44.9166 22.4876 45.2518 18.8151C45.5115 15.9958 45.5785 13.1601 45.721 10.5683C44.2463 9.13827 43.1234 8.05765 42.0258 6.99328C40.2494 6.87953 38.5736 6.76578 36.8978 6.66016" stroke="white" stroke-width="1.74211" stroke-linecap="round" stroke-linejoin="round"/>
<path d="M5.78407 56.6912C6.00125 57.0664 6.24312 57.5254 6.50966 58.0684C6.7762 58.6113 7.04768 59.1839 7.3241 59.7861C7.60051 60.3784 7.87199 60.9855 8.13853 61.6075C8.41495 62.2195 8.66668 62.7872 8.89374 63.3104C9.12079 62.7872 9.36759 62.2195 9.63413 61.6075C9.90068 60.9855 10.1722 60.3784 10.4486 59.7861C10.725 59.1839 10.9965 58.6113 11.263 58.0684C11.5295 57.5254 11.7714 57.0664 11.9886 56.6912H13.6767C13.7655 57.4415 13.8495 58.2411 13.9284 59.0901C14.0074 59.9292 14.0765 60.793 14.1357 61.6815C14.2048 62.5601 14.2641 63.4486 14.3134 64.3469C14.3727 65.2354 14.422 66.1041 14.4615 66.9531H12.6253C12.5858 65.7586 12.5365 64.5296 12.4773 63.266C12.4279 62.0023 12.3489 60.7782 12.2403 59.5936C12.1317 59.8206 12.0034 60.0921 11.8553 60.408C11.7072 60.7239 11.5493 61.0694 11.3815 61.4446C11.2136 61.8098 11.0409 62.1899 10.8632 62.5848C10.6954 62.9797 10.5275 63.3647 10.3597 63.7398C10.2018 64.1051 10.0537 64.4506 9.91548 64.7764C9.77728 65.0923 9.65881 65.3637 9.56009 65.5908H8.16815C8.06943 65.3637 7.95096 65.0873 7.81276 64.7616C7.67455 64.4358 7.52153 64.0903 7.35371 63.725C7.19576 63.3499 7.02794 62.9649 6.85024 62.57C6.68242 62.1751 6.5146 61.795 6.34677 61.4298C6.17895 61.0645 6.021 60.7239 5.87292 60.408C5.72484 60.0822 5.5965 59.8108 5.48791 59.5936C5.37932 60.7782 5.29541 62.0023 5.23618 63.266C5.18682 64.5296 5.14239 65.7586 5.10291 66.9531H3.26672C3.30621 66.1041 3.35063 65.2255 3.39999 64.3173C3.45923 63.4091 3.51846 62.5107 3.57769 61.6223C3.64679 60.7239 3.72083 59.8552 3.79981 59.0161C3.87878 58.177 3.9627 57.402 4.05154 56.6912H5.78407ZM16.1169 63.1179C16.1169 62.4367 16.2156 61.8395 16.413 61.3261C16.6204 60.8128 16.8918 60.3883 17.2275 60.0526C17.5631 59.7071 17.9481 59.4504 18.3825 59.2826C18.8169 59.1049 19.2611 59.0161 19.7152 59.0161C20.7814 59.0161 21.6106 59.3468 22.2029 60.0082C22.8051 60.6696 23.1062 61.6568 23.1062 62.9698C23.1062 63.0685 23.1013 63.182 23.0914 63.3104C23.0914 63.4288 23.0865 63.5374 23.0766 63.6361H17.9679C18.0172 64.2581 18.2344 64.7418 18.6194 65.0873C19.0143 65.423 19.5819 65.5908 20.3223 65.5908C20.7567 65.5908 21.1516 65.5513 21.507 65.4723C21.8722 65.3934 22.1585 65.3094 22.3658 65.2206L22.6028 66.6866C22.504 66.7359 22.3658 66.7902 22.1881 66.8495C22.0203 66.8988 21.8229 66.9433 21.5958 66.9827C21.3786 67.0321 21.1417 67.0716 20.885 67.1012C20.6284 67.1308 20.3668 67.1456 20.1002 67.1456C19.4191 67.1456 18.8267 67.0469 18.3233 66.8495C17.8198 66.6422 17.4052 66.3608 17.0794 66.0054C16.7536 65.6402 16.5118 65.2157 16.3538 64.7319C16.1959 64.2383 16.1169 63.7003 16.1169 63.1179ZM21.3145 62.3182C21.3145 62.0714 21.2799 61.8395 21.2108 61.6223C21.1417 61.3952 21.0381 61.2027 20.8998 61.0448C20.7715 60.8769 20.6086 60.7486 20.4112 60.6598C20.2236 60.561 19.9966 60.5117 19.73 60.5117C19.4536 60.5117 19.2117 60.566 19.0044 60.6746C18.7971 60.7733 18.6194 60.9066 18.4713 61.0744C18.3331 61.2422 18.2245 61.4347 18.1456 61.6519C18.0666 61.8691 18.0123 62.0912 17.9827 62.3182H21.3145ZM27.7306 65.6945C28.2834 65.6945 28.703 65.6648 28.9893 65.6056V63.6213C28.8905 63.5917 28.7474 63.5621 28.5598 63.5325C28.3723 63.5029 28.1649 63.4881 27.9379 63.4881C27.7405 63.4881 27.5381 63.5029 27.3308 63.5325C27.1333 63.5621 26.9507 63.6164 26.7829 63.6954C26.6249 63.7744 26.4966 63.8879 26.3979 64.036C26.2991 64.1742 26.2498 64.3519 26.2498 64.569C26.2498 64.9935 26.3831 65.2897 26.6496 65.4575C26.9161 65.6155 27.2765 65.6945 27.7306 65.6945ZM27.5825 59.0161C28.1748 59.0161 28.6734 59.0901 29.0781 59.2382C29.4829 59.3863 29.8037 59.5936 30.0406 59.8601C30.2874 60.1267 30.4602 60.4524 30.5589 60.8375C30.6675 61.2126 30.7218 61.6272 30.7218 62.0813V66.7754C30.4454 66.8347 30.0258 66.9038 29.4631 66.9827C28.9103 67.0716 28.2834 67.116 27.5825 67.116C27.1185 67.116 26.694 67.0716 26.309 66.9827C25.924 66.8939 25.5933 66.7507 25.3169 66.5533C25.0503 66.3559 24.8381 66.0992 24.6801 65.7833C24.5321 65.4674 24.458 65.0775 24.458 64.6135C24.458 64.1692 24.5419 63.7941 24.7098 63.4881C24.8875 63.182 25.1244 62.9352 25.4205 62.7477C25.7167 62.5502 26.0573 62.412 26.4423 62.3331C26.8372 62.2442 27.2469 62.1998 27.6713 62.1998C27.8688 62.1998 28.0761 62.2146 28.2933 62.2442C28.5105 62.2639 28.7425 62.3034 28.9893 62.3627V62.0665C28.9893 61.8592 28.9646 61.6618 28.9152 61.4742C28.8659 61.2866 28.777 61.1237 28.6487 60.9855C28.5302 60.8375 28.3673 60.7239 28.16 60.6449C27.9626 60.566 27.7108 60.5265 27.4048 60.5265C26.9902 60.5265 26.6101 60.5561 26.2646 60.6153C25.9191 60.6746 25.6377 60.7437 25.4205 60.8226L25.1984 59.3715C25.4255 59.2925 25.7562 59.2135 26.1906 59.1345C26.6249 59.0556 27.0889 59.0161 27.5825 59.0161ZM32.8272 57.1651L34.6189 56.8689V59.2086H37.3732V60.7042H34.6189V63.8583C34.6189 64.4802 34.7176 64.9244 34.9151 65.191C35.1125 65.4575 35.4482 65.5908 35.922 65.5908C36.2478 65.5908 36.5341 65.5562 36.7809 65.4871C37.0376 65.418 37.2399 65.3539 37.388 65.2946L37.6842 66.7162C37.4769 66.805 37.2054 66.8939 36.8697 66.9827C36.5341 67.0815 36.1392 67.1308 35.6851 67.1308C35.1323 67.1308 34.6683 67.0568 34.2932 66.9087C33.9279 66.7606 33.6367 66.5484 33.4195 66.272C33.2023 65.9857 33.0493 65.6451 32.9604 65.2502C32.8716 64.8455 32.8272 64.3864 32.8272 63.8731V57.1651ZM45.5526 56.5876C47.0433 56.5876 48.1835 56.8591 48.9732 57.402C49.7729 57.945 50.1727 58.794 50.1727 59.949C50.1727 60.5512 50.0641 61.0694 49.8469 61.5038C49.6396 61.9283 49.3336 62.2788 48.9288 62.5552C48.5241 62.8217 48.0305 63.0192 47.448 63.1475C46.8656 63.2758 46.1992 63.34 45.449 63.34H44.5161V66.9531H42.6503V56.8393C43.0846 56.7406 43.5634 56.6764 44.0866 56.6468C44.6197 56.6073 45.1084 56.5876 45.5526 56.5876ZM45.6859 58.2016C45.212 58.2016 44.8221 58.2164 44.5161 58.2461V61.7407H45.4193C46.3177 61.7407 47.0087 61.6173 47.4925 61.3705C47.9762 61.1139 48.218 60.6351 48.218 59.9342C48.218 59.5985 48.1539 59.3172 48.0255 59.0901C47.8972 58.8631 47.7195 58.6854 47.4925 58.557C47.2654 58.4287 46.9939 58.3398 46.678 58.2905C46.372 58.2313 46.0413 58.2016 45.6859 58.2016ZM58.5313 63.0734C58.5313 63.6855 58.4425 64.2433 58.2648 64.7467C58.0871 65.2502 57.8353 65.6796 57.5096 66.035C57.1838 66.3904 56.7889 66.6668 56.3249 66.8643C55.8708 67.0617 55.3673 67.1604 54.8145 67.1604C54.2617 67.1604 53.7582 67.0617 53.3041 66.8643C52.85 66.6668 52.4601 66.3904 52.1343 66.035C51.8085 65.6796 51.5518 65.2502 51.3643 64.7467C51.1866 64.2433 51.0977 63.6855 51.0977 63.0734C51.0977 62.4614 51.1866 61.9086 51.3643 61.415C51.5518 60.9115 51.8085 60.4821 52.1343 60.1267C52.4699 59.7713 52.8648 59.4998 53.3189 59.3122C53.773 59.1148 54.2716 59.0161 54.8145 59.0161C55.3575 59.0161 55.856 59.1148 56.3101 59.3122C56.7741 59.4998 57.169 59.7713 57.4947 60.1267C57.8205 60.4821 58.0723 60.9115 58.25 61.415C58.4375 61.9086 58.5313 62.4614 58.5313 63.0734ZM56.6951 63.0734C56.6951 62.3034 56.5273 61.6963 56.1916 61.2521C55.8659 60.798 55.4068 60.5709 54.8145 60.5709C54.2222 60.5709 53.7582 60.798 53.4226 61.2521C53.0968 61.6963 52.9339 62.3034 52.9339 63.0734C52.9339 63.8533 53.0968 64.4703 53.4226 64.9244C53.7582 65.3785 54.2222 65.6056 54.8145 65.6056C55.4068 65.6056 55.8659 65.3785 56.1916 64.9244C56.5273 64.4703 56.6951 63.8533 56.6951 63.0734ZM66.7298 66.7162C66.3843 66.805 65.9351 66.8939 65.3823 66.9827C64.8295 67.0815 64.2223 67.1308 63.5609 67.1308C62.939 67.1308 62.4158 67.042 61.9913 66.8643C61.5766 66.6866 61.241 66.4398 60.9843 66.1239C60.7375 65.808 60.5598 65.4328 60.4512 64.9985C60.3427 64.5542 60.2884 64.0705 60.2884 63.5473V59.2086H62.0801V63.266C62.0801 64.0952 62.1986 64.6875 62.4355 65.0429C62.6823 65.3983 63.1068 65.576 63.709 65.576C63.9262 65.576 64.1532 65.5661 64.3902 65.5464C64.637 65.5266 64.8196 65.5019 64.938 65.4723V59.2086H66.7298V66.7162ZM71.7054 67.1012C71.1723 67.0913 70.7281 67.0321 70.3727 66.9235C70.0272 66.8149 69.7507 66.6619 69.5434 66.4645C69.3361 66.2572 69.188 66.0054 69.0992 65.7093C69.0202 65.4032 68.9807 65.0577 68.9807 64.6727V55.7583L70.7725 55.4622V64.3321C70.7725 64.5493 70.7873 64.7319 70.8169 64.88C70.8564 65.0281 70.9206 65.1564 71.0094 65.265C71.0983 65.3637 71.2167 65.4427 71.3648 65.5019C71.5228 65.5513 71.7202 65.5908 71.9571 65.6204L71.7054 67.1012ZM73.3176 57.1651L75.1094 56.8689V59.2086H77.8636V60.7042H75.1094V63.8583C75.1094 64.4802 75.2081 64.9244 75.4055 65.191C75.603 65.4575 75.9386 65.5908 76.4125 65.5908C76.7382 65.5908 77.0245 65.5562 77.2713 65.4871C77.528 65.418 77.7304 65.3539 77.8784 65.2946L78.1746 66.7162C77.9673 66.805 77.6958 66.8939 77.3602 66.9827C77.0245 67.0815 76.6296 67.1308 76.1755 67.1308C75.6227 67.1308 75.1587 67.0568 74.7836 66.9087C74.4183 66.7606 74.1271 66.5484 73.9099 66.272C73.6927 65.9857 73.5397 65.6451 73.4509 65.2502C73.362 64.8455 73.3176 64.3864 73.3176 63.8731V57.1651ZM84.0085 60.8226C83.8604 60.7733 83.6531 60.7239 83.3865 60.6746C83.1299 60.6153 82.8288 60.5857 82.4832 60.5857C82.2858 60.5857 82.0736 60.6055 81.8465 60.6449C81.6293 60.6844 81.4763 60.719 81.3875 60.7486V66.9531H79.5957V59.5788C79.9412 59.4504 80.3706 59.332 80.884 59.2234C81.4072 59.1049 81.9847 59.0457 82.6165 59.0457C82.735 59.0457 82.8732 59.0556 83.0311 59.0753C83.1891 59.0852 83.347 59.1049 83.505 59.1345C83.6629 59.1543 83.816 59.1839 83.964 59.2234C84.1121 59.253 84.2306 59.2826 84.3194 59.3122L84.0085 60.8226ZM92.1513 59.2086C91.3517 62.1504 90.4237 64.8158 89.3674 67.2049C89.17 67.6491 88.9676 68.0292 88.7603 68.3451C88.553 68.661 88.321 68.9226 88.0643 69.1299C87.8077 69.3372 87.5214 69.4853 87.2055 69.5741C86.8896 69.6728 86.5243 69.7222 86.1097 69.7222C85.8333 69.7222 85.5568 69.6926 85.2804 69.6334C85.0139 69.5741 84.8115 69.51 84.6733 69.4409L84.9991 68.0045C85.3545 68.1427 85.7049 68.2118 86.0504 68.2118C86.5144 68.2118 86.8748 68.0983 87.1314 67.8712C87.398 67.654 87.63 67.3135 87.8274 66.8495C87.2647 65.7636 86.7217 64.5789 86.1985 63.2956C85.6852 62.0122 85.2261 60.6499 84.8214 59.2086H86.7316C86.8303 59.6232 86.9488 60.0724 87.087 60.5561C87.2351 61.0398 87.393 61.5334 87.5609 62.0369C87.7287 62.5305 87.9064 63.0241 88.0939 63.5177C88.2815 64.0113 88.4691 64.4703 88.6566 64.8948C88.9725 64.0162 89.2687 63.0833 89.5451 62.0961C89.8215 61.0991 90.0733 60.1365 90.3003 59.2086H92.1513ZM14.5823 82.2285C14.5823 81.8533 14.6366 81.5127 14.7452 81.2067C14.8636 80.9007 15.0167 80.6243 15.2042 80.3775C15.4017 80.1307 15.6238 79.9135 15.8706 79.7259C16.1273 79.5384 16.3938 79.3705 16.6702 79.2225C16.3741 78.9066 16.1322 78.5709 15.9446 78.2155C15.7669 77.8601 15.6781 77.485 15.6781 77.0901C15.6781 76.2609 15.9298 75.6143 16.4333 75.1503C16.9466 74.6863 17.6179 74.4543 18.4472 74.4543C18.8717 74.4543 19.2468 74.5135 19.5726 74.632C19.9082 74.7505 20.1846 74.9133 20.4018 75.1207C20.619 75.328 20.7819 75.5748 20.8905 75.8611C21.0089 76.1375 21.0682 76.4336 21.0682 76.7495C21.0682 77.0654 21.0139 77.3616 20.9053 77.638C20.8066 77.9144 20.6684 78.1711 20.4907 78.408C20.313 78.6351 20.1057 78.8473 19.8687 79.0448C19.6417 79.2323 19.3949 79.4002 19.1283 79.5482L21.157 81.5917C21.2952 81.3351 21.4087 81.0488 21.4976 80.7329C21.5864 80.4071 21.6555 80.0912 21.7049 79.7852L23.2005 79.9777C23.1511 80.3725 23.0475 80.8118 22.8895 81.2956C22.7316 81.7694 22.5243 82.2235 22.2676 82.6579C22.5934 83.0232 22.9044 83.4032 23.2005 83.7981C23.5065 84.1831 23.7583 84.5681 23.9557 84.9531H22.0899C21.9912 84.7853 21.8629 84.6027 21.7049 84.4052C21.5568 84.2078 21.3989 84.0252 21.2311 83.8573C20.8263 84.2226 20.3623 84.5188 19.8391 84.7458C19.3159 84.9729 18.7236 85.0864 18.0622 85.0864C17.4007 85.0864 16.8479 84.9975 16.4037 84.8199C15.9594 84.6422 15.5991 84.4151 15.3227 84.1387C15.0561 83.8623 14.8636 83.5562 14.7452 83.2206C14.6366 82.885 14.5823 82.5542 14.5823 82.2285ZM16.3 82.11C16.3 82.2778 16.3296 82.4506 16.3889 82.6283C16.458 82.806 16.5616 82.9738 16.6998 83.1317C16.8479 83.2798 17.0355 83.4032 17.2625 83.5019C17.4995 83.6007 17.7808 83.65 18.1066 83.65C18.5508 83.65 18.9506 83.5809 19.306 83.4427C19.6713 83.3045 19.9823 83.1071 20.2389 82.8504L17.6327 80.1998C17.4846 80.2788 17.3316 80.3725 17.1737 80.4811C17.0157 80.5897 16.8726 80.723 16.7443 80.8809C16.6159 81.029 16.5073 81.2067 16.4185 81.414C16.3395 81.6115 16.3 81.8435 16.3 82.11ZM19.5133 76.8236C19.5133 76.5373 19.4196 76.2954 19.232 76.098C19.0444 75.8907 18.7729 75.787 18.4175 75.787C18.0424 75.787 17.7561 75.9005 17.5587 76.1276C17.3612 76.3547 17.2625 76.6409 17.2625 76.9865C17.2625 77.2727 17.3415 77.559 17.4995 77.8453C17.6574 78.1217 17.8746 78.3883 18.151 78.6449C18.3386 78.5462 18.5113 78.4376 18.6693 78.3192C18.8371 78.2007 18.9802 78.0674 19.0987 77.9194C19.227 77.7713 19.3258 77.6084 19.3949 77.4307C19.4738 77.253 19.5133 77.0506 19.5133 76.8236ZM31.2411 83.5612C31.9124 83.5612 32.4011 83.4477 32.7071 83.2206C33.0131 82.9935 33.1661 82.6727 33.1661 82.2581C33.1661 82.0113 33.1118 81.799 33.0032 81.6213C32.9045 81.4436 32.7564 81.2857 32.559 81.1475C32.3714 80.9994 32.1394 80.8661 31.863 80.7477C31.5866 80.6193 31.2707 80.4959 30.9153 80.3775C30.5599 80.2491 30.2144 80.1109 29.8788 79.9629C29.553 79.8049 29.2618 79.6124 29.0051 79.3853C28.7583 79.1583 28.5559 78.8868 28.398 78.5709C28.2499 78.255 28.1759 77.8749 28.1759 77.4307C28.1759 76.5027 28.4967 75.7771 29.1384 75.2539C29.78 74.7208 30.6537 74.4543 31.7594 74.4543C32.4011 74.4543 32.9687 74.5283 33.4623 74.6764C33.9658 74.8146 34.3606 74.9676 34.6469 75.1355L34.0694 76.6459C33.7338 76.4583 33.3636 76.3152 32.9588 76.2164C32.5639 76.1177 32.1543 76.0684 31.7298 76.0684C31.2263 76.0684 30.8314 76.172 30.5451 76.3793C30.2687 76.5866 30.1305 76.8779 30.1305 77.253C30.1305 77.4801 30.1749 77.6775 30.2638 77.8453C30.3625 78.0033 30.4958 78.1464 30.6636 78.2747C30.8413 78.4031 31.0437 78.5215 31.2707 78.6301C31.5076 78.7387 31.7643 78.8424 32.0407 78.9411C32.5245 79.1188 32.9539 79.3014 33.329 79.489C33.714 79.6667 34.0349 79.8839 34.2915 80.1405C34.5581 80.3873 34.7604 80.6835 34.8987 81.029C35.0369 81.3647 35.106 81.7744 35.106 82.2581C35.106 83.186 34.7753 83.9067 34.1138 84.42C33.4623 84.9235 32.5047 85.1752 31.2411 85.1752C30.8166 85.1752 30.4267 85.1456 30.0713 85.0864C29.7258 85.037 29.4148 84.9729 29.1384 84.8939C28.8718 84.8149 28.6398 84.7359 28.4424 84.657C28.245 84.5681 28.087 84.4891 27.9685 84.42L28.5164 82.8948C28.783 83.0429 29.1433 83.191 29.5974 83.3391C30.0515 83.4871 30.5994 83.5612 31.2411 83.5612ZM36.2319 81.1179C36.2319 80.4367 36.3307 79.8395 36.5281 79.3261C36.7354 78.8128 37.0069 78.3883 37.3425 78.0526C37.6782 77.7071 38.0632 77.4504 38.4976 77.2826C38.9319 77.1049 39.3762 77.0161 39.8303 77.0161C40.8964 77.0161 41.7257 77.3468 42.318 78.0082C42.9202 78.6696 43.2213 79.6568 43.2213 80.9698C43.2213 81.0685 43.2164 81.182 43.2065 81.3104C43.2065 81.4288 43.2015 81.5374 43.1917 81.6361H38.0829C38.1323 82.2581 38.3495 82.7418 38.7345 83.0873C39.1294 83.423 39.697 83.5908 40.4374 83.5908C40.8718 83.5908 41.2666 83.5513 41.622 83.4723C41.9873 83.3934 42.2736 83.3094 42.4809 83.2206L42.7178 84.6866C42.6191 84.7359 42.4809 84.7902 42.3032 84.8495C42.1354 84.8988 41.9379 84.9433 41.7109 84.9827C41.4937 85.0321 41.2568 85.0716 41.0001 85.1012C40.7434 85.1308 40.4818 85.1456 40.2153 85.1456C39.5341 85.1456 38.9418 85.0469 38.4383 84.8495C37.9349 84.6422 37.5202 84.3608 37.1945 84.0054C36.8687 83.6402 36.6268 83.2157 36.4689 82.7319C36.3109 82.2383 36.2319 81.7003 36.2319 81.1179ZM41.4295 80.3182C41.4295 80.0714 41.395 79.8395 41.3259 79.6223C41.2568 79.3952 41.1531 79.2027 41.0149 79.0448C40.8866 78.8769 40.7237 78.7486 40.5262 78.6598C40.3387 78.561 40.1116 78.5117 39.8451 78.5117C39.5687 78.5117 39.3268 78.566 39.1195 78.6746C38.9122 78.7733 38.7345 78.9066 38.5864 79.0744C38.4482 79.2422 38.3396 79.4347 38.2606 79.6519C38.1817 79.8691 38.1274 80.0912 38.0977 80.3182H41.4295ZM47.8456 83.6945C48.3985 83.6945 48.818 83.6648 49.1043 83.6056V81.6213C49.0056 81.5917 48.8625 81.5621 48.6749 81.5325C48.4873 81.5029 48.28 81.4881 48.053 81.4881C47.8555 81.4881 47.6531 81.5029 47.4458 81.5325C47.2484 81.5621 47.0658 81.6164 46.8979 81.6954C46.74 81.7744 46.6116 81.8879 46.5129 82.036C46.4142 82.1742 46.3649 82.3519 46.3649 82.569C46.3649 82.9935 46.4981 83.2897 46.7647 83.4575C47.0312 83.6155 47.3915 83.6945 47.8456 83.6945ZM47.6976 77.0161C48.2899 77.0161 48.7884 77.0901 49.1932 77.2382C49.5979 77.3863 49.9188 77.5936 50.1557 77.8601C50.4025 78.1267 50.5752 78.4524 50.674 78.8375C50.7825 79.2126 50.8368 79.6272 50.8368 80.0813V84.7754C50.5604 84.8347 50.1409 84.9038 49.5782 84.9827C49.0253 85.0716 48.3985 85.116 47.6976 85.116C47.2336 85.116 46.8091 85.0716 46.4241 84.9827C46.0391 84.8939 45.7084 84.7507 45.432 84.5533C45.1654 84.3559 44.9532 84.0992 44.7952 83.7833C44.6471 83.4674 44.5731 83.0775 44.5731 82.6135C44.5731 82.1692 44.657 81.7941 44.8248 81.4881C45.0025 81.182 45.2394 80.9352 45.5356 80.7477C45.8318 80.5502 46.1723 80.412 46.5574 80.3331C46.9522 80.2442 47.3619 80.1998 47.7864 80.1998C47.9839 80.1998 48.1912 80.2146 48.4083 80.2442C48.6255 80.2639 48.8575 80.3034 49.1043 80.3627V80.0665C49.1043 79.8592 49.0796 79.6618 49.0303 79.4742C48.9809 79.2866 48.8921 79.1237 48.7637 78.9855C48.6453 78.8375 48.4824 78.7239 48.2751 78.6449C48.0776 78.566 47.8259 78.5265 47.5199 78.5265C47.1052 78.5265 46.7252 78.5561 46.3797 78.6153C46.0341 78.6746 45.7528 78.7437 45.5356 78.8226L45.3135 77.3715C45.5405 77.2925 45.8713 77.2135 46.3056 77.1345C46.74 77.0556 47.204 77.0161 47.6976 77.0161ZM56.1852 73.4622C56.5998 73.4622 56.9651 73.5017 57.281 73.5806C57.5969 73.6497 57.8338 73.7139 57.9917 73.7731L57.6512 75.2539C57.4833 75.175 57.2859 75.1108 57.0588 75.0614C56.8417 75.0121 56.6047 74.9874 56.3481 74.9874C56.0618 74.9874 55.8199 75.0318 55.6225 75.1207C55.425 75.1996 55.2671 75.3132 55.1486 75.4612C55.0302 75.6093 54.9462 75.792 54.8969 76.0091C54.8475 76.2164 54.8228 76.4435 54.8228 76.6903V77.2086H57.6363V78.7042H54.8228V84.9531H53.0311V76.6607C53.0311 75.6636 53.2927 74.8837 53.8159 74.321C54.3391 73.7485 55.1289 73.4622 56.1852 73.4622ZM65.8196 81.0734C65.8196 81.6855 65.7307 82.2433 65.553 82.7467C65.3753 83.2502 65.1236 83.6796 64.7978 84.035C64.4721 84.3904 64.0772 84.6668 63.6132 84.8643C63.1591 85.0617 62.6556 85.1604 62.1028 85.1604C61.55 85.1604 61.0465 85.0617 60.5924 84.8643C60.1383 84.6668 59.7483 84.3904 59.4226 84.035C59.0968 83.6796 58.8401 83.2502 58.6525 82.7467C58.4748 82.2433 58.386 81.6855 58.386 81.0734C58.386 80.4614 58.4748 79.9086 58.6525 79.415C58.8401 78.9115 59.0968 78.4821 59.4226 78.1267C59.7582 77.7713 60.1531 77.4998 60.6072 77.3122C61.0613 77.1148 61.5598 77.0161 62.1028 77.0161C62.6457 77.0161 63.1443 77.1148 63.5984 77.3122C64.0624 77.4998 64.4572 77.7713 64.783 78.1267C65.1088 78.4821 65.3605 78.9115 65.5382 79.415C65.7258 79.9086 65.8196 80.4614 65.8196 81.0734ZM63.9834 81.0734C63.9834 80.3034 63.8156 79.6963 63.4799 79.2521C63.1542 78.798 62.6951 78.5709 62.1028 78.5709C61.5105 78.5709 61.0465 78.798 60.7108 79.2521C60.3851 79.6963 60.2222 80.3034 60.2222 81.0734C60.2222 81.8533 60.3851 82.4703 60.7108 82.9244C61.0465 83.3785 61.5105 83.6056 62.1028 83.6056C62.6951 83.6056 63.1542 83.3785 63.4799 82.9244C63.8156 82.4703 63.9834 81.8533 63.9834 81.0734ZM74.6696 81.0734C74.6696 81.6855 74.5808 82.2433 74.4031 82.7467C74.2254 83.2502 73.9737 83.6796 73.6479 84.035C73.3221 84.3904 72.9272 84.6668 72.4632 84.8643C72.0091 85.0617 71.5057 85.1604 70.9528 85.1604C70.4 85.1604 69.8965 85.0617 69.4424 84.8643C68.9883 84.6668 68.5984 84.3904 68.2726 84.035C67.9468 83.6796 67.6902 83.2502 67.5026 82.7467C67.3249 82.2433 67.236 81.6855 67.236 81.0734C67.236 80.4614 67.3249 79.9086 67.5026 79.415C67.6902 78.9115 67.9468 78.4821 68.2726 78.1267C68.6083 77.7713 69.0031 77.4998 69.4572 77.3122C69.9113 77.1148 70.4099 77.0161 70.9528 77.0161C71.4958 77.0161 71.9943 77.1148 72.4484 77.3122C72.9124 77.4998 73.3073 77.7713 73.6331 78.1267C73.9588 78.4821 74.2106 78.9115 74.3883 79.415C74.5758 79.9086 74.6696 80.4614 74.6696 81.0734ZM72.8334 81.0734C72.8334 80.3034 72.6656 79.6963 72.33 79.2521C72.0042 78.798 71.5452 78.5709 70.9528 78.5709C70.3605 78.5709 69.8965 78.798 69.5609 79.2521C69.2351 79.6963 69.0722 80.3034 69.0722 81.0734C69.0722 81.8533 69.2351 82.4703 69.5609 82.9244C69.8965 83.3785 70.3605 83.6056 70.9528 83.6056C71.5452 83.6056 72.0042 83.3785 72.33 82.9244C72.6656 82.4703 72.8334 81.8533 72.8334 81.0734ZM77.9223 81.0586C77.9223 81.8484 78.1099 82.4703 78.485 82.9244C78.8601 83.3687 79.3784 83.5908 80.0398 83.5908C80.3261 83.5908 80.568 83.5809 80.7654 83.5612C80.9727 83.5316 81.1405 83.5019 81.2689 83.4723V79.03C81.1109 78.9214 80.8987 78.8226 80.6321 78.7338C80.3755 78.6351 80.0991 78.5857 79.8029 78.5857C79.1513 78.5857 78.6726 78.8078 78.3665 79.2521C78.0704 79.6963 77.9223 80.2985 77.9223 81.0586ZM83.0606 84.7162C82.7052 84.8248 82.2561 84.9235 81.7131 85.0124C81.18 85.1012 80.6173 85.1456 80.025 85.1456C79.4129 85.1456 78.8651 85.0518 78.3813 84.8643C77.8976 84.6767 77.483 84.4102 77.1375 84.0646C76.8018 83.7093 76.5402 83.2848 76.3526 82.7912C76.1749 82.2877 76.0861 81.725 76.0861 81.1031C76.0861 80.491 76.1601 79.9382 76.3082 79.4446C76.4662 78.9411 76.6932 78.5117 76.9894 78.1563C77.2855 77.8009 77.6459 77.5294 78.0704 77.3418C78.4949 77.1444 78.9835 77.0457 79.5363 77.0457C79.9115 77.0457 80.2422 77.0901 80.5285 77.179C80.8148 77.2678 81.0616 77.3665 81.2689 77.4751V73.7583L83.0606 73.4622V84.7162Z" fill="white"/>
</svg>
