<svg width="89" height="98" viewBox="0 0 89 98" fill="none" xmlns="http://www.w3.org/2000/svg">
<path d="M53.4165 34.3177C62.0841 33.3945 65.632 28.1513 66.3236 21.2795C67.0063 14.5557 61.8327 8.81614 55.662 7.35293C48.4316 5.62844 41.6771 8.74646 39.0633 14.7822C38.5154 16.0451 38.1561 17.3863 37.707 18.6841" stroke="white" stroke-width="1.74211" stroke-linecap="round" stroke-linejoin="round"/>
<path d="M32.3261 21.724C31.6255 17.9876 35.5326 15.9583 35.9458 12.6051C36.0805 11.5164 36.5745 10.4713 36.8979 9.40002C36.5656 9.30422 36.2422 9.21712 35.9099 9.12131C37.2571 7.81488 38.6045 6.51716 39.6105 5.53298C43.3829 6.69135 45.9248 4.33979 48.4038 2.92884C51.0984 1.39596 53.0475 1.34369 55.7151 2.94625C58.0505 4.34849 60.3948 6.7262 64.6971 4.96687C65.5235 6.83071 66.4306 8.84261 67.3108 10.8632C67.4905 11.2813 67.5713 11.7516 67.7689 12.161C69.0983 14.9219 71.5054 17.6654 71.5054 20.4176C71.5054 23.1698 69.0174 25.8785 67.8138 28.6917C67.3647 29.7281 67.8947 31.3655 67.23 32.071C65.8827 33.4906 64.1402 34.6751 62.3528 35.5722C59.9187 36.7915 57.3229 37.7148 54.7451 38.638C53.4607 39.0909 52.0595 39.2476 50.7212 39.5351" stroke="white" stroke-width="1.74211" stroke-linecap="round" stroke-linejoin="round"/>
<path d="M49.8287 30.8414C55.4244 32.5485 61.7028 27.9237 62.8076 21.7138C63.6968 16.7058 58.622 10.7397 53.4124 10.4262C46.1011 9.98202 41.5742 13.7184 41.2778 20.4161C41.2419 21.287 40.9904 22.158 40.8467 23.0202" stroke="white" stroke-width="1.74211" stroke-linecap="round" stroke-linejoin="round"/>
<path d="M20.6594 29.1062C21.9528 31.8933 21.0546 34.0648 17.9648 35.6209V39.967C20.7792 42.0689 21.6594 44.4292 20.6055 47.0479C21.7642 48.1627 22.9588 49.3211 24.2612 50.5927C28.1414 48.6417 30.3689 50.1223 31.4198 53.8675C32.9198 53.8675 34.4108 53.8675 36.1892 53.8675C37.3569 50.2965 39.6204 48.6156 43.7251 50.9411C44.8389 49.7653 45.9707 48.5546 47.1203 47.3527C45.0814 43.4508 45.3599 42.7192 50.0395 40.2893V35.5339C45.2162 33.5307 45.1173 33.3565 46.761 28.8624C46.4826 28.3224 46.2491 27.5298 45.7461 26.9637C45.1263 26.2756 44.2731 25.7879 43.303 25.0388C42.5126 25.605 41.6503 26.2321 40.5186 27.0421C39.1353 25.875 37.6174 24.5947 35.3899 22.7221C35.0216 22.6611 33.6654 22.4521 32.2462 22.2344C30.7911 23.8195 29.2552 25.4917 27.8001 27.0769C26.4977 26.3366 25.5726 25.814 23.9918 24.9169C23.0037 26.0318 21.8271 27.3556 20.6415 28.6794" stroke="white" stroke-width="1.74211" stroke-linecap="round" stroke-linejoin="round"/>
<path d="M38.6099 38.2284C37.9812 35.4239 36.4723 33.3162 33.2567 34.0043C31.8915 34.2917 29.9334 35.8507 29.8525 36.9394C29.7447 38.4723 30.7687 40.5016 32.0082 41.5641C32.8435 42.287 35.0351 42.0867 36.3196 41.5816C37.3255 41.1809 37.8645 39.6742 38.6189 38.6639" stroke="white" stroke-width="1.74211" stroke-linecap="round" stroke-linejoin="round"/>
<path d="M68.6713 51.6914C64.854 51.883 61.1534 53.2069 57.3091 50.5853C55.6115 49.4269 52.369 50.3937 49.8271 50.3937" stroke="white" stroke-width="1.74211" stroke-linecap="round" stroke-linejoin="round"/>
<path d="M65.0875 46.4759C62.5995 46.894 60.4169 47.2423 57.7852 45.814C55.6744 44.6643 52.5217 45.3175 49.8271 45.1782" stroke="white" stroke-width="1.74211" stroke-linecap="round" stroke-linejoin="round"/>
<path d="M34.5675 5.64335C30.0765 5.06852 25.5945 4.48499 21.1035 3.91016" stroke="white" stroke-width="1.74211" stroke-linecap="round" stroke-linejoin="round"/>
<path d="M32.774 10.8631C31.5794 10.715 30.3758 10.6105 29.1902 10.4189C27.6902 10.175 26.1992 9.85277 24.6992 9.55664" stroke="white" stroke-width="1.74211" stroke-linecap="round" stroke-linejoin="round"/>
<path d="M44.8926 13.9004C47.0842 16.4087 49.2848 18.9171 52.3207 22.4009C53.7578 23.4983 56.2818 25.4318 58.7967 27.3653" stroke="white" stroke-width="1.74211" stroke-linecap="round" stroke-linejoin="round"/>
<path d="M51.1719 19.1196C53.6694 18.9279 54.6306 19.7903 53.4178 22.1598" stroke="white" stroke-width="1.74211" stroke-linecap="round" stroke-linejoin="round"/>
<path d="M58.7956 13.9004C57.1519 15.4942 55.5082 17.0881 53.8555 18.6819" stroke="white" stroke-width="1.74211" stroke-linecap="round" stroke-linejoin="round"/>
<path d="M49.8211 22.5918C48.6262 23.7504 47.4314 24.909 46.2275 26.0676" stroke="white" stroke-width="1.74211" stroke-linecap="round" stroke-linejoin="round"/>
<path d="M68.6728 46.4766C68.3763 46.764 68.0709 47.0515 67.7744 47.3477" stroke="white" stroke-width="1.74211" stroke-linecap="round" stroke-linejoin="round"/>
<path d="M31.4303 28.6718C27.3614 30.4746 24.074 32.7304 24.1998 37.7907C24.3435 43.3212 28.1339 47.5192 33.6668 47.7805C38.6518 48.0157 43.7176 43.3212 43.9871 38.2261C44.2566 33.2704 39.6937 28.8547 34.1159 28.6718C33.3704 28.6456 32.6159 28.6718 31.8704 28.6718" stroke="white" stroke-width="1.74211" stroke-linecap="round" stroke-linejoin="round"/>
<path d="M20.9052 66.4627V68.0768H17.7511V76.7246H15.8705V68.0768H12.7164V66.4627H20.9052ZM21.0002 72.8894C21.0002 72.2082 21.0989 71.6109 21.2964 71.0976C21.5037 70.5843 21.7751 70.1598 22.1108 69.8241C22.4464 69.4786 22.8314 69.2219 23.2658 69.0541C23.7002 68.8764 24.1444 68.7876 24.5985 68.7876C25.6647 68.7876 26.4939 69.1183 27.0863 69.7797C27.6884 70.4411 27.9895 71.4283 27.9895 72.7413C27.9895 72.84 27.9846 72.9535 27.9747 73.0819C27.9747 73.2003 27.9698 73.3089 27.9599 73.4076H22.8512C22.9005 74.0296 23.1177 74.5133 23.5027 74.8588C23.8976 75.1945 24.4652 75.3623 25.2056 75.3623C25.64 75.3623 26.0349 75.3228 26.3903 75.2438C26.7555 75.1648 27.0418 75.0809 27.2491 74.9921L27.4861 76.4581C27.3873 76.5074 27.2491 76.5617 27.0714 76.621C26.9036 76.6703 26.7062 76.7147 26.4791 76.7542C26.2619 76.8036 26.025 76.8431 25.7683 76.8727C25.5117 76.9023 25.2501 76.9171 24.9835 76.9171C24.3024 76.9171 23.71 76.8184 23.2066 76.621C22.7031 76.4136 22.2885 76.1323 21.9627 75.7769C21.6369 75.4116 21.3951 74.9871 21.2371 74.5034C21.0792 74.0098 21.0002 73.4718 21.0002 72.8894ZM26.1978 72.0897C26.1978 71.8429 26.1632 71.6109 26.0941 71.3938C26.025 71.1667 25.9214 70.9742 25.7832 70.8162C25.6548 70.6484 25.4919 70.5201 25.2945 70.4312C25.1069 70.3325 24.8799 70.2832 24.6133 70.2832C24.3369 70.2832 24.0951 70.3375 23.8877 70.446C23.6804 70.5448 23.5027 70.678 23.3547 70.8459C23.2164 71.0137 23.1079 71.2062 23.0289 71.4234C22.9499 71.6406 22.8956 71.8627 22.866 72.0897H26.1978ZM29.4598 72.8597C29.4598 72.2872 29.5486 71.7541 29.7263 71.2605C29.904 70.757 30.1558 70.3226 30.4815 69.9574C30.8172 69.5921 31.2219 69.3058 31.6958 69.0985C32.1697 68.8912 32.7027 68.7876 33.2951 68.7876C34.0256 68.7876 34.7166 68.9208 35.3682 69.1874L34.9832 70.6534C34.7758 70.5645 34.5389 70.4905 34.2724 70.4312C34.0157 70.372 33.7393 70.3424 33.4431 70.3424C32.7422 70.3424 32.2091 70.5645 31.8439 71.0087C31.4786 71.4431 31.296 72.0601 31.296 72.8597C31.296 73.6298 31.4687 74.2418 31.8143 74.6959C32.1598 75.1402 32.7422 75.3623 33.5616 75.3623C33.8676 75.3623 34.1687 75.3327 34.4649 75.2734C34.761 75.2142 35.0177 75.1402 35.2349 75.0513L35.4866 76.5321C35.2892 76.6308 34.9881 76.7197 34.5833 76.7986C34.1885 76.8776 33.7788 76.9171 33.3543 76.9171C32.6929 76.9171 32.1154 76.8184 31.6218 76.621C31.138 76.4136 30.7333 76.1323 30.4075 75.7769C30.0916 75.4116 29.8547 74.9822 29.6967 74.4886C29.5388 73.9851 29.4598 73.4422 29.4598 72.8597ZM36.8738 76.7246V65.5298L38.6656 65.2337V69.0689C38.863 68.9998 39.0901 68.9406 39.3468 68.8912C39.6133 68.8419 39.8749 68.8172 40.1316 68.8172C40.7535 68.8172 41.2668 68.906 41.6716 69.0837C42.0862 69.2515 42.4169 69.4934 42.6637 69.8093C42.9105 70.1153 43.0833 70.4855 43.182 70.9199C43.2906 71.3543 43.3449 71.838 43.3449 72.3711V76.7246H41.5531V72.6524C41.5531 72.2378 41.5235 71.8874 41.4643 71.6011C41.4149 71.3049 41.3261 71.068 41.1977 70.8903C41.0793 70.7027 40.9164 70.5694 40.7091 70.4905C40.5018 70.4016 40.2451 70.3572 39.9391 70.3572C39.7021 70.3572 39.4603 70.3819 39.2135 70.4312C38.9667 70.4806 38.7841 70.525 38.6656 70.5645V76.7246H36.8738ZM45.4925 69.2318C45.838 69.1331 46.2872 69.0393 46.84 68.9504C47.3929 68.8616 48.0049 68.8172 48.6762 68.8172C49.308 68.8172 49.8362 68.906 50.2607 69.0837C50.6852 69.2515 51.0208 69.4934 51.2676 69.8093C51.5243 70.1153 51.702 70.4905 51.8007 70.9347C51.9093 71.3691 51.9636 71.8479 51.9636 72.3711V76.7246H50.1718V72.6524C50.1718 72.2378 50.1422 71.8874 50.083 71.6011C50.0336 71.3049 49.9448 71.068 49.8164 70.8903C49.698 70.7027 49.5301 70.5694 49.313 70.4905C49.1056 70.4016 48.849 70.3572 48.5429 70.3572C48.3159 70.3572 48.079 70.372 47.8322 70.4016C47.5854 70.4312 47.4027 70.4559 47.2843 70.4757V76.7246H45.4925V69.2318ZM55.9611 76.7246H54.1694V68.9801H55.9611V76.7246ZM56.1536 66.7144C56.1536 67.0501 56.045 67.3166 55.8279 67.5141C55.6107 67.7115 55.354 67.8102 55.0579 67.8102C54.7518 67.8102 54.4902 67.7115 54.273 67.5141C54.0558 67.3166 53.9473 67.0501 53.9473 66.7144C53.9473 66.3689 54.0558 66.0975 54.273 65.9C54.4902 65.7026 54.7518 65.6039 55.0579 65.6039C55.354 65.6039 55.6107 65.7026 55.8279 65.9C56.045 66.0975 56.1536 66.3689 56.1536 66.7144ZM57.8176 72.8597C57.8176 72.2872 57.9064 71.7541 58.0841 71.2605C58.2618 70.757 58.5135 70.3226 58.8393 69.9574C59.175 69.5921 59.5797 69.3058 60.0536 69.0985C60.5274 68.8912 61.0605 68.7876 61.6528 68.7876C62.3833 68.7876 63.0744 68.9208 63.7259 69.1874L63.3409 70.6534C63.1336 70.5645 62.8967 70.4905 62.6301 70.4312C62.3735 70.372 62.0971 70.3424 61.8009 70.3424C61.1 70.3424 60.5669 70.5645 60.2016 71.0087C59.8364 71.4431 59.6537 72.0601 59.6537 72.8597C59.6537 73.6298 59.8265 74.2418 60.172 74.6959C60.5175 75.1402 61.1 75.3623 61.9194 75.3623C62.2254 75.3623 62.5265 75.3327 62.8226 75.2734C63.1188 75.2142 63.3755 75.1402 63.5927 75.0513L63.8444 76.5321C63.647 76.6308 63.3459 76.7197 62.9411 76.7986C62.5462 76.8776 62.1365 76.9171 61.712 76.9171C61.0506 76.9171 60.4731 76.8184 59.9795 76.621C59.4958 76.4136 59.091 76.1323 58.7653 75.7769C58.4494 75.4116 58.2124 74.9822 58.0545 74.4886C57.8965 73.9851 57.8176 73.4422 57.8176 72.8597ZM67.9563 75.4659C68.5091 75.4659 68.9286 75.4363 69.2149 75.3771V73.3928C69.1162 73.3632 68.9731 73.3336 68.7855 73.304C68.5979 73.2744 68.3906 73.2596 68.1636 73.2596C67.9661 73.2596 67.7638 73.2744 67.5564 73.304C67.359 73.3336 67.1764 73.3879 67.0085 73.4669C66.8506 73.5458 66.7223 73.6594 66.6235 73.8074C66.5248 73.9457 66.4755 74.1233 66.4755 74.3405C66.4755 74.765 66.6087 75.0612 66.8753 75.229C67.1418 75.387 67.5021 75.4659 67.9563 75.4659ZM67.8082 68.7876C68.4005 68.7876 68.899 68.8616 69.3038 69.0097C69.7085 69.1578 70.0294 69.3651 70.2663 69.6316C70.5131 69.8982 70.6858 70.2239 70.7846 70.6089C70.8932 70.9841 70.9475 71.3987 70.9475 71.8528V76.5469C70.671 76.6061 70.2515 76.6752 69.6888 76.7542C69.136 76.8431 68.5091 76.8875 67.8082 76.8875C67.3442 76.8875 66.9197 76.8431 66.5347 76.7542C66.1497 76.6654 65.819 76.5222 65.5426 76.3248C65.276 76.1274 65.0638 75.8707 64.9058 75.5548C64.7577 75.2389 64.6837 74.8489 64.6837 74.385C64.6837 73.9407 64.7676 73.5656 64.9354 73.2596C65.1131 72.9535 65.3501 72.7067 65.6462 72.5192C65.9424 72.3217 66.283 72.1835 66.668 72.1045C67.0628 72.0157 67.4725 71.9713 67.897 71.9713C68.0945 71.9713 68.3018 71.9861 68.519 72.0157C68.7361 72.0354 68.9681 72.0749 69.2149 72.1342V71.838C69.2149 71.6307 69.1902 71.4332 69.1409 71.2457C69.0915 71.0581 69.0027 70.8952 68.8743 70.757C68.7559 70.6089 68.593 70.4954 68.3857 70.4164C68.1882 70.3375 67.9365 70.298 67.6305 70.298C67.2159 70.298 66.8358 70.3276 66.4903 70.3868C66.1448 70.446 65.8634 70.5152 65.6462 70.5941L65.4241 69.1429C65.6512 69.064 65.9819 68.985 66.4162 68.906C66.8506 68.827 67.3146 68.7876 67.8082 68.7876ZM75.8367 76.8727C75.3036 76.8628 74.8594 76.8036 74.504 76.695C74.1585 76.5864 73.8821 76.4334 73.6748 76.2359C73.4675 76.0286 73.3194 75.7769 73.2305 75.4807C73.1516 75.1747 73.1121 74.8292 73.1121 74.4442V65.5298L74.9038 65.2337V74.1036C74.9038 74.3208 74.9186 74.5034 74.9483 74.6515C74.9877 74.7996 75.0519 74.9279 75.1408 75.0365C75.2296 75.1352 75.3481 75.2142 75.4962 75.2734C75.6541 75.3228 75.8515 75.3623 76.0885 75.3919L75.8367 76.8727ZM9.64668 94.7246C9.50847 94.3199 9.36533 93.92 9.21725 93.5252C9.06917 93.1303 8.92603 92.7255 8.78782 92.3109H4.4639C4.3257 92.7255 4.18255 93.1352 4.03447 93.54C3.89627 93.9349 3.75806 94.3297 3.61985 94.7246H1.68001C2.06502 93.6288 2.43028 92.6169 2.7758 91.689C3.12132 90.761 3.45696 89.8824 3.78274 89.0532C4.11838 88.2239 4.44909 87.4342 4.77487 86.6839C5.10064 85.9336 5.43629 85.1932 5.78181 84.4627H7.54395C7.88947 85.1932 8.22512 85.9336 8.55089 86.6839C8.87667 87.4342 9.20244 88.2239 9.52821 89.0532C9.86386 89.8824 10.2044 90.761 10.55 91.689C10.9054 92.6169 11.2756 93.6288 11.6606 94.7246H9.64668ZM6.62586 86.447C6.39881 86.9702 6.1372 87.6069 5.84104 88.3572C5.55475 89.1075 5.25366 89.9219 4.93776 90.8005H8.31396C7.99806 89.9219 7.69203 89.1025 7.39587 88.3424C7.09971 87.5823 6.84304 86.9504 6.62586 86.447ZM18.0071 90.8894C18.0071 90.0897 17.8245 89.4678 17.4592 89.0236C17.1039 88.5793 16.5263 88.3572 15.7267 88.3572C15.5589 88.3572 15.3812 88.3671 15.1936 88.3868C15.0159 88.3967 14.8382 88.4263 14.6606 88.4757V92.9032C14.8185 93.0118 15.0258 93.1155 15.2825 93.2142C15.549 93.303 15.8304 93.3475 16.1265 93.3475C16.7781 93.3475 17.2519 93.1254 17.5481 92.6811C17.8541 92.2369 18.0071 91.6396 18.0071 90.8894ZM19.8433 90.8597C19.8433 91.4521 19.7644 91.995 19.6064 92.4886C19.4583 92.9822 19.2411 93.4067 18.9549 93.7621C18.6686 94.1175 18.3082 94.3939 17.8739 94.5913C17.4494 94.7888 16.9657 94.8875 16.4227 94.8875C16.0574 94.8875 15.7218 94.8431 15.4158 94.7542C15.1097 94.6654 14.858 94.5667 14.6606 94.4581V97.4641H12.8688V87.2318C13.2341 87.1331 13.6832 87.0393 14.2163 86.9504C14.7494 86.8616 15.3121 86.8172 15.9044 86.8172C16.5165 86.8172 17.0644 86.911 17.5481 87.0985C18.0318 87.2861 18.4415 87.5576 18.7772 87.913C19.1227 88.2585 19.3843 88.683 19.562 89.1864C19.7495 89.68 19.8433 90.2378 19.8433 90.8597ZM26.8283 90.8894C26.8283 90.0897 26.6456 89.4678 26.2804 89.0236C25.925 88.5793 25.3475 88.3572 24.5479 88.3572C24.38 88.3572 24.2023 88.3671 24.0148 88.3868C23.8371 88.3967 23.6594 88.4263 23.4817 88.4757V92.9032C23.6396 93.0118 23.8469 93.1155 24.1036 93.2142C24.3702 93.303 24.6515 93.3475 24.9477 93.3475C25.5992 93.3475 26.0731 93.1254 26.3692 92.6811C26.6753 92.2369 26.8283 91.6396 26.8283 90.8894ZM28.6645 90.8597C28.6645 91.4521 28.5855 91.995 28.4275 92.4886C28.2794 92.9822 28.0623 93.4067 27.776 93.7621C27.4897 94.1175 27.1294 94.3939 26.695 94.5913C26.2705 94.7888 25.7868 94.8875 25.2438 94.8875C24.8786 94.8875 24.5429 94.8431 24.2369 94.7542C23.9309 94.6654 23.6791 94.5667 23.4817 94.4581V97.4641H21.6899V87.2318C22.0552 87.1331 22.5044 87.0393 23.0374 86.9504C23.5705 86.8616 24.1332 86.8172 24.7255 86.8172C25.3376 86.8172 25.8855 86.911 26.3692 87.0985C26.853 87.2861 27.2626 87.5576 27.5983 87.913C27.9438 88.2585 28.2054 88.683 28.3831 89.1864C28.5707 89.68 28.6645 90.2378 28.6645 90.8597ZM33.2061 94.8727C32.673 94.8628 32.2288 94.8036 31.8734 94.695C31.5279 94.5864 31.2514 94.4334 31.0441 94.2359C30.8368 94.0286 30.6887 93.7769 30.5999 93.4807C30.5209 93.1747 30.4814 92.8292 30.4814 92.4442V83.5298L32.2732 83.2337V92.1036C32.2732 92.3208 32.288 92.5034 32.3176 92.6515C32.3571 92.7996 32.4213 92.9279 32.5101 93.0365C32.599 93.1352 32.7174 93.2142 32.8655 93.2734C33.0235 93.3228 33.2209 93.3623 33.4578 93.3919L33.2061 94.8727ZM36.7137 94.7246H34.922V86.9801H36.7137V94.7246ZM36.9062 84.7144C36.9062 85.0501 36.7976 85.3166 36.5805 85.5141C36.3633 85.7115 36.1066 85.8102 35.8104 85.8102C35.5044 85.8102 35.2428 85.7115 35.0256 85.5141C34.8084 85.3166 34.6998 85.0501 34.6998 84.7144C34.6998 84.3689 34.8084 84.0975 35.0256 83.9C35.2428 83.7026 35.5044 83.6039 35.8104 83.6039C36.1066 83.6039 36.3633 83.7026 36.5805 83.9C36.7976 84.0975 36.9062 84.3689 36.9062 84.7144ZM38.5702 90.8597C38.5702 90.2872 38.659 89.7541 38.8367 89.2605C39.0144 88.757 39.2661 88.3226 39.5919 87.9574C39.9275 87.5921 40.3323 87.3058 40.8061 87.0985C41.28 86.8912 41.8131 86.7876 42.4054 86.7876C43.1359 86.7876 43.827 86.9208 44.4785 87.1874L44.0935 88.6534C43.8862 88.5645 43.6493 88.4905 43.3827 88.4312C43.1261 88.372 42.8496 88.3424 42.5535 88.3424C41.8526 88.3424 41.3195 88.5645 40.9542 89.0087C40.589 89.4431 40.4063 90.0601 40.4063 90.8597C40.4063 91.6298 40.5791 92.2418 40.9246 92.6959C41.2701 93.1402 41.8526 93.3623 42.6719 93.3623C42.978 93.3623 43.2791 93.3327 43.5752 93.2734C43.8714 93.2142 44.1281 93.1402 44.3452 93.0513L44.597 94.5321C44.3995 94.6308 44.0984 94.7197 43.6937 94.7986C43.2988 94.8776 42.8891 94.9171 42.4646 94.9171C41.8032 94.9171 41.2257 94.8184 40.7321 94.621C40.2484 94.4136 39.8436 94.1323 39.5179 93.7769C39.202 93.4116 38.965 92.9822 38.8071 92.4886C38.6491 91.9851 38.5702 91.4422 38.5702 90.8597ZM48.7088 93.4659C49.2617 93.4659 49.6812 93.4363 49.9675 93.3771V91.3928C49.8688 91.3632 49.7256 91.3336 49.5381 91.304C49.3505 91.2744 49.1432 91.2596 48.9161 91.2596C48.7187 91.2596 48.5163 91.2744 48.309 91.304C48.1116 91.3336 47.929 91.3879 47.7611 91.4669C47.6032 91.5458 47.4748 91.6594 47.3761 91.8074C47.2774 91.9457 47.228 92.1233 47.228 92.3405C47.228 92.765 47.3613 93.0612 47.6279 93.229C47.8944 93.387 48.2547 93.4659 48.7088 93.4659ZM48.5608 86.7876C49.1531 86.7876 49.6516 86.8616 50.0564 87.0097C50.4611 87.1578 50.7819 87.3651 51.0189 87.6316C51.2657 87.8982 51.4384 88.2239 51.5372 88.6089C51.6457 88.9841 51.7 89.3987 51.7 89.8528V94.5469C51.4236 94.6061 51.0041 94.6752 50.4414 94.7542C49.8885 94.8431 49.2617 94.8875 48.5608 94.8875C48.0968 94.8875 47.6723 94.8431 47.2873 94.7542C46.9023 94.6654 46.5716 94.5222 46.2951 94.3248C46.0286 94.1274 45.8164 93.8707 45.6584 93.5548C45.5103 93.2389 45.4363 92.8489 45.4363 92.385C45.4363 91.9407 45.5202 91.5656 45.688 91.2596C45.8657 90.9535 46.1026 90.7067 46.3988 90.5192C46.695 90.3217 47.0355 90.1835 47.4205 90.1045C47.8154 90.0157 48.2251 89.9713 48.6496 89.9713C48.847 89.9713 49.0544 89.9861 49.2715 90.0157C49.4887 90.0354 49.7207 90.0749 49.9675 90.1342V89.838C49.9675 89.6307 49.9428 89.4332 49.8935 89.2457C49.8441 89.0581 49.7553 88.8952 49.6269 88.757C49.5085 88.6089 49.3456 88.4954 49.1383 88.4164C48.9408 88.3375 48.6891 88.298 48.3831 88.298C47.9684 88.298 47.5884 88.3276 47.2429 88.3868C46.8973 88.446 46.616 88.5152 46.3988 88.5941L46.1767 87.1429C46.4037 87.064 46.7344 86.985 47.1688 86.906C47.6032 86.827 48.0672 86.7876 48.5608 86.7876ZM53.8054 84.9366L55.5972 84.6404V86.9801H58.3515V88.4757H55.5972V91.6298C55.5972 92.2517 55.6959 92.6959 55.8933 92.9625C56.0908 93.229 56.4264 93.3623 56.9003 93.3623C57.2261 93.3623 57.5123 93.3277 57.7591 93.2586C58.0158 93.1895 58.2182 93.1254 58.3663 93.0661L58.6624 94.4877C58.4551 94.5765 58.1836 94.6654 57.848 94.7542C57.5123 94.8529 57.1175 94.9023 56.6634 94.9023C56.1105 94.9023 55.6465 94.8283 55.2714 94.6802C54.9061 94.5321 54.6149 94.3199 54.3977 94.0434C54.1806 93.7572 54.0275 93.4166 53.9387 93.0217C53.8498 92.6169 53.8054 92.1579 53.8054 91.6446V84.9366ZM61.8901 94.7246H60.0983V86.9801H61.8901V94.7246ZM62.0826 84.7144C62.0826 85.0501 61.974 85.3166 61.7568 85.5141C61.5396 85.7115 61.283 85.8102 60.9868 85.8102C60.6808 85.8102 60.4192 85.7115 60.202 85.5141C59.9848 85.3166 59.8762 85.0501 59.8762 84.7144C59.8762 84.3689 59.9848 84.0975 60.202 83.9C60.4192 83.7026 60.6808 83.6039 60.9868 83.6039C61.283 83.6039 61.5396 83.7026 61.7568 83.9C61.974 84.0975 62.0826 84.3689 62.0826 84.7144ZM71.1801 90.8449C71.1801 91.457 71.0913 92.0148 70.9136 92.5182C70.7359 93.0217 70.4841 93.4511 70.1584 93.8065C69.8326 94.1619 69.4377 94.4383 68.9737 94.6358C68.5196 94.8332 68.0161 94.9319 67.4633 94.9319C66.9105 94.9319 66.407 94.8332 65.9529 94.6358C65.4988 94.4383 65.1089 94.1619 64.7831 93.8065C64.4573 93.4511 64.2006 93.0217 64.0131 92.5182C63.8354 92.0148 63.7465 91.457 63.7465 90.8449C63.7465 90.2329 63.8354 89.68 64.0131 89.1864C64.2006 88.683 64.4573 88.2535 64.7831 87.8982C65.1187 87.5428 65.5136 87.2713 65.9677 87.0837C66.4218 86.8863 66.9204 86.7876 67.4633 86.7876C68.0063 86.7876 68.5048 86.8863 68.9589 87.0837C69.4229 87.2713 69.8178 87.5428 70.1435 87.8982C70.4693 88.2535 70.7211 88.683 70.8988 89.1864C71.0863 89.68 71.1801 90.2329 71.1801 90.8449ZM69.3439 90.8449C69.3439 90.0749 69.1761 89.4678 68.8404 89.0236C68.5147 88.5694 68.0556 88.3424 67.4633 88.3424C66.871 88.3424 66.407 88.5694 66.0714 89.0236C65.7456 89.4678 65.5827 90.0749 65.5827 90.8449C65.5827 91.6248 65.7456 92.2418 66.0714 92.6959C66.407 93.15 66.871 93.3771 67.4633 93.3771C68.0556 93.3771 68.5147 93.15 68.8404 92.6959C69.1761 92.2418 69.3439 91.6248 69.3439 90.8449ZM73.026 87.2318C73.3715 87.1331 73.8207 87.0393 74.3735 86.9504C74.9263 86.8616 75.5384 86.8172 76.2097 86.8172C76.8415 86.8172 77.3697 86.906 77.7942 87.0837C78.2186 87.2515 78.5543 87.4934 78.8011 87.8093C79.0578 88.1153 79.2355 88.4905 79.3342 88.9347C79.4428 89.3691 79.4971 89.8479 79.4971 90.3711V94.7246H77.7053V90.6524C77.7053 90.2378 77.6757 89.8874 77.6165 89.6011C77.5671 89.3049 77.4782 89.068 77.3499 88.8903C77.2315 88.7027 77.0636 88.5694 76.8464 88.4905C76.6391 88.4016 76.3825 88.3572 76.0764 88.3572C75.8494 88.3572 75.6125 88.372 75.3657 88.4016C75.1189 88.4312 74.9362 88.4559 74.8178 88.4757V94.7246H73.026V87.2318ZM83.6279 93.4363C84.1018 93.4363 84.4473 93.382 84.6645 93.2734C84.8816 93.155 84.9902 92.9575 84.9902 92.6811C84.9902 92.4244 84.8718 92.2122 84.6348 92.0444C84.4078 91.8766 84.0277 91.6939 83.4946 91.4965C83.1689 91.378 82.8678 91.2546 82.5913 91.1263C82.3248 90.9881 82.0928 90.8301 81.8954 90.6524C81.6979 90.4747 81.54 90.2625 81.4215 90.0157C81.3129 89.759 81.2586 89.4481 81.2586 89.0828C81.2586 88.372 81.5202 87.8142 82.0435 87.4095C82.5667 86.9949 83.2774 86.7876 84.1758 86.7876C84.6299 86.7876 85.0643 86.832 85.4789 86.9208C85.8935 86.9998 86.2045 87.0788 86.4118 87.1578L86.086 88.6089C85.8886 88.5201 85.6368 88.4411 85.3308 88.372C85.0248 88.293 84.6694 88.2535 84.2646 88.2535C83.8994 88.2535 83.6032 88.3177 83.3762 88.446C83.1491 88.5645 83.0356 88.7521 83.0356 89.0087C83.0356 89.1371 83.0553 89.2506 83.0948 89.3493C83.1442 89.4481 83.2232 89.5418 83.3317 89.6307C83.4403 89.7097 83.5835 89.7936 83.7612 89.8824C83.9389 89.9614 84.1561 90.0453 84.4127 90.1342C84.8372 90.2921 85.1975 90.4501 85.4937 90.608C85.7899 90.7561 86.0317 90.9288 86.2193 91.1263C86.4167 91.3138 86.5599 91.531 86.6487 91.7778C86.7376 92.0246 86.782 92.3208 86.782 92.6663C86.782 93.4067 86.5056 93.9694 85.9527 94.3544C85.4098 94.7295 84.6299 94.9171 83.6131 94.9171C82.9319 94.9171 82.384 94.8579 81.9694 94.7394C81.5548 94.6308 81.2636 94.542 81.0957 94.4729L81.4067 92.9773C81.6733 93.0859 81.9892 93.1895 82.3544 93.2882C82.7296 93.387 83.154 93.4363 83.6279 93.4363Z" fill="white"/>
</svg>
