<svg width="107" height="98" viewBox="0 0 107 98" fill="none" xmlns="http://www.w3.org/2000/svg">
<path d="M71.0673 19.8456C70.4572 18.279 69.8556 16.7124 69.2111 15.0625H37.4664C36.7187 16.5208 35.8594 18.179 35 19.8456" stroke="white" stroke-width="1.74211" stroke-linecap="round" stroke-linejoin="round"/>
<path d="M58.3037 51.427C58.0717 46.3022 57.8396 41.1692 57.6076 36.0527H48V51.427" stroke="white" stroke-width="1.74211" stroke-linecap="round" stroke-linejoin="round"/>
<path d="M33 6.13086V20.4719H73.5703V26.4966C72.2126 26.4966 71.0696 26.4883 69.9181 26.4966C58.0417 26.6299 46.1654 26.7716 34.2804 26.9132" stroke="white" stroke-width="1.74211" stroke-linecap="round" stroke-linejoin="round"/>
<path d="M54.1484 6.13086C53.5726 14.7221 52.8937 23.3051 52.464 31.8963C52.1374 38.396 52.1461 44.9124 52 51.4288" stroke="white" stroke-width="1.74211" stroke-linecap="round" stroke-linejoin="round"/>
<path d="M52.0255 27.3281C52.0255 34.3945 52.0255 41.4608 52.0255 48.5188C52.0255 50.2937 51.5614 52.4186 54.5949 52.2603" stroke="white" stroke-width="1.74211" stroke-linecap="round" stroke-linejoin="round"/>
<path d="M56.339 5.71153C57.0093 4.59491 57.671 3.48664 58.7022 1.76172H49C49.1547 3.12832 49.2836 4.2366 49.4125 5.29488H55.9093" stroke="white" stroke-width="1.74211" stroke-linecap="round" stroke-linejoin="round"/>
<path d="M57.1553 51.4263V35.2188H49" stroke="white" stroke-width="1.74211" stroke-linecap="round" stroke-linejoin="round"/>
<path d="M28 52.2584C37.1608 52.2584 46.3215 52.3085 55.4737 52.2418C63.0619 52.1835 70.6414 51.9835 78.2295 51.8418" stroke="white" stroke-width="1.74211" stroke-linecap="round" stroke-linejoin="round"/>
<path d="M54.4824 20.2598C51.5864 21.368 51.4574 24.1096 52.9011 25.5345C55.9089 28.5011 54.9293 31.5759 54.4824 34.8091" stroke="white" stroke-width="1.74211" stroke-linecap="round" stroke-linejoin="round"/>
<path d="M50 41.8691H57.7256" stroke="white" stroke-width="1.74211" stroke-linecap="round" stroke-linejoin="round"/>
<path d="M55.2977 47.2793H51" stroke="white" stroke-width="1.74211" stroke-linecap="round" stroke-linejoin="round"/>
<path d="M55.2977 38.9609H51" stroke="white" stroke-width="1.74211" stroke-linecap="round" stroke-linejoin="round"/>
<path d="M55.4381 47.2793H52" stroke="white" stroke-width="1.74211" stroke-linecap="round" stroke-linejoin="round"/>
<path d="M55.4381 38.9609H52" stroke="white" stroke-width="1.74211" stroke-linecap="round" stroke-linejoin="round"/>
<path d="M14.9984 66.4627H16.8642V76.7246H14.9984V66.4627ZM19.2334 69.2318C19.5789 69.1331 20.028 69.0393 20.5809 68.9504C21.1337 68.8616 21.7458 68.8172 22.4171 68.8172C23.0489 68.8172 23.577 68.906 24.0015 69.0837C24.426 69.2515 24.7616 69.4934 25.0084 69.8093C25.2651 70.1153 25.4428 70.4905 25.5415 70.9347C25.6501 71.3691 25.7044 71.8479 25.7044 72.3711V76.7246H23.9127V72.6524C23.9127 72.2378 23.883 71.8874 23.8238 71.6011C23.7745 71.3049 23.6856 71.068 23.5573 70.8903C23.4388 70.7027 23.271 70.5694 23.0538 70.4905C22.8465 70.4016 22.5898 70.3572 22.2838 70.3572C22.0567 70.3572 21.8198 70.372 21.573 70.4016C21.3262 70.4312 21.1436 70.4559 21.0251 70.4757V76.7246H19.2334V69.2318ZM29.3022 72.8301C29.3022 73.6199 29.4897 74.2418 29.8649 74.6959C30.24 75.1402 30.7583 75.3623 31.4197 75.3623C31.706 75.3623 31.9479 75.3524 32.1453 75.3327C32.3526 75.303 32.5204 75.2734 32.6488 75.2438V70.8014C32.4908 70.6928 32.2786 70.5941 32.012 70.5053C31.7553 70.4066 31.4789 70.3572 31.1828 70.3572C30.5312 70.3572 30.0524 70.5793 29.7464 71.0236C29.4502 71.4678 29.3022 72.07 29.3022 72.8301ZM34.4405 76.4877C34.0851 76.5963 33.636 76.695 33.093 76.7838C32.5599 76.8727 31.9972 76.9171 31.4049 76.9171C30.7928 76.9171 30.2449 76.8233 29.7612 76.6358C29.2775 76.4482 28.8629 76.1817 28.5173 75.8361C28.1817 75.4807 27.9201 75.0562 27.7325 74.5627C27.5548 74.0592 27.466 73.4965 27.466 72.8745C27.466 72.2625 27.54 71.7097 27.6881 71.2161C27.8461 70.7126 28.0731 70.2832 28.3693 69.9278C28.6654 69.5724 29.0258 69.3009 29.4502 69.1133C29.8747 68.9159 30.3634 68.8172 30.9162 68.8172C31.2914 68.8172 31.6221 68.8616 31.9084 68.9504C32.1946 69.0393 32.4414 69.138 32.6488 69.2466V65.5298L34.4405 65.2337V76.4877ZM43.0691 76.4877C42.7236 76.5765 42.2745 76.6654 41.7216 76.7542C41.1688 76.8529 40.5617 76.9023 39.9002 76.9023C39.2783 76.9023 38.7551 76.8135 38.3306 76.6358C37.916 76.4581 37.5803 76.2113 37.3237 75.8954C37.0769 75.5795 36.8992 75.2043 36.7906 74.77C36.682 74.3257 36.6277 73.842 36.6277 73.3188V68.9801H38.4195V73.0374C38.4195 73.8667 38.5379 74.459 38.7748 74.8144C39.0216 75.1698 39.4461 75.3475 40.0483 75.3475C40.2655 75.3475 40.4926 75.3376 40.7295 75.3179C40.9763 75.2981 41.1589 75.2734 41.2774 75.2438V68.9801H43.0691V76.4877ZM47.2895 75.4363C47.7634 75.4363 48.1089 75.382 48.3261 75.2734C48.5433 75.155 48.6519 74.9575 48.6519 74.6811C48.6519 74.4244 48.5334 74.2122 48.2965 74.0444C48.0694 73.8766 47.6893 73.6939 47.1563 73.4965C46.8305 73.378 46.5294 73.2546 46.253 73.1263C45.9864 72.9881 45.7544 72.8301 45.557 72.6524C45.3596 72.4747 45.2016 72.2625 45.0831 72.0157C44.9745 71.759 44.9203 71.4481 44.9203 71.0828C44.9203 70.372 45.1819 69.8142 45.7051 69.4095C46.2283 68.9949 46.9391 68.7876 47.8374 68.7876C48.2915 68.7876 48.7259 68.832 49.1405 68.9208C49.5551 68.9998 49.8661 69.0788 50.0734 69.1578L49.7476 70.6089C49.5502 70.5201 49.2985 70.4411 48.9924 70.372C48.6864 70.293 48.331 70.2535 47.9263 70.2535C47.561 70.2535 47.2648 70.3177 47.0378 70.446C46.8107 70.5645 46.6972 70.7521 46.6972 71.0087C46.6972 71.1371 46.7169 71.2506 46.7564 71.3493C46.8058 71.4481 46.8848 71.5418 46.9934 71.6307C47.102 71.7097 47.2451 71.7936 47.4228 71.8824C47.6005 71.9614 47.8177 72.0453 48.0743 72.1342C48.4988 72.2921 48.8592 72.4501 49.1553 72.608C49.4515 72.7561 49.6933 72.9288 49.8809 73.1263C50.0783 73.3138 50.2215 73.531 50.3103 73.7778C50.3992 74.0246 50.4436 74.3208 50.4436 74.6663C50.4436 75.4067 50.1672 75.9694 49.6144 76.3544C49.0714 76.7295 48.2915 76.9171 47.2747 76.9171C46.5935 76.9171 46.0457 76.8579 45.631 76.7394C45.2164 76.6308 44.9252 76.542 44.7574 76.4729L45.0683 74.9773C45.3349 75.0859 45.6508 75.1895 46.016 75.2882C46.3912 75.387 46.8157 75.4363 47.2895 75.4363ZM52.0285 66.9366L53.8203 66.6404V68.9801H56.5746V70.4757H53.8203V73.6298C53.8203 74.2517 53.919 74.6959 54.1164 74.9625C54.3139 75.229 54.6495 75.3623 55.1234 75.3623C55.4492 75.3623 55.7354 75.3277 55.9822 75.2586C56.2389 75.1895 56.4413 75.1254 56.5894 75.0661L56.8855 76.4877C56.6782 76.5765 56.4067 76.6654 56.0711 76.7542C55.7354 76.8529 55.3406 76.9023 54.8865 76.9023C54.3336 76.9023 53.8696 76.8283 53.4945 76.6802C53.1292 76.5321 52.838 76.3199 52.6208 76.0434C52.4037 75.7572 52.2506 75.4166 52.1618 75.0217C52.0729 74.6169 52.0285 74.1579 52.0285 73.6446V66.9366ZM62.7194 70.5941C62.5713 70.5448 62.364 70.4954 62.0974 70.446C61.8408 70.3868 61.5397 70.3572 61.1942 70.3572C60.9967 70.3572 60.7845 70.3769 60.5574 70.4164C60.3402 70.4559 60.1872 70.4905 60.0984 70.5201V76.7246H58.3066V69.3503C58.6521 69.2219 59.0816 69.1035 59.5949 68.9949C60.1181 68.8764 60.6956 68.8172 61.3274 68.8172C61.4459 68.8172 61.5841 68.827 61.7421 68.8468C61.9 68.8567 62.058 68.8764 62.2159 68.906C62.3739 68.9258 62.5269 68.9554 62.675 68.9949C62.823 69.0245 62.9415 69.0541 63.0303 69.0837L62.7194 70.5941ZM66.0855 76.7246H64.2938V68.9801H66.0855V76.7246ZM66.278 66.7144C66.278 67.0501 66.1694 67.3166 65.9523 67.5141C65.7351 67.7115 65.4784 67.8102 65.1822 67.8102C64.8762 67.8102 64.6146 67.7115 64.3974 67.5141C64.1802 67.3166 64.0716 67.0501 64.0716 66.7144C64.0716 66.3689 64.1802 66.0975 64.3974 65.9C64.6146 65.7026 64.8762 65.6039 65.1822 65.6039C65.4784 65.6039 65.7351 65.7026 65.9523 65.9C66.1694 66.0975 66.278 66.3689 66.278 66.7144ZM71.096 75.4659C71.6489 75.4659 72.0684 75.4363 72.3547 75.3771V73.3928C72.256 73.3632 72.1129 73.3336 71.9253 73.304C71.7377 73.2744 71.5304 73.2596 71.3034 73.2596C71.1059 73.2596 70.9035 73.2744 70.6962 73.304C70.4988 73.3336 70.3162 73.3879 70.1483 73.4669C69.9904 73.5458 69.862 73.6594 69.7633 73.8074C69.6646 73.9457 69.6152 74.1233 69.6152 74.3405C69.6152 74.765 69.7485 75.0612 70.0151 75.229C70.2816 75.387 70.6419 75.4659 71.096 75.4659ZM70.948 68.7876C71.5403 68.7876 72.0388 68.8616 72.4436 69.0097C72.8483 69.1578 73.1692 69.3651 73.4061 69.6316C73.6529 69.8982 73.8256 70.2239 73.9244 70.6089C74.0329 70.9841 74.0872 71.3987 74.0872 71.8528V76.5469C73.8108 76.6061 73.3913 76.6752 72.8286 76.7542C72.2757 76.8431 71.6489 76.8875 70.948 76.8875C70.484 76.8875 70.0595 76.8431 69.6745 76.7542C69.2895 76.6654 68.9588 76.5222 68.6823 76.3248C68.4158 76.1274 68.2036 75.8707 68.0456 75.5548C67.8975 75.2389 67.8235 74.8489 67.8235 74.385C67.8235 73.9407 67.9074 73.5656 68.0752 73.2596C68.2529 72.9535 68.4898 72.7067 68.786 72.5192C69.0822 72.3217 69.4227 72.1835 69.8078 72.1045C70.2026 72.0157 70.6123 71.9713 71.0368 71.9713C71.2342 71.9713 71.4416 71.9861 71.6587 72.0157C71.8759 72.0354 72.1079 72.0749 72.3547 72.1342V71.838C72.3547 71.6307 72.33 71.4332 72.2807 71.2457C72.2313 71.0581 72.1425 70.8952 72.0141 70.757C71.8957 70.6089 71.7328 70.4954 71.5255 70.4164C71.328 70.3375 71.0763 70.298 70.7703 70.298C70.3556 70.298 69.9756 70.3276 69.6301 70.3868C69.2845 70.446 69.0032 70.5152 68.786 70.5941L68.5639 69.1429C68.7909 69.064 69.1216 68.985 69.556 68.906C69.9904 68.827 70.4544 68.7876 70.948 68.7876ZM78.9765 76.8727C78.4434 76.8628 77.9992 76.8036 77.6438 76.695C77.2983 76.5864 77.0219 76.4334 76.8146 76.2359C76.6073 76.0286 76.4592 75.7769 76.3703 75.4807C76.2913 75.1747 76.2519 74.8292 76.2519 74.4442V65.5298L78.0436 65.2337V74.1036C78.0436 74.3208 78.0584 74.5034 78.088 74.6515C78.1275 74.7996 78.1917 74.9279 78.2805 75.0365C78.3694 75.1352 78.4879 75.2142 78.6359 75.2734C78.7939 75.3228 78.9913 75.3623 79.2283 75.3919L78.9765 76.8727ZM83.6303 74C83.6303 73.6248 83.6846 73.2842 83.7931 72.9782C83.9116 72.6722 84.0646 72.3958 84.2522 72.149C84.4496 71.9022 84.6717 71.685 84.9185 71.4974C85.1752 71.3098 85.4418 71.142 85.7182 70.9939C85.422 70.678 85.1802 70.3424 84.9926 69.987C84.8149 69.6316 84.726 69.2565 84.726 68.8616C84.726 68.0324 84.9778 67.3857 85.4812 66.9218C85.9946 66.4578 86.6659 66.2258 87.4951 66.2258C87.9196 66.2258 88.2948 66.285 88.6205 66.4035C88.9562 66.5219 89.2326 66.6848 89.4498 66.8921C89.667 67.0995 89.8298 67.3463 89.9384 67.6325C90.0569 67.909 90.1161 68.2051 90.1161 68.521C90.1161 68.8369 90.0618 69.1331 89.9532 69.4095C89.8545 69.6859 89.7163 69.9426 89.5386 70.1795C89.3609 70.4066 89.1536 70.6188 88.9167 70.8162C88.6896 71.0038 88.4428 71.1716 88.1763 71.3197L90.205 73.3632C90.3432 73.1065 90.4567 72.8203 90.5456 72.5043C90.6344 72.1786 90.7035 71.8627 90.7529 71.5566L92.2485 71.7491C92.1991 72.144 92.0955 72.5833 91.9375 73.0671C91.7796 73.5409 91.5722 73.995 91.3156 74.4294C91.6413 74.7946 91.9523 75.1747 92.2485 75.5696C92.5545 75.9546 92.8062 76.3396 93.0037 76.7246H91.1379C91.0392 76.5568 90.9108 76.3742 90.7529 76.1767C90.6048 75.9793 90.4468 75.7966 90.279 75.6288C89.8743 75.9941 89.4103 76.2902 88.8871 76.5173C88.3639 76.7444 87.7715 76.8579 87.1101 76.8579C86.4487 76.8579 85.8959 76.769 85.4516 76.5913C85.0074 76.4136 84.6471 76.1866 84.3707 75.9102C84.1041 75.6338 83.9116 75.3277 83.7931 74.9921C83.6846 74.6564 83.6303 74.3257 83.6303 74ZM85.348 73.8815C85.348 74.0493 85.3776 74.2221 85.4368 74.3998C85.5059 74.5775 85.6096 74.7453 85.7478 74.9032C85.8959 75.0513 86.0834 75.1747 86.3105 75.2734C86.5474 75.3722 86.8288 75.4215 87.1545 75.4215C87.5988 75.4215 87.9986 75.3524 88.354 75.2142C88.7192 75.076 89.0302 74.8786 89.2869 74.6219L86.6807 71.9713C86.5326 72.0502 86.3796 72.144 86.2216 72.2526C86.0637 72.3612 85.9205 72.4945 85.7922 72.6524C85.6639 72.8005 85.5553 72.9782 85.4664 73.1855C85.3875 73.383 85.348 73.6149 85.348 73.8815ZM88.5613 68.5951C88.5613 68.3088 88.4675 68.0669 88.2799 67.8695C88.0924 67.6622 87.8209 67.5585 87.4655 67.5585C87.0904 67.5585 86.8041 67.672 86.6066 67.8991C86.4092 68.1261 86.3105 68.4124 86.3105 68.7579C86.3105 69.0442 86.3895 69.3305 86.5474 69.6168C86.7054 69.8932 86.9226 70.1598 87.199 70.4164C87.3865 70.3177 87.5593 70.2091 87.7172 70.0907C87.8851 69.9722 88.0282 69.8389 88.1467 69.6908C88.275 69.5428 88.3737 69.3799 88.4428 69.2022C88.5218 69.0245 88.5613 68.8221 88.5613 68.5951ZM10.3795 84.4627V86.0768H7.2254V94.7246H5.34479V86.0768H2.1907V84.4627H10.3795ZM15.5914 88.5941C15.4433 88.5448 15.236 88.4954 14.9695 88.446C14.7128 88.3868 14.4117 88.3572 14.0662 88.3572C13.8688 88.3572 13.6565 88.3769 13.4295 88.4164C13.2123 88.4559 13.0593 88.4905 12.9704 88.5201V94.7246H11.1787V87.3503C11.5242 87.2219 11.9536 87.1035 12.4669 86.9949C12.9902 86.8764 13.5677 86.8172 14.1995 86.8172C14.3179 86.8172 14.4561 86.827 14.6141 86.8468C14.772 86.8567 14.93 86.8764 15.0879 86.906C15.2459 86.9258 15.3989 86.9554 15.547 86.9949C15.6951 87.0245 15.8135 87.0541 15.9024 87.0837L15.5914 88.5941ZM19.8756 93.4659C20.4285 93.4659 20.848 93.4363 21.1343 93.3771V91.3928C21.0356 91.3632 20.8925 91.3336 20.7049 91.304C20.5173 91.2744 20.31 91.2596 20.083 91.2596C19.8855 91.2596 19.6831 91.2744 19.4758 91.304C19.2784 91.3336 19.0958 91.3879 18.9279 91.4669C18.77 91.5458 18.6417 91.6594 18.5429 91.8074C18.4442 91.9457 18.3949 92.1233 18.3949 92.3405C18.3949 92.765 18.5281 93.0612 18.7947 93.229C19.0612 93.387 19.4215 93.4659 19.8756 93.4659ZM19.7276 86.7876C20.3199 86.7876 20.8184 86.8616 21.2232 87.0097C21.6279 87.1578 21.9488 87.3651 22.1857 87.6316C22.4325 87.8982 22.6052 88.2239 22.704 88.6089C22.8126 88.9841 22.8669 89.3987 22.8669 89.8528V94.5469C22.5904 94.6061 22.1709 94.6752 21.6082 94.7542C21.0553 94.8431 20.4285 94.8875 19.7276 94.8875C19.2636 94.8875 18.8391 94.8431 18.4541 94.7542C18.0691 94.6654 17.7384 94.5222 17.462 94.3248C17.1954 94.1274 16.9832 93.8707 16.8252 93.5548C16.6771 93.2389 16.6031 92.8489 16.6031 92.385C16.6031 91.9407 16.687 91.5656 16.8548 91.2596C17.0325 90.9535 17.2695 90.7067 17.5656 90.5192C17.8618 90.3217 18.2024 90.1835 18.5874 90.1045C18.9822 90.0157 19.3919 89.9713 19.8164 89.9713C20.0139 89.9713 20.2212 89.9861 20.4384 90.0157C20.6555 90.0354 20.8875 90.0749 21.1343 90.1342V89.838C21.1343 89.6307 21.1096 89.4332 21.0603 89.2457C21.0109 89.0581 20.9221 88.8952 20.7937 88.757C20.6753 88.6089 20.5124 88.4954 20.3051 88.4164C20.1076 88.3375 19.8559 88.298 19.5499 88.298C19.1353 88.298 18.7552 88.3276 18.4097 88.3868C18.0641 88.446 17.7828 88.5152 17.5656 88.5941L17.3435 87.1429C17.5705 87.064 17.9013 86.985 18.3356 86.906C18.77 86.827 19.234 86.7876 19.7276 86.7876ZM25.0611 87.2318C25.4066 87.1331 25.8558 87.0393 26.4086 86.9504C26.9614 86.8616 27.5735 86.8172 28.2448 86.8172C28.8766 86.8172 29.4047 86.906 29.8292 87.0837C30.2537 87.2515 30.5894 87.4934 30.8362 87.8093C31.0928 88.1153 31.2705 88.4905 31.3693 88.9347C31.4779 89.3691 31.5322 89.8479 31.5322 90.3711V94.7246H29.7404V90.6524C29.7404 90.2378 29.7108 89.8874 29.6515 89.6011C29.6022 89.3049 29.5133 89.068 29.385 88.8903C29.2665 88.7027 29.0987 88.5694 28.8815 88.4905C28.6742 88.4016 28.4176 88.3572 28.1115 88.3572C27.8845 88.3572 27.6475 88.372 27.4007 88.4016C27.1539 88.4312 26.9713 88.4559 26.8528 88.4757V94.7246H25.0611V87.2318ZM35.663 93.4363C36.1368 93.4363 36.4824 93.382 36.6995 93.2734C36.9167 93.155 37.0253 92.9575 37.0253 92.6811C37.0253 92.4244 36.9069 92.2122 36.6699 92.0444C36.4429 91.8766 36.0628 91.6939 35.5297 91.4965C35.2039 91.378 34.9028 91.2546 34.6264 91.1263C34.3599 90.9881 34.1279 90.8301 33.9305 90.6524C33.733 90.4747 33.5751 90.2625 33.4566 90.0157C33.348 89.759 33.2937 89.4481 33.2937 89.0828C33.2937 88.372 33.5553 87.8142 34.0785 87.4095C34.6017 86.9949 35.3125 86.7876 36.2109 86.7876C36.665 86.7876 37.0994 86.832 37.514 86.9208C37.9286 86.9998 38.2396 87.0788 38.4469 87.1578L38.1211 88.6089C37.9237 88.5201 37.6719 88.4411 37.3659 88.372C37.0599 88.293 36.7045 88.2535 36.2997 88.2535C35.9345 88.2535 35.6383 88.3177 35.4112 88.446C35.1842 88.5645 35.0707 88.7521 35.0707 89.0087C35.0707 89.1371 35.0904 89.2506 35.1299 89.3493C35.1793 89.4481 35.2582 89.5418 35.3668 89.6307C35.4754 89.7097 35.6186 89.7936 35.7963 89.8824C35.974 89.9614 36.1911 90.0453 36.4478 90.1342C36.8723 90.2921 37.2326 90.4501 37.5288 90.608C37.8249 90.7561 38.0668 90.9288 38.2544 91.1263C38.4518 91.3138 38.595 91.531 38.6838 91.7778C38.7727 92.0246 38.8171 92.3208 38.8171 92.6663C38.8171 93.4067 38.5407 93.9694 37.9878 94.3544C37.4449 94.7295 36.665 94.9171 35.6482 94.9171C34.967 94.9171 34.4191 94.8579 34.0045 94.7394C33.5899 94.6308 33.2987 94.542 33.1308 94.4729L33.4418 92.9773C33.7083 93.0859 34.0242 93.1895 34.3895 93.2882C34.7646 93.387 35.1891 93.4363 35.663 93.4363ZM45.6292 90.8894C45.6292 90.0897 45.4466 89.4678 45.0813 89.0236C44.7259 88.5793 44.1484 88.3572 43.3488 88.3572C43.1809 88.3572 43.0032 88.3671 42.8157 88.3868C42.638 88.3967 42.4603 88.4263 42.2826 88.4757V92.9032C42.4405 93.0118 42.6479 93.1155 42.9045 93.2142C43.1711 93.303 43.4524 93.3475 43.7486 93.3475C44.4001 93.3475 44.874 93.1254 45.1701 92.6811C45.4762 92.2369 45.6292 91.6396 45.6292 90.8894ZM47.4654 90.8597C47.4654 91.4521 47.3864 91.995 47.2284 92.4886C47.0804 92.9822 46.8632 93.4067 46.5769 93.7621C46.2906 94.1175 45.9303 94.3939 45.4959 94.5913C45.0714 94.7888 44.5877 94.8875 44.0447 94.8875C43.6795 94.8875 43.3438 94.8431 43.0378 94.7542C42.7318 94.6654 42.48 94.5667 42.2826 94.4581V97.4641H40.4908V87.2318C40.8561 87.1331 41.3053 87.0393 41.8384 86.9504C42.3714 86.8616 42.9341 86.8172 43.5265 86.8172C44.1385 86.8172 44.6864 86.911 45.1701 87.0985C45.6539 87.2861 46.0636 87.5576 46.3992 87.913C46.7447 88.2585 47.0063 88.683 47.184 89.1864C47.3716 89.68 47.4654 90.2378 47.4654 90.8597ZM56.3161 90.8449C56.3161 91.457 56.2273 92.0148 56.0496 92.5182C55.8719 93.0217 55.6201 93.4511 55.2944 93.8065C54.9686 94.1619 54.5737 94.4383 54.1097 94.6358C53.6556 94.8332 53.1522 94.9319 52.5993 94.9319C52.0465 94.9319 51.543 94.8332 51.0889 94.6358C50.6348 94.4383 50.2449 94.1619 49.9191 93.8065C49.5933 93.4511 49.3366 93.0217 49.1491 92.5182C48.9714 92.0148 48.8825 91.457 48.8825 90.8449C48.8825 90.2329 48.9714 89.68 49.1491 89.1864C49.3366 88.683 49.5933 88.2535 49.9191 87.8982C50.2547 87.5428 50.6496 87.2713 51.1037 87.0837C51.5578 86.8863 52.0564 86.7876 52.5993 86.7876C53.1423 86.7876 53.6408 86.8863 54.0949 87.0837C54.5589 87.2713 54.9538 87.5428 55.2796 87.8982C55.6053 88.2535 55.8571 88.683 56.0348 89.1864C56.2223 89.68 56.3161 90.2329 56.3161 90.8449ZM54.4799 90.8449C54.4799 90.0749 54.3121 89.4678 53.9765 89.0236C53.6507 88.5694 53.1916 88.3424 52.5993 88.3424C52.007 88.3424 51.543 88.5694 51.2074 89.0236C50.8816 89.4678 50.7187 90.0749 50.7187 90.8449C50.7187 91.6248 50.8816 92.2418 51.2074 92.6959C51.543 93.15 52.007 93.3771 52.5993 93.3771C53.1916 93.3771 53.6507 93.15 53.9765 92.6959C54.3121 92.2418 54.4799 91.6248 54.4799 90.8449ZM62.5748 88.5941C62.4267 88.5448 62.2194 88.4954 61.9528 88.446C61.6962 88.3868 61.3951 88.3572 61.0496 88.3572C60.8521 88.3572 60.6399 88.3769 60.4128 88.4164C60.1956 88.4559 60.0426 88.4905 59.9538 88.5201V94.7246H58.162V87.3503C58.5075 87.2219 58.937 87.1035 59.4503 86.9949C59.9735 86.8764 60.551 86.8172 61.1828 86.8172C61.3013 86.8172 61.4395 86.827 61.5975 86.8468C61.7554 86.8567 61.9134 86.8764 62.0713 86.906C62.2293 86.9258 62.3823 86.9554 62.5304 86.9949C62.6784 87.0245 62.7969 87.0541 62.8857 87.0837L62.5748 88.5941ZM64.0455 84.9366L65.8373 84.6404V86.9801H68.5915V88.4757H65.8373V91.6298C65.8373 92.2517 65.936 92.6959 66.1334 92.9625C66.3309 93.229 66.6665 93.3623 67.1404 93.3623C67.4661 93.3623 67.7524 93.3277 67.9992 93.2586C68.2559 93.1895 68.4583 93.1254 68.6063 93.0661L68.9025 94.4877C68.6952 94.5765 68.4237 94.6654 68.0881 94.7542C67.7524 94.8529 67.3575 94.9023 66.9034 94.9023C66.3506 94.9023 65.8866 94.8283 65.5115 94.6802C65.1462 94.5321 64.855 94.3199 64.6378 94.0434C64.4206 93.7572 64.2676 93.4166 64.1788 93.0217C64.0899 92.6169 64.0455 92.1579 64.0455 91.6446V84.9366ZM73.0483 93.4659C73.6011 93.4659 74.0207 93.4363 74.3069 93.3771V91.3928C74.2082 91.3632 74.0651 91.3336 73.8775 91.304C73.6899 91.2744 73.4826 91.2596 73.2556 91.2596C73.0581 91.2596 72.8558 91.2744 72.6485 91.304C72.451 91.3336 72.2684 91.3879 72.1006 91.4669C71.9426 91.5458 71.8143 91.6594 71.7156 91.8074C71.6168 91.9457 71.5675 92.1233 71.5675 92.3405C71.5675 92.765 71.7007 93.0612 71.9673 93.229C72.2338 93.387 72.5942 93.4659 73.0483 93.4659ZM72.9002 86.7876C73.4925 86.7876 73.991 86.8616 74.3958 87.0097C74.8005 87.1578 75.1214 87.3651 75.3583 87.6316C75.6051 87.8982 75.7779 88.2239 75.8766 88.6089C75.9852 88.9841 76.0395 89.3987 76.0395 89.8528V94.5469C75.7631 94.6061 75.3435 94.6752 74.7808 94.7542C74.228 94.8431 73.6011 94.8875 72.9002 94.8875C72.4362 94.8875 72.0117 94.8431 71.6267 94.7542C71.2417 94.6654 70.911 94.5222 70.6346 94.3248C70.368 94.1274 70.1558 93.8707 69.9978 93.5548C69.8498 93.2389 69.7757 92.8489 69.7757 92.385C69.7757 91.9407 69.8596 91.5656 70.0274 91.2596C70.2051 90.9535 70.4421 90.7067 70.7382 90.5192C71.0344 90.3217 71.375 90.1835 71.76 90.1045C72.1549 90.0157 72.5645 89.9713 72.989 89.9713C73.1865 89.9713 73.3938 89.9861 73.611 90.0157C73.8281 90.0354 74.0601 90.0749 74.3069 90.1342V89.838C74.3069 89.6307 74.2823 89.4332 74.2329 89.2457C74.1835 89.0581 74.0947 88.8952 73.9664 88.757C73.8479 88.6089 73.685 88.4954 73.4777 88.4164C73.2803 88.3375 73.0285 88.298 72.7225 88.298C72.3079 88.298 71.9278 88.3276 71.5823 88.3868C71.2368 88.446 70.9554 88.5152 70.7382 88.5941L70.5161 87.1429C70.7432 87.064 71.0739 86.985 71.5082 86.906C71.9426 86.827 72.4066 86.7876 72.9002 86.7876ZM78.1449 84.9366L79.9366 84.6404V86.9801H82.6909V88.4757H79.9366V91.6298C79.9366 92.2517 80.0353 92.6959 80.2328 92.9625C80.4302 93.229 80.7659 93.3623 81.2397 93.3623C81.5655 93.3623 81.8518 93.3277 82.0986 93.2586C82.3552 93.1895 82.5576 93.1254 82.7057 93.0661L83.0019 94.4877C82.7945 94.5765 82.5231 94.6654 82.1874 94.7542C81.8518 94.8529 81.4569 94.9023 81.0028 94.9023C80.45 94.9023 79.986 94.8283 79.6108 94.6802C79.2456 94.5321 78.9544 94.3199 78.7372 94.0434C78.52 93.7572 78.367 93.4166 78.2781 93.0217C78.1893 92.6169 78.1449 92.1579 78.1449 91.6446V84.9366ZM86.2295 94.7246H84.4378V86.9801H86.2295V94.7246ZM86.422 84.7144C86.422 85.0501 86.3134 85.3166 86.0962 85.5141C85.8791 85.7115 85.6224 85.8102 85.3262 85.8102C85.0202 85.8102 84.7586 85.7115 84.5414 85.5141C84.3242 85.3166 84.2156 85.0501 84.2156 84.7144C84.2156 84.3689 84.3242 84.0975 84.5414 83.9C84.7586 83.7026 85.0202 83.6039 85.3262 83.6039C85.6224 83.6039 85.8791 83.7026 86.0962 83.9C86.3134 84.0975 86.422 84.3689 86.422 84.7144ZM95.5195 90.8449C95.5195 91.457 95.4307 92.0148 95.253 92.5182C95.0753 93.0217 94.8236 93.4511 94.4978 93.8065C94.172 94.1619 93.7771 94.4383 93.3131 94.6358C92.859 94.8332 92.3556 94.9319 91.8027 94.9319C91.2499 94.9319 90.7464 94.8332 90.2923 94.6358C89.8382 94.4383 89.4483 94.1619 89.1225 93.8065C88.7967 93.4511 88.5401 93.0217 88.3525 92.5182C88.1748 92.0148 88.0859 91.457 88.0859 90.8449C88.0859 90.2329 88.1748 89.68 88.3525 89.1864C88.5401 88.683 88.7967 88.2535 89.1225 87.8982C89.4582 87.5428 89.853 87.2713 90.3071 87.0837C90.7612 86.8863 91.2598 86.7876 91.8027 86.7876C92.3457 86.7876 92.8442 86.8863 93.2983 87.0837C93.7623 87.2713 94.1572 87.5428 94.483 87.8982C94.8087 88.2535 95.0605 88.683 95.2382 89.1864C95.4257 89.68 95.5195 90.2329 95.5195 90.8449ZM93.6833 90.8449C93.6833 90.0749 93.5155 89.4678 93.1799 89.0236C92.8541 88.5694 92.3951 88.3424 91.8027 88.3424C91.2104 88.3424 90.7464 88.5694 90.4108 89.0236C90.085 89.4678 89.9221 90.0749 89.9221 90.8449C89.9221 91.6248 90.085 92.2418 90.4108 92.6959C90.7464 93.15 91.2104 93.3771 91.8027 93.3771C92.3951 93.3771 92.8541 93.15 93.1799 92.6959C93.5155 92.2418 93.6833 91.6248 93.6833 90.8449ZM97.3654 87.2318C97.7109 87.1331 98.1601 87.0393 98.713 86.9504C99.2658 86.8616 99.8778 86.8172 100.549 86.8172C101.181 86.8172 101.709 86.906 102.134 87.0837C102.558 87.2515 102.894 87.4934 103.141 87.8093C103.397 88.1153 103.575 88.4905 103.674 88.9347C103.782 89.3691 103.836 89.8479 103.836 90.3711V94.7246H102.045V90.6524C102.045 90.2378 102.015 89.8874 101.956 89.6011C101.907 89.3049 101.818 89.068 101.689 88.8903C101.571 88.7027 101.403 88.5694 101.186 88.4905C100.979 88.4016 100.722 88.3572 100.416 88.3572C100.189 88.3572 99.9519 88.372 99.7051 88.4016C99.4583 88.4312 99.2757 88.4559 99.1572 88.4757V94.7246H97.3654V87.2318Z" fill="white"/>
</svg>
