<svg width="56" height="89" viewBox="0 0 56 89" fill="none" xmlns="http://www.w3.org/2000/svg">
<path d="M10.9461 84.0781V73.8162H17.4319V75.4007H12.8119V78.0217H16.9137V79.6061H12.8119V84.0781H10.9461ZM25.8438 80.1984C25.8438 80.8105 25.7549 81.3683 25.5772 81.8717C25.3995 82.3752 25.1478 82.8046 24.822 83.16C24.4962 83.5154 24.1014 83.7918 23.6374 83.9893C23.1833 84.1867 22.6798 84.2854 22.127 84.2854C21.5742 84.2854 21.0707 84.1867 20.6166 83.9893C20.1625 83.7918 19.7725 83.5154 19.4467 83.16C19.121 82.8046 18.8643 82.3752 18.6767 81.8717C18.499 81.3683 18.4102 80.8105 18.4102 80.1984C18.4102 79.5864 18.499 79.0336 18.6767 78.54C18.8643 78.0365 19.121 77.6071 19.4467 77.2517C19.7824 76.8963 20.1773 76.6248 20.6314 76.4372C21.0855 76.2398 21.584 76.1411 22.127 76.1411C22.6699 76.1411 23.1685 76.2398 23.6226 76.4372C24.0866 76.6248 24.4814 76.8963 24.8072 77.2517C25.133 77.6071 25.3847 78.0365 25.5624 78.54C25.75 79.0336 25.8438 79.5864 25.8438 80.1984ZM24.0076 80.1984C24.0076 79.4284 23.8398 78.8213 23.5041 78.3771C23.1783 77.923 22.7193 77.6959 22.127 77.6959C21.5347 77.6959 21.0707 77.923 20.735 78.3771C20.4093 78.8213 20.2464 79.4284 20.2464 80.1984C20.2464 80.9783 20.4093 81.5953 20.735 82.0494C21.0707 82.5035 21.5347 82.7306 22.127 82.7306C22.7193 82.7306 23.1783 82.5035 23.5041 82.0494C23.8398 81.5953 24.0076 80.9783 24.0076 80.1984ZM34.6938 80.1984C34.6938 80.8105 34.605 81.3683 34.4273 81.8717C34.2496 82.3752 33.9978 82.8046 33.6721 83.16C33.3463 83.5154 32.9514 83.7918 32.4874 83.9893C32.0333 84.1867 31.5299 84.2854 30.977 84.2854C30.4242 84.2854 29.9207 84.1867 29.4666 83.9893C29.0125 83.7918 28.6226 83.5154 28.2968 83.16C27.971 82.8046 27.7144 82.3752 27.5268 81.8717C27.3491 81.3683 27.2602 80.8105 27.2602 80.1984C27.2602 79.5864 27.3491 79.0336 27.5268 78.54C27.7144 78.0365 27.971 77.6071 28.2968 77.2517C28.6324 76.8963 29.0273 76.6248 29.4814 76.4372C29.9355 76.2398 30.4341 76.1411 30.977 76.1411C31.52 76.1411 32.0185 76.2398 32.4726 76.4372C32.9366 76.6248 33.3315 76.8963 33.6573 77.2517C33.983 77.6071 34.2348 78.0365 34.4125 78.54C34.6 79.0336 34.6938 79.5864 34.6938 80.1984ZM32.8576 80.1984C32.8576 79.4284 32.6898 78.8213 32.3542 78.3771C32.0284 77.923 31.5693 77.6959 30.977 77.6959C30.3847 77.6959 29.9207 77.923 29.5851 78.3771C29.2593 78.8213 29.0964 79.4284 29.0964 80.1984C29.0964 80.9783 29.2593 81.5953 29.5851 82.0494C29.9207 82.5035 30.3847 82.7306 30.977 82.7306C31.5693 82.7306 32.0284 82.5035 32.3542 82.0494C32.6898 81.5953 32.8576 80.9783 32.8576 80.1984ZM37.9465 80.1836C37.9465 80.9734 38.134 81.5953 38.5092 82.0494C38.8843 82.4937 39.4026 82.7158 40.064 82.7158C40.3503 82.7158 40.5922 82.7059 40.7896 82.6862C40.9969 82.6566 41.1647 82.6269 41.2931 82.5973V78.155C41.1351 78.0464 40.9229 77.9476 40.6563 77.8588C40.3997 77.7601 40.1232 77.7107 39.8271 77.7107C39.1755 77.7107 38.6967 77.9328 38.3907 78.3771C38.0946 78.8213 37.9465 79.4235 37.9465 80.1836ZM43.0848 83.8412C42.7294 83.9498 42.2803 84.0485 41.7373 84.1374C41.2042 84.2262 40.6415 84.2706 40.0492 84.2706C39.4371 84.2706 38.8892 84.1768 38.4055 83.9893C37.9218 83.8017 37.5072 83.5352 37.1617 83.1896C36.826 82.8343 36.5644 82.4098 36.3768 81.9162C36.1991 81.4127 36.1103 80.85 36.1103 80.2281C36.1103 79.616 36.1843 79.0632 36.3324 78.5696C36.4904 78.0661 36.7174 77.6367 37.0136 77.2813C37.3097 76.9259 37.6701 76.6544 38.0946 76.4668C38.519 76.2694 39.0077 76.1707 39.5605 76.1707C39.9357 76.1707 40.2664 76.2151 40.5527 76.304C40.839 76.3928 41.0858 76.4915 41.2931 76.6001V72.8833L43.0848 72.5872V83.8412Z" fill="white"/>
<path d="M9.95758 4.33487C8.78992 3.42908 7.62226 2.532 6.54442 1.70459C2.54745 1.8091 1.05644 4.20423 1.02949 7.3745C0.912728 19.8292 0.867813 32.2751 1.03847 44.7298C1.10134 49.311 3.42768 51.2097 8.16118 51.2271C20.4306 51.2793 32.6909 51.2009 44.9603 51.2706C48.8944 51.288 51.8226 50.2081 52.613 44.0765C39.2208 31.6045 24.8227 18.1831 10.4157 4.77035" stroke="white" stroke-width="1.74211" stroke-linecap="round" stroke-linejoin="round"/>
<path d="M52.136 37.7796C52.8815 36.7693 53.636 35.7503 54.9743 33.9387C52.127 32.5626 49.4414 31.2649 46.5402 29.8626C46.1719 26.7185 45.6779 23.5743 40.9175 23.7137C40.0552 23.7398 38.6451 21.6756 38.3307 20.3866C37.7109 17.8347 36.4624 16.2757 33.7409 16.0841C31.4505 15.9186 30.7319 14.6558 29.9954 12.6438C29.4206 11.0761 27.6421 9.20358 26.0703 8.85519C23.4565 8.28036 22.6661 7.00006 22.0104 4.78784C20.7889 0.633381 19.2171 0.311128 15.3458 3.03722" stroke="white" stroke-width="1.74211" stroke-linecap="round" stroke-linejoin="round"/>
<path d="M10.405 3.90033C11.0068 3.46486 11.5457 2.90744 12.2194 2.63745C12.7314 2.42842 13.396 2.5939 14.4469 2.5939C26.4109 14.1776 38.6354 25.9442 50.7161 37.8501C51.4616 38.5818 51.0934 40.3846 51.246 41.6824" stroke="white" stroke-width="1.74211" stroke-linecap="round" stroke-linejoin="round"/>
</svg>
