<svg width="99" height="87" viewBox="0 0 99 87" fill="none" xmlns="http://www.w3.org/2000/svg">
<path d="M41.0145 22.1776C41.7324 19.8665 42.0698 17.3188 43.326 15.328C43.9649 14.3187 46.2549 14.0124 47.8342 13.908C50.9282 13.6992 54.0581 13.9915 57.1521 13.8105C60.8061 13.5947 63.0888 14.7642 63.5626 18.0219C64.6681 25.5258 65.5153 33.0575 66.4844 40.5822C66.6926 42.2041 67.0658 43.8191 67.1735 45.441C67.4104 49.005 66.5059 49.9377 62.895 49.9447C55.7236 49.9656 48.5521 49.9447 41.3735 49.9447" stroke="white" stroke-width="1.74211" stroke-linecap="round" stroke-linejoin="round"/>
<path d="M42.8101 41.9673H66.1191" stroke="white" stroke-width="1.74211" stroke-linecap="round" stroke-linejoin="round"/>
<path d="M39.9331 47.869C42.2374 44.7297 41.9934 41.0195 42.46 37.4555C43.063 32.8404 43.7593 28.2323 44.4987 23.0464H29C30.1773 31.4273 31.3115 39.5159 32.4816 47.869H40.6222C40.7945 49.2125 40.9237 50.2497 41.0888 51.5166H32.4601C32.6754 50.3402 32.898 49.1081 33.1205 47.869" stroke="white" stroke-width="1.74211" stroke-linecap="round" stroke-linejoin="round"/>
<path d="M44.5977 31.2036H64.6835" stroke="white" stroke-width="1.74211" stroke-linecap="round" stroke-linejoin="round"/>
<path d="M69.7067 1H48.903" stroke="white" stroke-width="1.74211" stroke-linecap="round" stroke-linejoin="round"/>
<path d="M30.2515 26.6929H43.1659" stroke="white" stroke-width="1.74211" stroke-linecap="round" stroke-linejoin="round"/>
<path d="M67.9048 3.08154C68.6227 4.93315 69.3333 6.78475 70.3886 9.5204C69.8143 9.79884 68.8667 10.2652 67.7971 10.7873C65.2774 9.29069 65.7943 7.45996 67.1869 5.51091" stroke="white" stroke-width="1.74211" stroke-linecap="round" stroke-linejoin="round"/>
<path d="M58.2238 13.1533C57.829 9.48485 56.7594 8.64258 52.4881 8.64258C48.5757 8.64258 47.3194 9.63103 46.7523 13.1533" stroke="white" stroke-width="1.74211" stroke-linecap="round" stroke-linejoin="round"/>
<path d="M52.486 1.69775V8.28975" stroke="white" stroke-width="1.74211" stroke-linecap="round" stroke-linejoin="round"/>
<path d="M5.99938 72.57C7.49005 72.57 8.63026 72.8415 9.42001 73.3844C10.2196 73.9274 10.6195 74.7764 10.6195 75.9314C10.6195 76.5336 10.5109 77.0519 10.2937 77.4862C10.0864 77.9107 9.78034 78.2612 9.37559 78.5376C8.97084 78.8041 8.47724 79.0016 7.8948 79.1299C7.31235 79.2582 6.64599 79.3224 5.89573 79.3224H4.96283V82.9355H3.09703V72.8217C3.53139 72.723 4.01018 72.6588 4.5334 72.6292C5.06648 72.5897 5.55514 72.57 5.99938 72.57ZM6.13265 74.1841C5.6588 74.1841 5.26886 74.1989 4.96283 74.2285V77.7232H5.86611C6.76446 77.7232 7.4555 77.5998 7.93922 77.353C8.42295 77.0963 8.66481 76.6175 8.66481 75.9166C8.66481 75.5809 8.60064 75.2996 8.47231 75.0725C8.34397 74.8455 8.16628 74.6678 7.93922 74.5395C7.71217 74.4111 7.44069 74.3223 7.12478 74.2729C6.81875 74.2137 6.48804 74.1841 6.13265 74.1841ZM11.3854 79.1003C11.3854 78.4191 11.4841 77.8219 11.6816 77.3085C11.8889 76.7952 12.1604 76.3707 12.496 76.0351C12.8317 75.6895 13.2167 75.4329 13.651 75.265C14.0854 75.0873 14.5296 74.9985 14.9837 74.9985C16.0499 74.9985 16.8792 75.3292 17.4715 75.9906C18.0737 76.652 18.3748 77.6392 18.3748 78.9522C18.3748 79.0509 18.3698 79.1645 18.36 79.2928C18.36 79.4113 18.355 79.5199 18.3451 79.6186H13.2364C13.2858 80.2405 13.503 80.7242 13.888 81.0697C14.2828 81.4054 14.8505 81.5732 15.5909 81.5732C16.0252 81.5732 16.4201 81.5337 16.7755 81.4548C17.1408 81.3758 17.4271 81.2919 17.6344 81.203L17.8713 82.669C17.7726 82.7184 17.6344 82.7727 17.4567 82.8319C17.2888 82.8813 17.0914 82.9257 16.8644 82.9652C16.6472 83.0145 16.4102 83.054 16.1536 83.0836C15.8969 83.1132 15.6353 83.128 15.3688 83.128C14.6876 83.128 14.0953 83.0293 13.5918 82.8319C13.0883 82.6246 12.6737 82.3432 12.3479 81.9878C12.0222 81.6226 11.7803 81.1981 11.6223 80.7144C11.4644 80.2208 11.3854 79.6827 11.3854 79.1003ZM16.583 78.3007C16.583 78.0539 16.5484 77.8219 16.4793 77.6047C16.4102 77.3776 16.3066 77.1851 16.1684 77.0272C16.04 76.8594 15.8772 76.731 15.6797 76.6422C15.4922 76.5435 15.2651 76.4941 14.9986 76.4941C14.7221 76.4941 14.4803 76.5484 14.273 76.657C14.0657 76.7557 13.888 76.889 13.7399 77.0568C13.6017 77.2246 13.4931 77.4171 13.4141 77.6343C13.3351 77.8515 13.2808 78.0736 13.2512 78.3007H16.583ZM24.6872 76.8051C24.5391 76.7557 24.3318 76.7063 24.0653 76.657C23.8086 76.5978 23.5075 76.5681 23.162 76.5681C22.9646 76.5681 22.7523 76.5879 22.5253 76.6274C22.3081 76.6669 22.1551 76.7014 22.0662 76.731V82.9355H20.2745V75.5612C20.62 75.4329 21.0494 75.3144 21.5627 75.2058C22.086 75.0873 22.6635 75.0281 23.2953 75.0281C23.4137 75.0281 23.5519 75.038 23.7099 75.0577C23.8678 75.0676 24.0258 75.0873 24.1838 75.117C24.3417 75.1367 24.4947 75.1663 24.6428 75.2058C24.7909 75.2354 24.9093 75.265 24.9982 75.2947L24.6872 76.8051ZM28.1866 81.6473C28.6605 81.6473 29.006 81.593 29.2232 81.4844C29.4404 81.3659 29.549 81.1685 29.549 80.8921C29.549 80.6354 29.4305 80.4231 29.1936 80.2553C28.9665 80.0875 28.5864 79.9049 28.0534 79.7074C27.7276 79.589 27.4265 79.4656 27.1501 79.3372C26.8835 79.199 26.6515 79.0411 26.4541 78.8634C26.2567 78.6857 26.0987 78.4734 25.9803 78.2266C25.8717 77.97 25.8174 77.659 25.8174 77.2937C25.8174 76.5829 26.079 76.0252 26.6022 75.6204C27.1254 75.2058 27.8362 74.9985 28.7345 74.9985C29.1886 74.9985 29.623 75.0429 30.0376 75.1318C30.4522 75.2107 30.7632 75.2897 30.9705 75.3687L30.6448 76.8199C30.4473 76.731 30.1956 76.652 29.8895 76.5829C29.5835 76.504 29.2281 76.4645 28.8234 76.4645C28.4581 76.4645 28.162 76.5286 27.9349 76.657C27.7078 76.7754 27.5943 76.963 27.5943 77.2197C27.5943 77.348 27.6141 77.4615 27.6535 77.5603C27.7029 77.659 27.7819 77.7528 27.8905 77.8416C27.9991 77.9206 28.1422 78.0045 28.3199 78.0934C28.4976 78.1723 28.7148 78.2562 28.9715 78.3451C29.3959 78.503 29.7563 78.661 30.0524 78.8189C30.3486 78.967 30.5905 79.1398 30.778 79.3372C30.9755 79.5248 31.1186 79.742 31.2075 79.9888C31.2963 80.2356 31.3407 80.5317 31.3407 80.8772C31.3407 81.6176 31.0643 82.1803 30.5115 82.5653C29.9685 82.9405 29.1886 83.128 28.1718 83.128C27.4907 83.128 26.9428 83.0688 26.5281 82.9504C26.1135 82.8418 25.8223 82.7529 25.6545 82.6838L25.9654 81.1882C26.232 81.2968 26.5479 81.4005 26.9132 81.4992C27.2883 81.5979 27.7128 81.6473 28.1866 81.6473ZM40.0186 79.0559C40.0186 79.6679 39.9298 80.2257 39.7521 80.7292C39.5744 81.2326 39.3227 81.6621 38.9969 82.0175C38.6711 82.3728 38.2762 82.6493 37.8123 82.8467C37.3581 83.0441 36.8547 83.1429 36.3018 83.1429C35.749 83.1429 35.2455 83.0441 34.7914 82.8467C34.3373 82.6493 33.9474 82.3728 33.6216 82.0175C33.2958 81.6621 33.0392 81.2326 32.8516 80.7292C32.6739 80.2257 32.5851 79.6679 32.5851 79.0559C32.5851 78.4438 32.6739 77.891 32.8516 77.3974C33.0392 76.8939 33.2958 76.4645 33.6216 76.1091C33.9573 75.7537 34.3521 75.4822 34.8062 75.2947C35.2604 75.0972 35.7589 74.9985 36.3018 74.9985C36.8448 74.9985 37.3433 75.0972 37.7974 75.2947C38.2614 75.4822 38.6563 75.7537 38.9821 76.1091C39.3079 76.4645 39.5596 76.8939 39.7373 77.3974C39.9248 77.891 40.0186 78.4438 40.0186 79.0559ZM38.1824 79.0559C38.1824 78.2859 38.0146 77.6787 37.679 77.2345C37.3532 76.7804 36.8942 76.5533 36.3018 76.5533C35.7095 76.5533 35.2455 76.7804 34.9099 77.2345C34.5841 77.6787 34.4212 78.2859 34.4212 79.0559C34.4212 79.8358 34.5841 80.4528 34.9099 80.9069C35.2455 81.361 35.7095 81.588 36.3018 81.588C36.8942 81.588 37.3532 81.361 37.679 80.9069C38.0146 80.4528 38.1824 79.8358 38.1824 79.0559ZM41.8645 75.4427C42.2101 75.344 42.6592 75.2502 43.2121 75.1614C43.7649 75.0725 44.3769 75.0281 45.0482 75.0281C45.68 75.0281 46.2082 75.117 46.6327 75.2947C47.0572 75.4625 47.3928 75.7043 47.6396 76.0202C47.8963 76.3263 48.074 76.7014 48.1727 77.1456C48.2813 77.58 48.3356 78.0588 48.3356 78.582V82.9355H46.5438V78.8634C46.5438 78.4487 46.5142 78.0983 46.455 77.812C46.4056 77.5158 46.3168 77.2789 46.1884 77.1012C46.07 76.9137 45.9022 76.7804 45.685 76.7014C45.4777 76.6126 45.221 76.5681 44.915 76.5681C44.6879 76.5681 44.451 76.5829 44.2042 76.6126C43.9574 76.6422 43.7748 76.6669 43.6563 76.6866V82.9355H41.8645V75.4427ZM53.2513 81.6769C53.8041 81.6769 54.2236 81.6473 54.5099 81.588V79.6038C54.4112 79.5741 54.2681 79.5445 54.0805 79.5149C53.8929 79.4853 53.6856 79.4705 53.4586 79.4705C53.2611 79.4705 53.0587 79.4853 52.8514 79.5149C52.654 79.5445 52.4714 79.5988 52.3035 79.6778C52.1456 79.7568 52.0173 79.8703 51.9185 80.0184C51.8198 80.1566 51.7705 80.3343 51.7705 80.5515C51.7705 80.976 51.9037 81.2721 52.1703 81.4399C52.4368 81.5979 52.7971 81.6769 53.2513 81.6769ZM53.1032 74.9985C53.6955 74.9985 54.194 75.0725 54.5988 75.2206C55.0035 75.3687 55.3244 75.576 55.5613 75.8425C55.8081 76.1091 55.9808 76.4349 56.0796 76.8199C56.1882 77.195 56.2425 77.6096 56.2425 78.0637V82.7579C55.966 82.8171 55.5465 82.8862 54.9838 82.9652C54.431 83.054 53.8041 83.0984 53.1032 83.0984C52.6392 83.0984 52.2147 83.054 51.8297 82.9652C51.4447 82.8763 51.114 82.7332 50.8376 82.5357C50.571 82.3383 50.3588 82.0816 50.2008 81.7657C50.0527 81.4498 49.9787 81.0599 49.9787 80.5959C49.9787 80.1517 50.0626 79.7765 50.2304 79.4705C50.4081 79.1645 50.6451 78.9177 50.9412 78.7301C51.2374 78.5327 51.578 78.3944 51.963 78.3155C52.3578 78.2266 52.7675 78.1822 53.192 78.1822C53.3895 78.1822 53.5968 78.197 53.814 78.2266C54.0311 78.2464 54.2631 78.2859 54.5099 78.3451V78.0489C54.5099 77.8416 54.4852 77.6442 54.4359 77.4566C54.3865 77.269 54.2977 77.1062 54.1693 76.968C54.0509 76.8199 53.888 76.7063 53.6807 76.6274C53.4832 76.5484 53.2315 76.5089 52.9255 76.5089C52.5109 76.5089 52.1308 76.5385 51.7853 76.5978C51.4397 76.657 51.1584 76.7261 50.9412 76.8051L50.7191 75.3539C50.9462 75.2749 51.2769 75.1959 51.7112 75.117C52.1456 75.038 52.6096 74.9985 53.1032 74.9985ZM61.1317 83.0836C60.5986 83.0738 60.1544 83.0145 59.799 82.9059C59.4535 82.7973 59.1771 82.6443 58.9698 82.4469C58.7625 82.2396 58.6144 81.9878 58.5255 81.6917C58.4466 81.3857 58.4071 81.0401 58.4071 80.6551V71.7408L60.1988 71.4446V80.3145C60.1988 80.5317 60.2136 80.7144 60.2433 80.8624C60.2827 81.0105 60.3469 81.1389 60.4358 81.2474C60.5246 81.3462 60.6431 81.4251 60.7911 81.4844C60.9491 81.5337 61.1465 81.5732 61.3835 81.6028L61.1317 83.0836ZM70.9386 83.1577C70.1686 83.1577 69.4776 83.0392 68.8655 82.8023C68.2535 82.5653 67.7352 82.2198 67.3107 81.7657C66.8862 81.3017 66.5604 80.739 66.3334 80.0776C66.1063 79.4162 65.9928 78.6561 65.9928 77.7972C65.9928 76.9383 66.1211 76.1782 66.3778 75.5168C66.6443 74.8554 67.0047 74.2976 67.4588 73.8435C67.9129 73.3795 68.446 73.029 69.058 72.7921C69.6701 72.5552 70.3266 72.4367 71.0275 72.4367C71.452 72.4367 71.837 72.4713 72.1825 72.5404C72.528 72.5996 72.8291 72.6687 73.0858 72.7477C73.3424 72.8267 73.5547 72.9106 73.7225 72.9994C73.8903 73.0883 74.0088 73.1524 74.0779 73.1919L73.53 74.7171C73.2931 74.5691 72.9525 74.4309 72.5083 74.3025C72.0739 74.1643 71.6 74.0952 71.0867 74.0952C70.6425 74.0952 70.2278 74.1742 69.8428 74.3321C69.4578 74.4802 69.1222 74.7073 68.8359 75.0133C68.5595 75.3193 68.3423 75.7043 68.1844 76.1683C68.0264 76.6323 67.9474 77.1703 67.9474 77.7824C67.9474 78.3253 68.0067 78.8239 68.1251 79.278C68.2535 79.7321 68.446 80.127 68.7026 80.4626C68.9593 80.7884 69.2851 81.0451 69.68 81.2326C70.0748 81.4103 70.5487 81.4992 71.1015 81.4992C71.7629 81.4992 72.301 81.435 72.7156 81.3067C73.1302 81.1685 73.451 81.0401 73.6781 80.9217L74.1816 82.4469C74.0631 82.5259 73.9002 82.6048 73.6929 82.6838C73.4955 82.7628 73.2585 82.8418 72.9821 82.9207C72.7057 82.9898 72.3947 83.0441 72.0492 83.0836C71.7037 83.133 71.3335 83.1577 70.9386 83.1577ZM78.4565 81.6769C79.0094 81.6769 79.4289 81.6473 79.7152 81.588V79.6038C79.6165 79.5741 79.4734 79.5445 79.2858 79.5149C79.0982 79.4853 78.8909 79.4705 78.6639 79.4705C78.4664 79.4705 78.264 79.4853 78.0567 79.5149C77.8593 79.5445 77.6767 79.5988 77.5088 79.6778C77.3509 79.7568 77.2226 79.8703 77.1238 80.0184C77.0251 80.1566 76.9758 80.3343 76.9758 80.5515C76.9758 80.976 77.109 81.2721 77.3756 81.4399C77.6421 81.5979 78.0024 81.6769 78.4565 81.6769ZM78.3085 74.9985C78.9008 74.9985 79.3993 75.0725 79.8041 75.2206C80.2088 75.3687 80.5297 75.576 80.7666 75.8425C81.0134 76.1091 81.1861 76.4349 81.2849 76.8199C81.3935 77.195 81.4477 77.6096 81.4477 78.0637V82.7579C81.1713 82.8171 80.7518 82.8862 80.1891 82.9652C79.6362 83.054 79.0094 83.0984 78.3085 83.0984C77.8445 83.0984 77.42 83.054 77.035 82.9652C76.65 82.8763 76.3193 82.7332 76.0429 82.5357C75.7763 82.3383 75.5641 82.0816 75.4061 81.7657C75.258 81.4498 75.184 81.0599 75.184 80.5959C75.184 80.1517 75.2679 79.7765 75.4357 79.4705C75.6134 79.1645 75.8503 78.9177 76.1465 78.7301C76.4427 78.5327 76.7832 78.3944 77.1683 78.3155C77.5631 78.2266 77.9728 78.1822 78.3973 78.1822C78.5948 78.1822 78.8021 78.197 79.0192 78.2266C79.2364 78.2464 79.4684 78.2859 79.7152 78.3451V78.0489C79.7152 77.8416 79.6905 77.6442 79.6412 77.4566C79.5918 77.269 79.503 77.1062 79.3746 76.968C79.2562 76.8199 79.0933 76.7063 78.886 76.6274C78.6885 76.5484 78.4368 76.5089 78.1308 76.5089C77.7161 76.5089 77.3361 76.5385 76.9906 76.5978C76.645 76.657 76.3637 76.7261 76.1465 76.8051L75.9244 75.3539C76.1514 75.2749 76.4822 75.1959 76.9165 75.117C77.3509 75.038 77.8149 74.9985 78.3085 74.9985ZM88.0547 76.8051C87.9067 76.7557 87.6994 76.7063 87.4328 76.657C87.1761 76.5978 86.875 76.5681 86.5295 76.5681C86.3321 76.5681 86.1198 76.5879 85.8928 76.6274C85.6756 76.6669 85.5226 76.7014 85.4337 76.731V82.9355H83.642V75.5612C83.9875 75.4329 84.4169 75.3144 84.9303 75.2058C85.4535 75.0873 86.031 75.0281 86.6628 75.0281C86.7813 75.0281 86.9195 75.038 87.0774 75.0577C87.2354 75.0676 87.3933 75.0873 87.5513 75.117C87.7092 75.1367 87.8622 75.1663 88.0103 75.2058C88.1584 75.2354 88.2769 75.265 88.3657 75.2947L88.0547 76.8051ZM89.1849 79.1003C89.1849 78.4191 89.2836 77.8219 89.481 77.3085C89.6884 76.7952 89.9598 76.3707 90.2955 76.0351C90.6311 75.6895 91.0161 75.4329 91.4505 75.265C91.8849 75.0873 92.3291 74.9985 92.7832 74.9985C93.8494 74.9985 94.6786 75.3292 95.2709 75.9906C95.8731 76.652 96.1742 77.6392 96.1742 78.9522C96.1742 79.0509 96.1693 79.1645 96.1594 79.2928C96.1594 79.4113 96.1545 79.5199 96.1446 79.6186H91.0359C91.0852 80.2405 91.3024 80.7242 91.6874 81.0697C92.0823 81.4054 92.6499 81.5732 93.3903 81.5732C93.8247 81.5732 94.2196 81.5337 94.575 81.4548C94.9402 81.3758 95.2265 81.2919 95.4338 81.203L95.6708 82.669C95.572 82.7184 95.4338 82.7727 95.2561 82.8319C95.0883 82.8813 94.8909 82.9257 94.6638 82.9652C94.4466 83.0145 94.2097 83.054 93.953 83.0836C93.6964 83.1132 93.4348 83.128 93.1682 83.128C92.4871 83.128 91.8947 83.0293 91.3913 82.8319C90.8878 82.6246 90.4732 82.3432 90.1474 81.9878C89.8216 81.6226 89.5798 81.1981 89.4218 80.7144C89.2639 80.2208 89.1849 79.6827 89.1849 79.1003ZM94.3825 78.3007C94.3825 78.0539 94.3479 77.8219 94.2788 77.6047C94.2097 77.3776 94.1061 77.1851 93.9678 77.0272C93.8395 76.8594 93.6766 76.731 93.4792 76.6422C93.2916 76.5435 93.0646 76.4941 92.798 76.4941C92.5216 76.4941 92.2797 76.5484 92.0724 76.657C91.8651 76.7557 91.6874 76.889 91.5393 77.0568C91.4011 77.2246 91.2925 77.4171 91.2136 77.6343C91.1346 77.8515 91.0803 78.0736 91.0507 78.3007H94.3825Z" fill="white"/>
</svg>
