<svg xmlns="http://www.w3.org/2000/svg" width="222.441" height="30.878" viewBox="0 0 222.441 30.878">
  <g id="cosmo_logo_white" transform="translate(-120 -5494.709)">
    <g id="Group_87" data-name="Group 87" transform="translate(120 5494.709)">
      <path id="Path_198" data-name="Path 198" d="M195.122,68.726h9.232L203.191,72.8h-9.27Z" transform="translate(-162.187 -58.342)" fill="#e61c39"/>
      <path id="Path_199" data-name="Path 199" d="M117.7,34.469l5.293-18.481c.492-1.553.927-3.121,1.881-4,.929-.852,1.569-.994,3.347-1.026h16.572l-1.24,3.98-12.937.005c-2.443,0-3.607,1.577-4.268,3.887L123.031,30.25s-.644,3.649-2.878,4.121a12.488,12.488,0,0,1-2.453.1" transform="translate(-99.647 -10.948)" fill="#e61c39"/>
      <path id="Path_200" data-name="Path 200" d="M17.265,33.907l5.125-18c.5-1.551.923-3.125,1.88-4,.931-.849,1.573-.994,3.347-1.024H40.44L39.3,14.859l-9.291,0c-2.441,0-3.608,1.585-4.266,3.891L22.429,30.171C22.1,31.435,21.4,33.4,22.4,34.7a3.652,3.652,0,0,0,2.792,1.038l8.157.01L32.2,39.739H21.86c-2.578,0-5.384-2.908-4.6-5.831" transform="translate(-17.129 -10.88)" fill="#e61c39"/>
      <path id="Path_201" data-name="Path 201" d="M58.636,40.5h8.4l-1.115,3.965-5.909-.011a1.331,1.331,0,0,0-1.184.757,10.8,10.8,0,0,0-.652,1.91l-1.29,4.707c.008-.021-.555,1.893-.018,2.455a2.1,2.1,0,0,0,1.383.449l4.735-.011-1.128,3.983H54.369c-2.2.053-2.562-.454-2.773-.821-.406-.7-.2-1.632.951-5.507l2.7-9.185a3.667,3.667,0,0,1,3.391-2.69" transform="translate(-45.252 -35.185)" fill="#e61c39"/>
      <path id="Path_202" data-name="Path 202" d="M122.056,44.476l-3.472,11.642c-.687,2.357-2.476,3.916-4.2,3.938l-2.172.01-1.1,3.981h3.909c2.238-.084,5.517-.838,6.764-4.363l3.461-12.372a16.178,16.178,0,0,1,.82-2.429s.223-.667,1.458-.637h9.257l1.087-3.738H125.682c-2.765,0-3.627,3.97-3.627,3.97" transform="translate(-94.243 -35.188)" fill="#e61c39"/>
    </g>
    <g id="Group_86" data-name="Group 86" transform="translate(167.582 5494.709)">
      <path id="Path_203" data-name="Path 203" d="M316.14,12.732l-.693,2.931h-5.793a4.517,4.517,0,0,0-2.632.75,4.725,4.725,0,0,0-1.563,1.666,18.1,18.1,0,0,0-.774,1.693,12.35,12.35,0,0,0-.48,1.535l-.071.309-.062.262c-.053.222-.1.465-.15.729s-.091.577-.132.951a4.565,4.565,0,0,0,.03,1.2,3.308,3.308,0,0,0,.4,1.193,1.822,1.822,0,0,0,1.075.774,7.62,7.62,0,0,0,1.712.156h5.781l-.7,2.976h-5.913a10.881,10.881,0,0,1-2.783-.3,4.933,4.933,0,0,1-2.079-1.2A5.072,5.072,0,0,1,300,25.381a11.24,11.24,0,0,1,.3-3.764l.243-1.024a10.694,10.694,0,0,1,.612-1.811,17.521,17.521,0,0,1,.866-1.667A9.381,9.381,0,0,1,303,15.736a11.593,11.593,0,0,1,1.416-1.335,5.869,5.869,0,0,1,2.009-1.086,11.871,11.871,0,0,1,2.035-.462,14.163,14.163,0,0,1,1.841-.122Z" transform="translate(-296.768 -12.4)" fill="#fff"/>
      <path id="Path_204" data-name="Path 204" d="M386.919,16a8.655,8.655,0,0,1,2.11-2.788,10.736,10.736,0,0,1,1.994-1.324,9.518,9.518,0,0,1,1.776-.642,11.528,11.528,0,0,1,1.6-.3,15.371,15.371,0,0,1,1.581-.071,10.3,10.3,0,0,1,2.593.251c.6.166,1.02.29,1.245.368a5.093,5.093,0,0,1,.91.488,3.212,3.212,0,0,1,.96.941,5.246,5.246,0,0,1,1.01,3.037,13.584,13.584,0,0,1-.369,3.823,16.93,16.93,0,0,1-1.449,3.848,9.129,9.129,0,0,1-2.495,3.083,8.3,8.3,0,0,1-3.258,1.573,14.728,14.728,0,0,1-3.317.406,11.537,11.537,0,0,1-2.929-.358,4.55,4.55,0,0,1-.842-.249,6.376,6.376,0,0,1-.9-.488,4.228,4.228,0,0,1-1.008-.919,4.006,4.006,0,0,1-.729-1.367,9.023,9.023,0,0,1-.3-2.17,12.863,12.863,0,0,1,.422-3.405,15.721,15.721,0,0,1,1.4-3.737m3.306,1.231a12.242,12.242,0,0,0-.876,2.519,13.341,13.341,0,0,0-.3,3.2,2.239,2.239,0,0,0,1.26,2.331,6.054,6.054,0,0,0,2.173.487,6.482,6.482,0,0,0,1.815-.264,5.37,5.37,0,0,0,3.237-3.113,11.635,11.635,0,0,0,.937-2.567,9.667,9.667,0,0,0,.307-2.247c-.01-.579-.023-.947-.041-1.1a4.415,4.415,0,0,0-.18-.726,2.7,2.7,0,0,0-.538-.937,2.049,2.049,0,0,0-.891-.632,5.62,5.62,0,0,0-.933-.249,5.37,5.37,0,0,0-.894-.072,6.191,6.191,0,0,0-1.767.264,6.077,6.077,0,0,0-3.308,3.113" transform="translate(-366.624 -10.88)" fill="#fff"/>
      <path id="Path_205" data-name="Path 205" d="M490.67,12.732h9.275l-.729,3.073H490.5c-1.838,0-2.931.75-3.287,2.24a1.275,1.275,0,0,0,.3,1.381,2.09,2.09,0,0,0,1.5.476h4.65a12.68,12.68,0,0,1,2.36.193,3.217,3.217,0,0,1,1.7,1.153q.8.941.191,3.49a8.51,8.51,0,0,1-.407,1.276,9.278,9.278,0,0,1-.744,1.37,4.714,4.714,0,0,1-1.4,1.379,5.841,5.841,0,0,1-2.01.834,10.42,10.42,0,0,1-2.537.261h-9.392l.727-3.073h8.831a4.855,4.855,0,0,0,2.115-.394,2.056,2.056,0,0,0,1.065-1.489l.085-.355a1.6,1.6,0,0,0-.122-1.074A1.546,1.546,0,0,0,493.34,23a5.019,5.019,0,0,0-1.177-.118H488a5.5,5.5,0,0,1-3.885-1.143q-1.191-1.145-.555-3.836a7.644,7.644,0,0,1,1.022-2.429,5.457,5.457,0,0,1,1.6-1.657,6.085,6.085,0,0,1,1.97-.821,9.9,9.9,0,0,1,2.517-.263" transform="translate(-445.667 -12.4)" fill="#fff"/>
      <path id="Path_206" data-name="Path 206" d="M584.87,29.863h-3.621L585.3,12.737h5.208l1.148,13.124,7.38-13.124h5.165l-4.056,17.126h-3.48L600.1,16.548l-7.43,13.314h-3.76l-1.235-13.435Z" transform="translate(-527.57 -12.403)" fill="#fff"/>
      <path id="Path_207" data-name="Path 207" d="M710.471,16a8.686,8.686,0,0,1,2.109-2.788,10.857,10.857,0,0,1,2-1.324,9.529,9.529,0,0,1,1.775-.642,11.478,11.478,0,0,1,1.6-.3,15.4,15.4,0,0,1,1.581-.071,10.3,10.3,0,0,1,2.592.251c.607.166,1.022.29,1.244.368a5.111,5.111,0,0,1,.912.488,3.215,3.215,0,0,1,.955.941,5.208,5.208,0,0,1,1.011,3.037,13.488,13.488,0,0,1-.369,3.823,16.753,16.753,0,0,1-1.446,3.848,9.122,9.122,0,0,1-2.5,3.083,8.289,8.289,0,0,1-3.255,1.573,14.773,14.773,0,0,1-3.322.406,11.531,11.531,0,0,1-2.928-.358,4.489,4.489,0,0,1-.84-.249,6.308,6.308,0,0,1-.9-.488,4.242,4.242,0,0,1-1.01-.919,4.074,4.074,0,0,1-.729-1.367,9,9,0,0,1-.3-2.17,12.811,12.811,0,0,1,.421-3.405,15.717,15.717,0,0,1,1.4-3.737m3.306,1.231a12.239,12.239,0,0,0-.874,2.519,13.38,13.38,0,0,0-.3,3.2,2.239,2.239,0,0,0,1.259,2.331,6.074,6.074,0,0,0,2.175.487,6.484,6.484,0,0,0,1.814-.264,5.372,5.372,0,0,0,3.238-3.113,11.6,11.6,0,0,0,.935-2.567,9.769,9.769,0,0,0,.311-2.247c-.013-.579-.026-.947-.044-1.1a4.137,4.137,0,0,0-.178-.726,2.732,2.732,0,0,0-.536-.937,2.069,2.069,0,0,0-.893-.632,5.642,5.642,0,0,0-.931-.249,5.4,5.4,0,0,0-.894-.072,6.176,6.176,0,0,0-1.766.264,6.081,6.081,0,0,0-3.311,3.113" transform="translate(-632.097 -10.88)" fill="#fff"/>
      <path id="Path_208" data-name="Path 208" d="M831.692,29.956l-3.378-.094s3.617-13.018,3.989-14.105A3.284,3.284,0,0,1,834.954,13a43.8,43.8,0,0,1,5.689-.265h5.37l-.7,2.977h-5.7c-1.75-.093-2.944-.079-3.676.5a6.2,6.2,0,0,0-1.189,2.293c-.262.754-.438,1.31-.469,1.426l10.041-.028-.694,2.932h-10.07Z" transform="translate(-730.286 -12.403)" fill="#fff"/>
      <path id="Path_209" data-name="Path 209" d="M921.393,12.732h3.694l-4.056,17.127H917.34Z" transform="translate(-803.331 -12.4)" fill="#fff"/>
      <path id="Path_210" data-name="Path 210" d="M972.62,27.024l-.67,2.835h-5.045a23.362,23.362,0,0,1-3.534-.3c-2.677-.728-1.689-4.132-1.62-4.752s2.714-12.071,2.714-12.071h3.505l-2.23,9.409c-.1.415-.183.767-.251,1.06s-.237,1.559-.339,2.06c-.248,1.216.519,1.493,1.149,1.629a10.95,10.95,0,0,0,2.117.134Z" transform="translate(-839.577 -12.4)" fill="#fff"/>
      <path id="Path_211" data-name="Path 211" d="M1033.671,29.863h-3.621l4.055-17.126h5.209l1.147,13.124,7.382-13.124H1053l-4.055,17.126h-3.481l3.435-13.314-7.43,13.314h-3.762l-1.234-13.435Z" transform="translate(-895.809 -12.403)" fill="#fff"/>
      <path id="Path_212" data-name="Path 212" d="M1162.407,12.732h9.275l-.727,3.073h-8.715c-1.838,0-2.933.75-3.287,2.24a1.271,1.271,0,0,0,.3,1.381,2.086,2.086,0,0,0,1.5.476h4.648a12.738,12.738,0,0,1,2.363.193,3.223,3.223,0,0,1,1.7,1.153q.8.941.188,3.49a8.1,8.1,0,0,1-.4,1.276,9.509,9.509,0,0,1-.744,1.37,4.728,4.728,0,0,1-1.4,1.379,5.863,5.863,0,0,1-2.008.834,10.441,10.441,0,0,1-2.54.261h-9.391l.73-3.073h8.829a4.847,4.847,0,0,0,2.113-.394A2.055,2.055,0,0,0,1165.9,24.9l.085-.355a1.571,1.571,0,0,0-.121-1.074,1.539,1.539,0,0,0-.789-.477,5.027,5.027,0,0,0-1.177-.118h-4.167a5.494,5.494,0,0,1-3.883-1.143q-1.2-1.145-.555-3.836a7.661,7.661,0,0,1,1.018-2.429,5.531,5.531,0,0,1,1.607-1.657,6.111,6.111,0,0,1,1.972-.821,9.876,9.876,0,0,1,2.515-.263" transform="translate(-996.824 -12.4)" fill="#fff"/>
      <path id="Path_213" data-name="Path 213" d="M452.259,136.077l-.267,1.148h-2.1a2.107,2.107,0,0,1-1.894-.758,2.535,2.535,0,0,1-.208-2.021,3.485,3.485,0,0,1,.958-1.858,3.234,3.234,0,0,1,1.232-.753,4.459,4.459,0,0,1,1.2-.158h2.1l-.266,1.148h-1.9a3.074,3.074,0,0,0-.75.073.981.981,0,0,0-.494.305,1.354,1.354,0,0,0-.342.674h3.241l-.27,1.168h-3.242a1.1,1.1,0,0,0,0,.658.546.546,0,0,0,.356.311,3.258,3.258,0,0,0,.739.063Zm-9.74-.041h1.693l-.276,1.189h-1.93a3.937,3.937,0,0,1-1.1-.142,1.58,1.58,0,0,1-.8-.526,1.85,1.85,0,0,1-.389-.953,3.192,3.192,0,0,1,.057-1.137,3.952,3.952,0,0,1,.26-.762,3.9,3.9,0,0,1,.448-.732,4.485,4.485,0,0,1,.593-.642,2.333,2.333,0,0,1,.845-.463,5.668,5.668,0,0,1,.742-.148,5.132,5.132,0,0,1,.63-.042h1.93l-.278,1.2h-1.838a2.218,2.218,0,0,0-1.05.278,1.871,1.871,0,0,0-.763,1.31q-.235,1.012.176,1.29a1.823,1.823,0,0,0,1.049.279m-10.4,1.189H430.7l1.286-5.548h2.694a3.35,3.35,0,0,1,1.208.18,1.03,1.03,0,0,1,.618.626,2.205,2.205,0,0,1-.016,1.227l-.815,3.516h-1.456l.771-3.326c.026-.113.046-.219.059-.321a1.663,1.663,0,0,0,.008-.326.3.3,0,0,0-.187-.258,1.468,1.468,0,0,0-.59-.085h-1.157Zm-8.285-1.106h1.8l.269-1.157H424.21a1.716,1.716,0,0,0-.64.111.606.606,0,0,0-.361.468.509.509,0,0,0,.021.374.352.352,0,0,0,.22.168,1.636,1.636,0,0,0,.388.036m1.25-3.294h-2.406l.266-1.148h2.942a3.821,3.821,0,0,1,.94.105,1.291,1.291,0,0,1,.729.553,1.783,1.783,0,0,1,.09,1.416l-.805,3.474h-3.851a1.21,1.21,0,0,1-1.313-1.642l.035-.147a2.709,2.709,0,0,1,.4-.784,1.672,1.672,0,0,1,.577-.485,2.6,2.6,0,0,1,.7-.242,4.74,4.74,0,0,1,.868-.069h1.9a1.058,1.058,0,0,0-.005-.668.535.535,0,0,0-.365-.295,2.86,2.86,0,0,0-.7-.068m-10.9,4.4h-1.4l1.755-7.569h1.4l-.469,2.021h1.29a3.6,3.6,0,0,1,.929.111,1.4,1.4,0,0,1,.643.342,1.134,1.134,0,0,1,.3.621,2.457,2.457,0,0,1-.062.958l-.816,3.516H416.3l.777-3.348a1.007,1.007,0,0,0-.031-.758.907.907,0,0,0-.705-.211h-1.156Zm-8.748,0h-1.424l1.287-5.548h2.694a3.346,3.346,0,0,1,1.208.18,1.031,1.031,0,0,1,.619.626,2.215,2.215,0,0,1-.016,1.227l-.816,3.516h-1.456l.772-3.326c.027-.113.045-.219.06-.321a1.811,1.811,0,0,0,.008-.326.3.3,0,0,0-.188-.258,1.467,1.467,0,0,0-.59-.085h-1.156Zm-3.482-7.569-.3,1.316h-2.56a2.184,2.184,0,0,0-1.4.448,2.28,2.28,0,0,0-.766,1.321h4.316l-.305,1.316H396.62a1.815,1.815,0,0,0,.032,1.331.955.955,0,0,0,.53.452,3.3,3.3,0,0,0,.763.069h2.56l-.305,1.316h-2.622a4.821,4.821,0,0,1-1.234-.132,2.2,2.2,0,0,1-.925-.531,2.262,2.262,0,0,1-.588-1.316,4.961,4.961,0,0,1,.123-1.663l.125-.453a4.414,4.414,0,0,1,.268-.8,7.247,7.247,0,0,1,.377-.737,4.174,4.174,0,0,1,.431-.61,5,5,0,0,1,.622-.589,2.574,2.574,0,0,1,.885-.479,5.328,5.328,0,0,1,.9-.206,6.5,6.5,0,0,1,.813-.053Zm-21.691,6.4a.588.588,0,0,0,.2.063,1.448,1.448,0,0,0,.248.022,1.613,1.613,0,0,0,.866-.264,1.737,1.737,0,0,0,.629-.642,3.059,3.059,0,0,0,.3-.769,2.07,2.07,0,0,0,.025-.973.881.881,0,0,0-.505-.605,1.358,1.358,0,0,0-.5-.106,1.712,1.712,0,0,0-.585.116,2.028,2.028,0,0,0-.544.348,1.943,1.943,0,0,0-.4.515,2.74,2.74,0,0,0-.262.705,1.938,1.938,0,0,0,0,.969.931.931,0,0,0,.542.621m2.444.505a3.27,3.27,0,0,1-.926.521,5.32,5.32,0,0,1-.739.205,3.284,3.284,0,0,1-.59.053,2.928,2.928,0,0,1-1.088-.206,1.888,1.888,0,0,1-.812-.574,1.68,1.68,0,0,1-.356-.805,3.954,3.954,0,0,1-.05-.716,3.287,3.287,0,0,1,.086-.595,3.357,3.357,0,0,1,.4-1.016,5.114,5.114,0,0,1,.447-.637,4.763,4.763,0,0,1,.555-.521,3.074,3.074,0,0,1,.953-.505,3.653,3.653,0,0,1,1.21-.206,2.935,2.935,0,0,1,1.085.2,1.683,1.683,0,0,1,.732.495,2.3,2.3,0,0,1,.327.526,2.653,2.653,0,0,1,.067,1.668,4.007,4.007,0,0,1-.468,1.152,3.684,3.684,0,0,1-.827.963M372.6,132.782h-1l.256-1.105h1l.47-2.021h1.434l-.468,2.021h1.538l-.256,1.105h-1.538l-.52,2.242a1.256,1.256,0,0,0-.011.737.506.506,0,0,0,.368.305,4.9,4.9,0,0,0,.783.053h.145l-.256,1.106h-1.311a1.271,1.271,0,0,1-1.131-.463,1.558,1.558,0,0,1-.13-1.263Zm-14.584,3.263h.454l.733-3.158-.329-.01h-.4l-.719.031a1.273,1.273,0,0,0-.655.284,1.759,1.759,0,0,0-.483.616,4.1,4.1,0,0,0-.27.805,2.041,2.041,0,0,0-.061.731.745.745,0,0,0,.308.494,1.86,1.86,0,0,0,1.052.206h.372Zm1.936-6.389H361.4l-1.755,7.569h-2.766a2.276,2.276,0,0,1-1.115-.2,3.851,3.851,0,0,1-.421-.279,2.072,2.072,0,0,1-.233-.264,1.613,1.613,0,0,1-.243-.489,2.49,2.49,0,0,1-.115-.663,2.691,2.691,0,0,1,.074-.737l.027-.116a3.641,3.641,0,0,1,.909-1.811,3.145,3.145,0,0,1,1.2-.81,4.228,4.228,0,0,1,1.286-.18h1.229Zm-8.575,6.421-.266,1.148h-2.1a2.109,2.109,0,0,1-1.894-.758,2.537,2.537,0,0,1-.207-2.021,3.487,3.487,0,0,1,.957-1.858,3.234,3.234,0,0,1,1.233-.753,4.452,4.452,0,0,1,1.2-.158h2.1l-.266,1.148h-1.9a3.083,3.083,0,0,0-.75.073.983.983,0,0,0-.493.305,1.357,1.357,0,0,0-.342.674h3.241l-.271,1.168h-3.241a1.09,1.09,0,0,0,0,.658.546.546,0,0,0,.356.311,3.253,3.253,0,0,0,.739.063Zm-10.789,1.148H339.16l1.286-5.548h2.415a1.782,1.782,0,0,1,.948.19.629.629,0,0,1,.3.515,3.435,3.435,0,0,1-.117.905l-.086.369-.078.336H342.47l.1-.442a2,2,0,0,0,.081-.574.229.229,0,0,0-.15-.195c-.087-.014-.163-.025-.23-.031s-.181-.011-.338-.011h-.31Zm-4.661-1.148-.266,1.148h-2.1a2.108,2.108,0,0,1-1.894-.758,2.537,2.537,0,0,1-.207-2.021,3.477,3.477,0,0,1,.957-1.858,3.233,3.233,0,0,1,1.233-.753,4.445,4.445,0,0,1,1.2-.158h2.1l-.266,1.148h-1.9a3.082,3.082,0,0,0-.75.073.985.985,0,0,0-.494.305,1.358,1.358,0,0,0-.342.674h3.242l-.271,1.168h-3.242a1.106,1.106,0,0,0,0,.658.548.548,0,0,0,.357.311,3.263,3.263,0,0,0,.739.063Zm-8.014,0-.266,1.148h-2.1a2.107,2.107,0,0,1-1.894-.758,2.533,2.533,0,0,1-.208-2.021,3.48,3.48,0,0,1,.957-1.858,3.236,3.236,0,0,1,1.233-.753,4.45,4.45,0,0,1,1.2-.158h2.1l-.266,1.148h-1.9a3.079,3.079,0,0,0-.75.073.988.988,0,0,0-.494.305,1.358,1.358,0,0,0-.342.674h3.241l-.27,1.168h-3.242a1.111,1.111,0,0,0,0,.658.55.55,0,0,0,.357.311,3.259,3.259,0,0,0,.739.063Zm-12.121,1.148h-1.425l1.287-5.548h2.695a3.349,3.349,0,0,1,1.208.18,1.031,1.031,0,0,1,.618.626,2.2,2.2,0,0,1-.016,1.227l-.815,3.516h-1.456l.772-3.326c.026-.113.045-.219.059-.321a1.712,1.712,0,0,0,.009-.326.3.3,0,0,0-.188-.258,1.472,1.472,0,0,0-.59-.085h-1.156Zm-4.99-7.569h1.487l-.319,1.379h-1.487Zm-.468,2.021h1.487l-1.287,5.548h-1.487Zm-7.155,4.4h.919l.744-3.21-.163-.01h-.592a3.845,3.845,0,0,0-.892.1,1.339,1.339,0,0,0-.621.31,2.075,2.075,0,0,0-.355.431,1.727,1.727,0,0,0-.191.49l-.076.326a1.276,1.276,0,0,0,.248,1.337.718.718,0,0,0,.384.19,3.468,3.468,0,0,0,.6.041m.772-4.4h2.623l-1.237,5.337a3.654,3.654,0,0,1-.492,1.206,2.182,2.182,0,0,1-.84.752,2.967,2.967,0,0,1-1.243.242h-2.818l.261-1.126h2.56a1,1,0,0,0,1.067-.863h-1.3a6.144,6.144,0,0,1-.7-.032,1.791,1.791,0,0,1-.555-.169,1.613,1.613,0,0,1-.556-.474,1.777,1.777,0,0,1-.342-.884,3.326,3.326,0,0,1,.078-1.2,3.275,3.275,0,0,1,.971-1.873,4.721,4.721,0,0,1,1.023-.674,2.851,2.851,0,0,1,.7-.189q.34-.042.517-.047c.117,0,.211-.005.279-.005m-11.107,5.548h-1.425l1.287-5.548H295.4a3.348,3.348,0,0,1,1.207.18,1.03,1.03,0,0,1,.619.626,2.216,2.216,0,0,1-.015,1.227l-.816,3.516h-1.455l.771-3.326a3.064,3.064,0,0,0,.058-.321,1.628,1.628,0,0,0,.01-.326.3.3,0,0,0-.188-.258,1.466,1.466,0,0,0-.589-.085h-1.156Zm-3.482-7.569-.3,1.316h-2.56a2.18,2.18,0,0,0-1.4.448,2.276,2.276,0,0,0-.766,1.321h4.315l-.305,1.316h-4.315a1.819,1.819,0,0,0,.032,1.331.955.955,0,0,0,.529.452,3.312,3.312,0,0,0,.764.069h2.561l-.306,1.316h-2.623a4.833,4.833,0,0,1-1.234-.132,2.2,2.2,0,0,1-.924-.531,2.258,2.258,0,0,1-.588-1.316,4.934,4.934,0,0,1,.123-1.663l.125-.453a4.357,4.357,0,0,1,.268-.8,7.539,7.539,0,0,1,.377-.737,4.2,4.2,0,0,1,.43-.61,5.231,5.231,0,0,1,.622-.589,2.592,2.592,0,0,1,.886-.479,5.324,5.324,0,0,1,.9-.206,6.474,6.474,0,0,1,.812-.053Z" transform="translate(-282.208 -108.335)" fill="#fff"/>
    </g>
  </g>
</svg>
