<svg xmlns="http://www.w3.org/2000/svg" width="320.692" height="44.518" viewBox="0 0 320.692 44.518">
  <g id="cosmo_logo" transform="translate(-17.129 -10.88)">
    <path id="Path_198" data-name="Path 198" d="M195.652,68.726h13.309L207.286,74.6H193.921Z" transform="translate(-131.04 -42.876)" fill="#e61c39"/>
    <g id="Group_40" data-name="Group 40" transform="translate(17.129 10.88)">
      <path id="Path_199" data-name="Path 199" d="M117.7,44.852l7.631-26.644c.709-2.239,1.336-4.5,2.712-5.765,1.339-1.228,2.262-1.433,4.825-1.479h23.892L154.973,16.7l-18.651.007c-3.521,0-5.2,2.274-6.153,5.6l-4.783,16.457s-.928,5.26-4.149,5.941a18,18,0,0,1-3.537.142" transform="translate(-91.673 -10.942)" fill="#e61c39"/>
      <path id="Path_200" data-name="Path 200" d="M17.325,44.079l7.388-25.952c.714-2.235,1.331-4.5,2.71-5.77,1.342-1.224,2.268-1.432,4.826-1.477H50.737L49.1,16.616l-13.395,0c-3.52,0-5.2,2.285-6.15,5.609L24.77,38.691c-.473,1.823-1.488,4.652-.046,6.537a5.264,5.264,0,0,0,4.025,1.5l11.76.015-1.653,5.747H23.95c-3.717,0-7.762-4.192-6.625-8.407" transform="translate(-17.129 -10.88)" fill="#e61c39"/>
      <path id="Path_201" data-name="Path 201" d="M61.83,40.5H73.946l-1.608,5.717L63.819,46.2a1.919,1.919,0,0,0-1.708,1.091,15.563,15.563,0,0,0-.94,2.754l-1.86,6.786c.012-.031-.8,2.729-.026,3.539a3.034,3.034,0,0,0,1.993.647L68.106,61,66.48,66.746h-10.8c-3.175.077-3.694-.655-4-1.184-.585-1-.288-2.353,1.372-7.94l3.89-13.242s1.049-3.889,4.889-3.878" transform="translate(-42.535 -32.836)" fill="#e61c39"/>
      <path id="Path_202" data-name="Path 202" d="M126.888,46.229l-5.005,16.784c-.99,3.4-3.569,5.646-6.048,5.677l-3.131.015-1.59,5.739h5.636c3.227-.121,7.953-1.208,9.752-6.291l4.99-17.837a23.325,23.325,0,0,1,1.182-3.5s.321-.961,2.1-.919h13.345l1.568-5.39H132.117c-3.987,0-5.229,5.723-5.229,5.723" transform="translate(-86.792 -32.839)" fill="#e61c39"/>
      <path id="Path_203" data-name="Path 203" d="M323.29,12.732l-1,4.226h-8.351a6.512,6.512,0,0,0-3.794,1.081,6.812,6.812,0,0,0-2.254,2.4,26.08,26.08,0,0,0-1.116,2.44,17.8,17.8,0,0,0-.692,2.213l-.1.446-.09.378c-.076.32-.15.67-.216,1.051s-.131.833-.19,1.371a6.583,6.583,0,0,0,.044,1.731,4.77,4.77,0,0,0,.583,1.719,2.627,2.627,0,0,0,1.549,1.116,10.987,10.987,0,0,0,2.468.225h8.334l-1.016,4.29h-8.524a15.686,15.686,0,0,1-4.013-.429,7.112,7.112,0,0,1-3-1.733,7.313,7.313,0,0,1-1.885-4.293,16.2,16.2,0,0,1,.426-5.427l.35-1.476a15.417,15.417,0,0,1,.883-2.61,25.255,25.255,0,0,1,1.248-2.4,13.521,13.521,0,0,1,1.412-1.989,16.711,16.711,0,0,1,2.042-1.924,8.462,8.462,0,0,1,2.9-1.566,17.114,17.114,0,0,1,2.934-.666,20.418,20.418,0,0,1,2.654-.175Z" transform="translate(-226.761 -12.253)" fill="#2a2b2a"/>
      <path id="Path_204" data-name="Path 204" d="M387.726,18.267a12.477,12.477,0,0,1,3.041-4.02,15.477,15.477,0,0,1,2.875-1.909,13.722,13.722,0,0,1,2.56-.926,16.621,16.621,0,0,1,2.308-.43,22.16,22.16,0,0,1,2.279-.1,14.852,14.852,0,0,1,3.739.362c.872.239,1.47.418,1.794.531a7.341,7.341,0,0,1,1.312.7,4.63,4.63,0,0,1,1.384,1.357,7.564,7.564,0,0,1,1.455,4.379,19.583,19.583,0,0,1-.532,5.511,24.407,24.407,0,0,1-2.088,5.548,13.161,13.161,0,0,1-3.6,4.444,11.959,11.959,0,0,1-4.7,2.267,21.234,21.234,0,0,1-4.783.585,16.633,16.633,0,0,1-4.223-.517,6.561,6.561,0,0,1-1.214-.359,9.193,9.193,0,0,1-1.3-.7,6.094,6.094,0,0,1-1.454-1.324,5.775,5.775,0,0,1-1.052-1.971,13.011,13.011,0,0,1-.437-3.129,18.545,18.545,0,0,1,.608-4.909,22.665,22.665,0,0,1,2.017-5.388m4.766,1.775a17.65,17.65,0,0,0-1.263,3.632,19.236,19.236,0,0,0-.436,4.609c.021,1.77.623,2.889,1.817,3.361a8.729,8.729,0,0,0,3.133.7,9.345,9.345,0,0,0,2.617-.381,7.742,7.742,0,0,0,4.667-4.488,16.776,16.776,0,0,0,1.35-3.7,13.936,13.936,0,0,0,.443-3.239c-.014-.834-.033-1.366-.058-1.592A6.362,6.362,0,0,0,404.5,17.9a3.889,3.889,0,0,0-.775-1.351,2.954,2.954,0,0,0-1.285-.911,8.1,8.1,0,0,0-1.346-.359,7.743,7.743,0,0,0-1.288-.1,8.925,8.925,0,0,0-2.547.381,8.761,8.761,0,0,0-4.769,4.488" transform="translate(-289.866 -10.88)" fill="#2a2b2a"/>
      <path id="Path_205" data-name="Path 205" d="M494.752,12.732h13.372l-1.051,4.431H494.51c-2.65,0-4.226,1.081-4.739,3.229a1.839,1.839,0,0,0,.436,1.991,3.014,3.014,0,0,0,2.164.686h6.7a18.281,18.281,0,0,1,3.4.278,4.639,4.639,0,0,1,2.451,1.662q1.147,1.357.276,5.032a12.267,12.267,0,0,1-.586,1.84,13.374,13.374,0,0,1-1.073,1.975,6.8,6.8,0,0,1-2.021,1.989,8.421,8.421,0,0,1-2.9,1.2,15.023,15.023,0,0,1-3.658.376h-13.54l1.048-4.43h12.732a7,7,0,0,0,3.049-.568,2.964,2.964,0,0,0,1.536-2.146l.123-.512a2.3,2.3,0,0,0-.176-1.548,2.229,2.229,0,0,0-1.138-.687,7.236,7.236,0,0,0-1.7-.17H490.9q-3.878,0-5.6-1.647t-.8-5.53a11.02,11.02,0,0,1,1.474-3.5,7.867,7.867,0,0,1,2.313-2.388,8.773,8.773,0,0,1,2.84-1.184,14.277,14.277,0,0,1,3.629-.379" transform="translate(-361.271 -12.253)" fill="#2a2b2a"/>
      <path id="Path_206" data-name="Path 206" d="M586.469,37.427h-5.22l5.846-24.69H594.6l1.655,18.922L606.9,12.737h7.446L608.5,37.427h-5.018l4.951-19.2-10.712,19.2H592.3l-1.781-19.369Z" transform="translate(-435.26 -12.256)" fill="#2a2b2a"/>
      <path id="Path_207" data-name="Path 207" d="M711.277,18.267a12.522,12.522,0,0,1,3.041-4.02,15.652,15.652,0,0,1,2.878-1.909,13.735,13.735,0,0,1,2.559-.926,16.545,16.545,0,0,1,2.311-.43,22.2,22.2,0,0,1,2.28-.1,14.847,14.847,0,0,1,3.737.362c.875.239,1.473.418,1.793.531a7.37,7.37,0,0,1,1.315.7,4.634,4.634,0,0,1,1.377,1.357,7.508,7.508,0,0,1,1.458,4.379,19.444,19.444,0,0,1-.532,5.511,24.156,24.156,0,0,1-2.085,5.548,13.152,13.152,0,0,1-3.6,4.444,11.95,11.95,0,0,1-4.693,2.267,21.3,21.3,0,0,1-4.789.585,16.624,16.624,0,0,1-4.222-.517,6.473,6.473,0,0,1-1.211-.359,9.093,9.093,0,0,1-1.3-.7,6.116,6.116,0,0,1-1.456-1.324,5.875,5.875,0,0,1-1.052-1.971,12.97,12.97,0,0,1-.436-3.129,18.468,18.468,0,0,1,.607-4.909,22.66,22.66,0,0,1,2.016-5.388m4.766,1.775a17.644,17.644,0,0,0-1.26,3.632,19.29,19.29,0,0,0-.438,4.609q.03,2.656,1.815,3.361a8.757,8.757,0,0,0,3.136.7,9.348,9.348,0,0,0,2.615-.381,7.744,7.744,0,0,0,4.668-4.488,16.726,16.726,0,0,0,1.348-3.7,14.086,14.086,0,0,0,.448-3.239c-.019-.834-.038-1.366-.064-1.592a5.965,5.965,0,0,0-.256-1.047,3.94,3.94,0,0,0-.773-1.351A2.984,2.984,0,0,0,726,15.635a8.132,8.132,0,0,0-1.343-.359,7.777,7.777,0,0,0-1.289-.1,8.9,8.9,0,0,0-2.546.381,8.766,8.766,0,0,0-4.773,4.488" transform="translate(-529.687 -10.88)" fill="#2a2b2a"/>
      <path id="Path_208" data-name="Path 208" d="M833.184,37.562l-4.869-.136s5.215-18.769,5.751-20.336c.307-.887.815-3.546,3.821-3.972a63.145,63.145,0,0,1,8.2-.383h7.742l-1.016,4.292H844.6c-2.523-.134-4.244-.114-5.3.722a8.937,8.937,0,0,0-1.714,3.306c-.378,1.086-.632,1.888-.676,2.056l14.477-.04-1,4.228H835.867Z" transform="translate(-618.386 -12.256)" fill="#2a2b2a"/>
      <path id="Path_209" data-name="Path 209" d="M923.184,12.732h5.325l-5.847,24.691H917.34Z" transform="translate(-684.373 -12.253)" fill="#2a2b2a"/>
      <path id="Path_210" data-name="Path 210" d="M977.524,33.337l-.967,4.087h-7.273a33.68,33.68,0,0,1-5.094-.439c-3.86-1.05-2.435-5.957-2.336-6.851s3.912-17.4,3.912-17.4h5.053L967.606,26.3c-.141.6-.264,1.106-.362,1.528s-.342,2.248-.489,2.97c-.357,1.754.749,2.152,1.657,2.349a15.786,15.786,0,0,0,3.052.193Z" transform="translate(-717.117 -12.253)" fill="#2a2b2a"/>
      <path id="Path_211" data-name="Path 211" d="M1035.271,37.427h-5.221l5.845-24.69h7.509l1.654,18.922L1055.7,12.737h7.443l-5.846,24.69h-5.019l4.952-19.2-10.712,19.2H1041.1l-1.779-19.369Z" transform="translate(-767.915 -12.256)" fill="#2a2b2a"/>
      <path id="Path_212" data-name="Path 212" d="M1166.49,12.732h13.371l-1.048,4.431h-12.565c-2.65,0-4.229,1.081-4.739,3.229a1.832,1.832,0,0,0,.436,1.991,3.007,3.007,0,0,0,2.165.686h6.7a18.362,18.362,0,0,1,3.407.278,4.647,4.647,0,0,1,2.449,1.662q1.147,1.357.272,5.032a11.687,11.687,0,0,1-.583,1.84,13.725,13.725,0,0,1-1.073,1.975,6.819,6.819,0,0,1-2.021,1.989,8.451,8.451,0,0,1-2.9,1.2,15.052,15.052,0,0,1-3.662.376h-13.54l1.052-4.43h12.729a6.987,6.987,0,0,0,3.047-.568,2.962,2.962,0,0,0,1.536-2.146l.122-.512a2.263,2.263,0,0,0-.175-1.548,2.217,2.217,0,0,0-1.137-.687,7.248,7.248,0,0,0-1.7-.17h-6.007c-2.583,0-4.454-.551-5.6-1.647s-1.414-2.945-.8-5.53a11.041,11.041,0,0,1,1.468-3.5,7.974,7.974,0,0,1,2.317-2.388,8.807,8.807,0,0,1,2.842-1.184,14.238,14.238,0,0,1,3.625-.379" transform="translate(-859.169 -12.253)" fill="#2a2b2a"/>
      <path id="Path_213" data-name="Path 213" d="M527.37,138.913l-.385,1.655h-3.021a3.037,3.037,0,0,1-2.73-1.093,3.655,3.655,0,0,1-.3-2.914,5.024,5.024,0,0,1,1.381-2.678,4.663,4.663,0,0,1,1.776-1.085,6.428,6.428,0,0,1,1.728-.228h3.022l-.384,1.655h-2.739a4.431,4.431,0,0,0-1.081.106,1.415,1.415,0,0,0-.712.44,1.952,1.952,0,0,0-.493.971H528.1l-.389,1.684h-4.674a1.579,1.579,0,0,0,0,.948.787.787,0,0,0,.513.448,4.7,4.7,0,0,0,1.065.091Zm-14.042-.06h2.441l-.4,1.715h-2.783a5.676,5.676,0,0,1-1.583-.2,2.278,2.278,0,0,1-1.156-.758,2.667,2.667,0,0,1-.56-1.374,4.6,4.6,0,0,1,.083-1.639,5.7,5.7,0,0,1,.374-1.1,5.622,5.622,0,0,1,.646-1.055,6.465,6.465,0,0,1,.855-.926,3.363,3.363,0,0,1,1.219-.667,8.168,8.168,0,0,1,1.069-.213,7.4,7.4,0,0,1,.908-.061h2.783l-.4,1.731h-2.65a3.2,3.2,0,0,0-1.514.4,2.7,2.7,0,0,0-1.1,1.889q-.339,1.458.254,1.86a2.629,2.629,0,0,0,1.513.4m-14.988,1.715h-2.053l1.855-8h3.884a4.829,4.829,0,0,1,1.741.259,1.486,1.486,0,0,1,.891.9,3.179,3.179,0,0,1-.023,1.768l-1.174,5.068h-2.1l1.112-4.8a4.7,4.7,0,0,0,.085-.463,2.392,2.392,0,0,0,.012-.47.425.425,0,0,0-.27-.371,2.117,2.117,0,0,0-.85-.122h-1.668ZM486.4,138.974h2.59l.387-1.669h-2.442a2.474,2.474,0,0,0-.922.159.873.873,0,0,0-.52.675.733.733,0,0,0,.03.539.508.508,0,0,0,.317.243,2.358,2.358,0,0,0,.56.053m1.8-4.749H484.73l.384-1.655h4.242a5.51,5.51,0,0,1,1.356.152,1.862,1.862,0,0,1,1.051.8,2.571,2.571,0,0,1,.13,2.041l-1.161,5.008h-5.552a1.744,1.744,0,0,1-1.892-2.368l.05-.212a3.9,3.9,0,0,1,.575-1.131,2.411,2.411,0,0,1,.831-.7,3.747,3.747,0,0,1,1.011-.349,6.832,6.832,0,0,1,1.251-.1h2.739a1.524,1.524,0,0,0-.008-.963.772.772,0,0,0-.527-.425,4.125,4.125,0,0,0-1.011-.1m-15.72,6.343h-2.024l2.53-10.912h2.024l-.675,2.914h1.86a5.187,5.187,0,0,1,1.34.159,2.013,2.013,0,0,1,.928.493,1.634,1.634,0,0,1,.433.9,3.541,3.541,0,0,1-.09,1.381l-1.176,5.068h-2.1l1.12-4.826a1.452,1.452,0,0,0-.044-1.092,1.307,1.307,0,0,0-1.017-.3h-1.667Zm-12.612,0h-2.053l1.855-8h3.884a4.824,4.824,0,0,1,1.741.259,1.486,1.486,0,0,1,.893.9,3.194,3.194,0,0,1-.023,1.768l-1.176,5.068h-2.1l1.113-4.8c.038-.162.065-.316.086-.463a2.612,2.612,0,0,0,.012-.47.427.427,0,0,0-.272-.371,2.115,2.115,0,0,0-.851-.122H461.31Zm-5.02-10.912-.439,1.9h-3.691a3.148,3.148,0,0,0-2.018.645,3.286,3.286,0,0,0-1.1,1.9h6.223l-.44,1.9h-6.222a2.617,2.617,0,0,0,.046,1.919,1.378,1.378,0,0,0,.764.652,4.754,4.754,0,0,0,1.1.1h3.691l-.44,1.9h-3.78a6.952,6.952,0,0,1-1.779-.19,3.173,3.173,0,0,1-1.334-.766,3.261,3.261,0,0,1-.848-1.9,7.153,7.153,0,0,1,.177-2.4l.181-.653a6.364,6.364,0,0,1,.387-1.154,10.445,10.445,0,0,1,.544-1.062,6.018,6.018,0,0,1,.622-.88,7.206,7.206,0,0,1,.9-.85,3.71,3.71,0,0,1,1.276-.69,7.681,7.681,0,0,1,1.3-.3,9.372,9.372,0,0,1,1.173-.076Zm-31.272,9.227a.848.848,0,0,0,.285.091,2.086,2.086,0,0,0,.357.031,2.326,2.326,0,0,0,1.249-.38,2.5,2.5,0,0,0,.907-.926,4.411,4.411,0,0,0,.429-1.108,2.983,2.983,0,0,0,.035-1.4,1.269,1.269,0,0,0-.728-.872,1.958,1.958,0,0,0-.725-.152,2.468,2.468,0,0,0-.843.167,2.924,2.924,0,0,0-.784.5,2.8,2.8,0,0,0-.583.743,3.95,3.95,0,0,0-.377,1.017,2.794,2.794,0,0,0,0,1.4,1.342,1.342,0,0,0,.782.895m3.523.729a4.714,4.714,0,0,1-1.335.752,7.67,7.67,0,0,1-1.066.3,4.734,4.734,0,0,1-.851.076,4.221,4.221,0,0,1-1.569-.3,2.723,2.723,0,0,1-1.17-.827,2.422,2.422,0,0,1-.513-1.161,5.7,5.7,0,0,1-.073-1.032,4.737,4.737,0,0,1,.125-.857,4.841,4.841,0,0,1,.571-1.464,7.369,7.369,0,0,1,.644-.918,6.863,6.863,0,0,1,.8-.751,4.432,4.432,0,0,1,1.373-.728,5.267,5.267,0,0,1,1.744-.3,4.232,4.232,0,0,1,1.564.282,2.426,2.426,0,0,1,1.056.713,3.319,3.319,0,0,1,.471.759,3.825,3.825,0,0,1,.1,2.405,5.777,5.777,0,0,1-.675,1.661,5.313,5.313,0,0,1-1.193,1.389m-14.577-5.448h-1.444l.37-1.594h1.444l.677-2.914h2.068l-.675,2.914h2.217l-.37,1.594h-2.217l-.75,3.233a1.81,1.81,0,0,0-.016,1.062.73.73,0,0,0,.53.44,7.061,7.061,0,0,0,1.128.076h.209l-.369,1.594h-1.891a1.833,1.833,0,0,1-1.631-.668,2.247,2.247,0,0,1-.188-1.821Zm-21.026,4.7h.655l1.057-4.552-.474-.015h-.58l-1.037.045a1.836,1.836,0,0,0-.944.41,2.536,2.536,0,0,0-.7.887,5.9,5.9,0,0,0-.389,1.161,2.943,2.943,0,0,0-.088,1.055,1.074,1.074,0,0,0,.444.713,2.681,2.681,0,0,0,1.516.3h.536Zm2.791-9.212h2.1l-2.53,10.912h-3.988a3.282,3.282,0,0,1-1.608-.289,5.543,5.543,0,0,1-.607-.4,2.979,2.979,0,0,1-.336-.38,2.326,2.326,0,0,1-.35-.705,3.587,3.587,0,0,1-.165-.956,3.875,3.875,0,0,1,.106-1.062l.039-.167A5.249,5.249,0,0,1,388.256,134a4.534,4.534,0,0,1,1.73-1.168,6.1,6.1,0,0,1,1.853-.259h1.771Zm-12.362,9.257-.384,1.655h-3.022a3.04,3.04,0,0,1-2.73-1.093,3.658,3.658,0,0,1-.3-2.914,5.026,5.026,0,0,1,1.38-2.678,4.664,4.664,0,0,1,1.778-1.085,6.418,6.418,0,0,1,1.728-.228H383.4l-.383,1.655h-2.739a4.445,4.445,0,0,0-1.082.106,1.417,1.417,0,0,0-.711.44,1.956,1.956,0,0,0-.493.971h4.673l-.391,1.684H377.6a1.572,1.572,0,0,0,0,.948.787.787,0,0,0,.514.448,4.69,4.69,0,0,0,1.066.091Zm-15.555,1.655h-2.053l1.854-8h3.482a2.569,2.569,0,0,1,1.367.274.907.907,0,0,1,.437.743,4.949,4.949,0,0,1-.168,1.3l-.123.532-.112.485h-1.965l.147-.637a2.887,2.887,0,0,0,.117-.827.33.33,0,0,0-.217-.281c-.125-.021-.236-.035-.332-.045s-.261-.016-.488-.016h-.447Zm-6.72-1.655-.384,1.655h-3.022a3.039,3.039,0,0,1-2.73-1.093,3.657,3.657,0,0,1-.3-2.914,5.013,5.013,0,0,1,1.38-2.678,4.661,4.661,0,0,1,1.778-1.085,6.408,6.408,0,0,1,1.726-.228h3.021l-.383,1.655H358a4.442,4.442,0,0,0-1.081.106,1.421,1.421,0,0,0-.712.44,1.958,1.958,0,0,0-.493.971h4.674l-.391,1.684H355.32a1.6,1.6,0,0,0,0,.948.79.79,0,0,0,.514.448,4.7,4.7,0,0,0,1.066.091Zm-11.554,0-.384,1.655h-3.022a3.038,3.038,0,0,1-2.73-1.093,3.652,3.652,0,0,1-.3-2.914,5.018,5.018,0,0,1,1.38-2.678,4.666,4.666,0,0,1,1.777-1.085,6.416,6.416,0,0,1,1.727-.228h3.022l-.384,1.655h-2.74a4.438,4.438,0,0,0-1.081.106,1.425,1.425,0,0,0-.712.44,1.959,1.959,0,0,0-.493.971h4.673l-.389,1.684h-4.675a1.6,1.6,0,0,0-.005.948.793.793,0,0,0,.515.448,4.7,4.7,0,0,0,1.066.091Zm-17.475,1.655h-2.054l1.855-8h3.885a4.828,4.828,0,0,1,1.741.259,1.486,1.486,0,0,1,.891.9,3.176,3.176,0,0,1-.022,1.768l-1.175,5.068h-2.1l1.112-4.8c.037-.162.065-.316.085-.463a2.469,2.469,0,0,0,.013-.47.427.427,0,0,0-.271-.371,2.122,2.122,0,0,0-.85-.122h-1.666Zm-7.194-10.912h2.143l-.46,1.989h-2.144Zm-.675,2.914h2.143l-1.855,8H320.9Zm-10.316,6.343h1.324l1.072-4.629-.234-.015h-.853a5.543,5.543,0,0,0-1.287.137,1.93,1.93,0,0,0-.9.447,2.991,2.991,0,0,0-.511.622,2.49,2.49,0,0,0-.275.706l-.109.47a1.84,1.84,0,0,0,.357,1.928,1.035,1.035,0,0,0,.554.273,5,5,0,0,0,.858.06m1.113-6.343h3.781l-1.784,7.694a5.267,5.267,0,0,1-.71,1.739,3.146,3.146,0,0,1-1.211,1.084,4.279,4.279,0,0,1-1.792.349H307.77l.376-1.624h3.691a1.442,1.442,0,0,0,1.538-1.244H311.5a8.856,8.856,0,0,1-1.009-.046,2.583,2.583,0,0,1-.8-.243,2.325,2.325,0,0,1-.8-.683,2.561,2.561,0,0,1-.494-1.274,4.8,4.8,0,0,1,.112-1.731,4.721,4.721,0,0,1,1.4-2.7,6.8,6.8,0,0,1,1.475-.972,4.11,4.11,0,0,1,1.016-.273q.49-.061.745-.068c.169,0,.3-.007.4-.007m-16.013,8h-2.054l1.855-8h3.885a4.827,4.827,0,0,1,1.741.259,1.485,1.485,0,0,1,.892.9,3.2,3.2,0,0,1-.022,1.768l-1.176,5.068h-2.1l1.112-4.8a4.419,4.419,0,0,0,.084-.463,2.347,2.347,0,0,0,.014-.47.425.425,0,0,0-.271-.371,2.115,2.115,0,0,0-.849-.122h-1.667Zm-5.02-10.912-.44,1.9h-3.691a3.143,3.143,0,0,0-2.018.645,3.281,3.281,0,0,0-1.1,1.9h6.222l-.44,1.9h-6.222a2.622,2.622,0,0,0,.046,1.919,1.377,1.377,0,0,0,.763.652,4.775,4.775,0,0,0,1.1.1h3.692l-.441,1.9H286.2a6.968,6.968,0,0,1-1.78-.19,3.168,3.168,0,0,1-1.332-.766,3.255,3.255,0,0,1-.848-1.9,7.114,7.114,0,0,1,.177-2.4l.181-.653a6.286,6.286,0,0,1,.386-1.154,10.88,10.88,0,0,1,.544-1.062,6.053,6.053,0,0,1,.621-.88,7.549,7.549,0,0,1,.9-.85,3.737,3.737,0,0,1,1.277-.69,7.675,7.675,0,0,1,1.3-.3,9.334,9.334,0,0,1,1.171-.076Z" transform="translate(-213.608 -98.918)" fill="#2a2b2a"/>
    </g>
  </g>
</svg>
