<svg xmlns="http://www.w3.org/2000/svg" width="32.875" height="32.875" viewBox="0 0 32.875 32.875">
  <path id="sc2" d="M18.438,2A16.438,16.438,0,1,0,34.875,18.438,16.456,16.456,0,0,0,18.438,2Zm8.031,13.239c.007.169.011.34.011.512A11.259,11.259,0,0,1,9.147,25.235a8,8,0,0,0,5.86-1.639,3.967,3.967,0,0,1-3.7-2.749,3.951,3.951,0,0,0,1.788-.068A3.962,3.962,0,0,1,9.923,16.9v-.05a3.943,3.943,0,0,0,1.793.5,3.966,3.966,0,0,1-1.226-5.287,11.246,11.246,0,0,0,8.16,4.137A3.96,3.96,0,0,1,25.4,12.582a7.936,7.936,0,0,0,2.514-.96,3.97,3.97,0,0,1-1.742,2.19,7.962,7.962,0,0,0,2.275-.624A8.05,8.05,0,0,1,26.469,15.239Z" transform="translate(-2 -2)" fill="#fff" opacity="0.4"/>
</svg>
