<svg xmlns="http://www.w3.org/2000/svg" width="33" height="33" viewBox="0 0 33 33">
  <g id="sc3" transform="translate(0.31)" opacity="0.4">
    <circle id="Ellipse_12" data-name="Ellipse 12" cx="16.5" cy="16.5" r="16.5" transform="translate(-0.31)" fill="#fff"/>
    <circle id="Ellipse_13" data-name="Ellipse 13" cx="11.5" cy="11.5" r="11.5" transform="translate(4.69 4)" fill="#2a2b2a"/>
    <path id="icons8-facebook" d="M15.4,3a12.388,12.388,0,0,0-1.853,24.638V18.681H10.476V15.422h3.067V13.254c0-3.59,1.749-5.166,4.732-5.166a17.23,17.23,0,0,1,2.542.154v2.844H18.782c-1.267,0-1.709,1.2-1.709,2.554v1.781h3.712l-.5,3.258H17.073v8.983A12.389,12.389,0,0,0,15.4,3Z" transform="translate(0.339 0.171)" fill="#fff"/>
  </g>
</svg>
