<svg xmlns="http://www.w3.org/2000/svg" width="33" height="33" viewBox="0 0 33 33">
  <g id="sc4" transform="translate(0.313)" opacity="0.4">
    <circle id="Ellipse_14" data-name="Ellipse 14" cx="16.5" cy="16.5" r="16.5" transform="translate(-0.313)" fill="#fff"/>
    <circle id="Ellipse_15" data-name="Ellipse 15" cx="13.5" cy="13.5" r="13.5" transform="translate(2.687 3)" fill="#2a2b2a"/>
    <path id="icons8-instagram-circle" d="M16.351,2A14.351,14.351,0,1,0,30.7,16.351,14.367,14.367,0,0,0,16.351,2ZM12.67,6.416h7.359a6.263,6.263,0,0,1,6.257,6.255v7.359a6.263,6.263,0,0,1-6.255,6.257H12.673a6.263,6.263,0,0,1-6.257-6.255V12.673A6.263,6.263,0,0,1,12.67,6.416Zm0,2.208a4.053,4.053,0,0,0-4.047,4.049v7.359a4.053,4.053,0,0,0,4.049,4.047h7.359a4.053,4.053,0,0,0,4.047-4.049V12.671a4.053,4.053,0,0,0-4.049-4.047ZM21.5,10.463a.736.736,0,1,1-.737.735A.735.735,0,0,1,21.5,10.463Zm-5.153.369a5.52,5.52,0,1,1-5.52,5.52A5.526,5.526,0,0,1,16.351,10.831Zm0,2.208a3.312,3.312,0,1,0,3.312,3.312A3.312,3.312,0,0,0,16.351,13.039Z" transform="translate(-0.044 0.144)" fill="#fff"/>
  </g>
</svg>
